<svg width="82" height="16" viewBox="0 0 82 16" fill="none" xmlns="http://www.w3.org/2000/svg">
<path d="M10.144 12H8.784L7.664 9.072H2.88L1.76 12H0.416L4.528 1.44H6.048L10.144 12ZM3.344 7.872H7.2L5.264 2.672L3.344 7.872ZM14.8059 12.16C14.2939 12.16 13.8085 12.064 13.3499 11.872C12.9019 11.68 12.5339 11.3707 12.2459 10.944C11.9685 10.5067 11.8299 9.94133 11.8299 9.248V4H13.1099V8.912C13.1099 9.72267 13.2859 10.2827 13.6379 10.592C13.9899 10.8907 14.4859 11.04 15.1259 11.04C15.4245 11.04 15.7179 10.992 16.0059 10.896C16.2939 10.7893 16.5499 10.6293 16.7739 10.416C17.0085 10.192 17.1899 9.90933 17.3179 9.568C17.4565 9.22667 17.5259 8.82133 17.5259 8.352V4H18.8059V12H17.6859L17.6059 10.784C17.3285 11.264 16.9499 11.616 16.4699 11.84C16.0005 12.0533 15.4459 12.16 14.8059 12.16ZM24.9049 12.16C24.2435 12.16 23.6355 11.9947 23.0809 11.664C22.5262 11.3333 22.0835 10.8587 21.7529 10.24C21.4222 9.61067 21.2569 8.864 21.2569 8C21.2569 7.11467 21.4329 6.36267 21.7849 5.744C22.1369 5.12533 22.6009 4.656 23.1769 4.336C23.7529 4.00533 24.3715 3.84 25.0329 3.84C25.6942 3.84 26.2649 4.01067 26.7449 4.352C27.2355 4.69333 27.5609 5.14667 27.7209 5.712L27.5609 5.824V0.32H28.8409V12H27.7209L27.6089 10.064L27.7849 9.968C27.7102 10.4373 27.5289 10.8373 27.2409 11.168C26.9635 11.488 26.6169 11.7333 26.2009 11.904C25.7955 12.0747 25.3635 12.16 24.9049 12.16ZM25.0329 11.04C25.5449 11.04 25.9875 10.912 26.3609 10.656C26.7449 10.4 27.0382 10.0373 27.2409 9.568C27.4542 9.088 27.5609 8.528 27.5609 7.888C27.5609 7.28 27.4542 6.75733 27.2409 6.32C27.0382 5.88267 26.7502 5.54667 26.3769 5.312C26.0142 5.07733 25.5875 4.96 25.0969 4.96C24.2862 4.96 23.6569 5.23733 23.2089 5.792C22.7609 6.34667 22.5369 7.08267 22.5369 8C22.5369 8.91733 22.7555 9.65333 23.1929 10.208C23.6302 10.7627 24.2435 11.04 25.0329 11.04ZM32.4561 2.464C32.1681 2.464 31.9335 2.37867 31.7521 2.208C31.5815 2.02667 31.4961 1.792 31.4961 1.504C31.4961 1.216 31.5815 0.986666 31.7521 0.815999C31.9335 0.634666 32.1681 0.544 32.4561 0.544C32.7441 0.544 32.9735 0.634666 33.1441 0.815999C33.3255 0.986666 33.4161 1.216 33.4161 1.504C33.4161 1.792 33.3255 2.02667 33.1441 2.208C32.9735 2.37867 32.7441 2.464 32.4561 2.464ZM33.0961 4V12H31.8161V4H33.0961ZM37.9541 1.728V9.792C37.9541 10.1867 38.0661 10.48 38.2901 10.672C38.5141 10.864 38.8021 10.96 39.1541 10.96C39.4635 10.96 39.7301 10.9067 39.9541 10.8C40.1781 10.6933 40.3808 10.5493 40.5621 10.368L41.0101 11.44C40.7648 11.664 40.4715 11.84 40.1301 11.968C39.7995 12.096 39.4155 12.16 38.9781 12.16C38.5728 12.16 38.1941 12.0907 37.8421 11.952C37.4901 11.8027 37.2075 11.5733 36.9941 11.264C36.7915 10.944 36.6848 10.528 36.6741 10.016V2.08L37.9541 1.728ZM40.8661 4V5.104H35.0741V4H40.8661ZM49.7424 10.8H55.7904V12H48.4624V1.44H49.7424V10.8ZM60.8625 3.84C61.6198 3.84 62.2865 4.00533 62.8625 4.336C63.4492 4.66667 63.9078 5.14667 64.2385 5.776C64.5692 6.39467 64.7345 7.136 64.7345 8C64.7345 8.864 64.5692 9.61067 64.2385 10.24C63.9078 10.8587 63.4492 11.3333 62.8625 11.664C62.2865 11.9947 61.6198 12.16 60.8625 12.16C60.1158 12.16 59.4492 11.9947 58.8625 11.664C58.2758 11.3333 57.8172 10.8587 57.4865 10.24C57.1558 9.61067 56.9905 8.864 56.9905 8C56.9905 7.136 57.1558 6.39467 57.4865 5.776C57.8172 5.14667 58.2758 4.66667 58.8625 4.336C59.4492 4.00533 60.1158 3.84 60.8625 3.84ZM60.8625 4.944C60.3185 4.944 59.8545 5.06667 59.4705 5.312C59.0865 5.55733 58.7878 5.90933 58.5745 6.368C58.3718 6.816 58.2705 7.36 58.2705 8C58.2705 8.62933 58.3718 9.17333 58.5745 9.632C58.7878 10.0907 59.0865 10.4427 59.4705 10.688C59.8545 10.9333 60.3185 11.056 60.8625 11.056C61.4065 11.056 61.8705 10.9333 62.2545 10.688C62.6385 10.4427 62.9318 10.0907 63.1345 9.632C63.3478 9.17333 63.4545 8.62933 63.4545 8C63.4545 7.36 63.3478 6.816 63.1345 6.368C62.9318 5.90933 62.6385 5.55733 62.2545 5.312C61.8705 5.06667 61.4065 4.944 60.8625 4.944ZM73.8802 2.528L74.1683 3.664C74.1576 3.664 74.1416 3.664 74.1203 3.664C74.0989 3.664 74.0776 3.664 74.0563 3.664C73.5336 3.664 73.1283 3.77067 72.8403 3.984C72.5629 4.18667 72.4243 4.51733 72.4243 4.976L71.6403 4.576C71.6403 4.16 71.7363 3.79733 71.9283 3.488C72.1203 3.17867 72.3816 2.944 72.7123 2.784C73.0429 2.61333 73.4056 2.528 73.8003 2.528C73.8109 2.528 73.8216 2.528 73.8323 2.528C73.8536 2.528 73.8696 2.528 73.8802 2.528ZM71.4483 10.976C72.2056 10.976 72.7976 11.152 73.2243 11.504C73.6509 11.8453 73.8643 12.304 73.8643 12.88C73.8643 13.4027 73.6883 13.856 73.3363 14.24C72.9949 14.624 72.5309 14.9173 71.9443 15.12C71.3683 15.3333 70.7176 15.44 69.9923 15.44C68.7336 15.44 67.7896 15.2267 67.1603 14.8C66.5416 14.3733 66.2323 13.8613 66.2323 13.264C66.2323 12.8373 66.3709 12.4533 66.6483 12.112C66.9363 11.7813 67.4163 11.5947 68.0883 11.552L67.9763 11.792C67.6136 11.696 67.3043 11.536 67.0483 11.312C66.8029 11.0773 66.6803 10.7413 66.6803 10.304C66.6803 9.86667 66.8403 9.49333 67.1603 9.184C67.4909 8.864 67.9763 8.66667 68.6163 8.592L69.4643 9.024H69.3043C68.7816 9.07733 68.4083 9.21067 68.1843 9.424C67.9709 9.62667 67.8643 9.85067 67.8643 10.096C67.8643 10.3947 67.9709 10.6187 68.1843 10.768C68.4083 10.9067 68.7176 10.976 69.1123 10.976H71.4483ZM69.9763 14.368C70.5949 14.368 71.1016 14.304 71.4963 14.176C71.9016 14.048 72.2003 13.8827 72.3923 13.68C72.5843 13.4773 72.6803 13.2587 72.6803 13.024C72.6803 12.736 72.5629 12.5067 72.3283 12.336C72.1043 12.1653 71.6936 12.08 71.0963 12.08H68.6323C68.2909 12.08 68.0029 12.1653 67.7682 12.336C67.5336 12.5173 67.4163 12.7627 67.4163 13.072C67.4163 13.4667 67.6403 13.7813 68.0883 14.016C68.5469 14.2507 69.1763 14.368 69.9763 14.368ZM69.8643 3.84C70.5043 3.84 71.0696 3.95733 71.5603 4.192C72.0616 4.416 72.4509 4.73067 72.7283 5.136C73.0056 5.54133 73.1443 6.01067 73.1443 6.544C73.1443 7.06667 73.0056 7.536 72.7283 7.952C72.4509 8.35733 72.0616 8.67733 71.5603 8.912C71.0696 9.136 70.5043 9.248 69.8643 9.248C68.8083 9.248 67.9976 8.99733 67.4323 8.496C66.8669 7.984 66.5843 7.33333 66.5843 6.544C66.5843 6.01067 66.7229 5.54133 67.0003 5.136C67.2883 4.73067 67.6776 4.416 68.1683 4.192C68.6589 3.95733 69.2243 3.84 69.8643 3.84ZM69.8643 4.88C69.3096 4.88 68.8456 5.03467 68.4723 5.344C68.0989 5.64267 67.9123 6.04267 67.9123 6.544C67.9123 7.03467 68.0989 7.43467 68.4723 7.744C68.8456 8.05333 69.3096 8.208 69.8643 8.208C70.4189 8.208 70.8829 8.05333 71.2563 7.744C71.6296 7.43467 71.8163 7.03467 71.8163 6.544C71.8163 6.04267 71.6296 5.64267 71.2563 5.344C70.8829 5.03467 70.4189 4.88 69.8643 4.88ZM78.5399 12.16C77.7612 12.16 77.0412 11.9947 76.3799 11.664C75.7292 11.3333 75.2279 10.864 74.8759 10.256L75.9639 9.472C76.1985 9.96267 76.5399 10.3467 76.9879 10.624C77.4465 10.9013 77.9959 11.04 78.6359 11.04C79.2012 11.04 79.6439 10.9333 79.9639 10.72C80.2839 10.496 80.4439 10.208 80.4439 9.856C80.4439 9.632 80.3692 9.42933 80.2199 9.248C80.0812 9.056 79.8092 8.91733 79.4039 8.832L77.4839 8.432C76.7052 8.272 76.1452 8.00533 75.8039 7.632C75.4732 7.25867 75.3079 6.79467 75.3079 6.24C75.3079 5.80267 75.4305 5.40267 75.6759 5.04C75.9319 4.67733 76.2892 4.38933 76.7479 4.176C77.2172 3.952 77.7665 3.84 78.3959 3.84C79.1852 3.84 79.8519 3.99467 80.3959 4.304C80.9399 4.61333 81.3452 5.05067 81.6119 5.616L80.5399 6.32C80.3585 5.85067 80.0652 5.50933 79.6599 5.296C79.2545 5.072 78.8332 4.96 78.3959 4.96C78.0119 4.96 77.6812 5.01333 77.4039 5.12C77.1372 5.22667 76.9292 5.376 76.7799 5.568C76.6412 5.74933 76.5719 5.95733 76.5719 6.192C76.5719 6.42667 76.6519 6.64533 76.8119 6.848C76.9719 7.04 77.2705 7.17867 77.7079 7.264L79.7079 7.68C80.4545 7.82933 80.9772 8.07467 81.2759 8.416C81.5745 8.75733 81.7239 9.17333 81.7239 9.664C81.7239 10.1653 81.5905 10.608 81.3239 10.992C81.0572 11.3653 80.6839 11.6533 80.2039 11.856C79.7239 12.0587 79.1692 12.16 78.5399 12.16Z" fill="#213F7D"/>
</svg>
