<svg width="74" height="10" viewBox="0 0 74 10" fill="none" xmlns="http://www.w3.org/2000/svg">
<path d="M0.176 9V1.08H3.296C4.248 1.08 4.944 1.272 5.384 1.656C5.824 2.04 6.044 2.572 6.044 3.252C6.044 3.668 5.924 4.04 5.684 4.368C5.444 4.688 5.092 4.892 4.628 4.98V4.992C5.14 5.072 5.536 5.284 5.816 5.628C6.104 5.964 6.248 6.356 6.248 6.804C6.248 7.484 6 8.02 5.504 8.412C5.008 8.804 4.288 9 3.344 9H0.176ZM1.436 7.932H3.404C3.908 7.932 4.284 7.828 4.532 7.62C4.788 7.412 4.916 7.12 4.916 6.744C4.916 6.368 4.788 6.076 4.532 5.868C4.284 5.66 3.908 5.556 3.404 5.556H1.436V7.932ZM1.436 4.488H3.2C4.208 4.488 4.712 4.1 4.712 3.324C4.712 2.548 4.208 2.16 3.2 2.16H1.436V4.488ZM14.4333 1.08V5.964C14.4333 7.012 14.1573 7.8 13.6053 8.328C13.0533 8.856 12.2493 9.12 11.1933 9.12C10.1533 9.12 9.35331 8.856 8.79331 8.328C8.24131 7.8 7.96531 7.012 7.96531 5.964V1.08H9.24931V5.808C9.24931 6.552 9.40931 7.104 9.72931 7.464C10.0493 7.824 10.5373 8.004 11.1933 8.004C11.8573 8.004 12.3493 7.824 12.6693 7.464C12.9893 7.104 13.1493 6.552 13.1493 5.808V1.08H14.4333ZM19.3291 0.96C20.0411 0.96 20.6571 1.096 21.1771 1.368C21.6971 1.632 22.1371 2.024 22.4971 2.544L21.6331 3.372C21.3291 2.908 20.9851 2.576 20.6011 2.376C20.2251 2.168 19.7771 2.064 19.2571 2.064C18.8731 2.064 18.5571 2.116 18.3091 2.22C18.0611 2.324 17.8771 2.464 17.7571 2.64C17.6451 2.808 17.5891 3 17.5891 3.216C17.5891 3.464 17.6731 3.68 17.8411 3.864C18.0171 4.048 18.3411 4.192 18.8131 4.296L20.4211 4.656C21.1891 4.824 21.7331 5.08 22.0531 5.424C22.3731 5.768 22.5331 6.204 22.5331 6.732C22.5331 7.22 22.4011 7.644 22.1371 8.004C21.8731 8.364 21.5051 8.64 21.0331 8.832C20.5691 9.024 20.0211 9.12 19.3891 9.12C18.8291 9.12 18.3251 9.048 17.8771 8.904C17.4291 8.76 17.0371 8.564 16.7011 8.316C16.3651 8.068 16.0891 7.784 15.8731 7.464L16.7611 6.576C16.9291 6.856 17.1411 7.108 17.3971 7.332C17.6531 7.548 17.9491 7.716 18.2851 7.836C18.6291 7.956 19.0091 8.016 19.4251 8.016C19.7931 8.016 20.1091 7.972 20.3731 7.884C20.6451 7.796 20.8491 7.668 20.9851 7.5C21.1291 7.324 21.2011 7.116 21.2011 6.876C21.2011 6.644 21.1211 6.44 20.9611 6.264C20.8091 6.088 20.5211 5.952 20.0971 5.856L18.3571 5.46C17.8771 5.356 17.4811 5.208 17.1691 5.016C16.8571 4.824 16.6251 4.592 16.4731 4.32C16.3211 4.04 16.2451 3.728 16.2451 3.384C16.2451 2.936 16.3651 2.532 16.6051 2.172C16.8531 1.804 17.2091 1.512 17.6731 1.296C18.1371 1.072 18.6891 0.96 19.3291 0.96ZM25.6123 1.08V9H24.3283V1.08H25.6123ZM34.4532 1.08V9H32.9292L29.8692 4.008L29.1012 2.604H29.0892L29.1372 3.888V9H27.9612V1.08H29.4732L32.5212 6.06L33.3012 7.488H33.3132L33.2652 6.192V1.08H34.4532ZM36.7971 9V1.08H42.5331V2.184H38.0811V4.464H41.5611V5.544H38.0811V7.896H42.7011V9H36.7971ZM47.126 0.96C47.838 0.96 48.454 1.096 48.974 1.368C49.494 1.632 49.934 2.024 50.294 2.544L49.43 3.372C49.126 2.908 48.782 2.576 48.398 2.376C48.022 2.168 47.574 2.064 47.054 2.064C46.67 2.064 46.354 2.116 46.106 2.22C45.858 2.324 45.674 2.464 45.554 2.64C45.442 2.808 45.386 3 45.386 3.216C45.386 3.464 45.47 3.68 45.638 3.864C45.814 4.048 46.138 4.192 46.61 4.296L48.218 4.656C48.986 4.824 49.53 5.08 49.85 5.424C50.17 5.768 50.33 6.204 50.33 6.732C50.33 7.22 50.198 7.644 49.934 8.004C49.67 8.364 49.302 8.64 48.83 8.832C48.366 9.024 47.818 9.12 47.186 9.12C46.626 9.12 46.122 9.048 45.674 8.904C45.226 8.76 44.834 8.564 44.498 8.316C44.162 8.068 43.886 7.784 43.67 7.464L44.558 6.576C44.726 6.856 44.938 7.108 45.194 7.332C45.45 7.548 45.746 7.716 46.082 7.836C46.426 7.956 46.806 8.016 47.222 8.016C47.59 8.016 47.906 7.972 48.17 7.884C48.442 7.796 48.646 7.668 48.782 7.5C48.926 7.324 48.998 7.116 48.998 6.876C48.998 6.644 48.918 6.44 48.758 6.264C48.606 6.088 48.318 5.952 47.894 5.856L46.154 5.46C45.674 5.356 45.278 5.208 44.966 5.016C44.654 4.824 44.422 4.592 44.27 4.32C44.118 4.04 44.042 3.728 44.042 3.384C44.042 2.936 44.162 2.532 44.402 2.172C44.65 1.804 45.006 1.512 45.47 1.296C45.934 1.072 46.486 0.96 47.126 0.96ZM54.8252 0.96C55.5372 0.96 56.1532 1.096 56.6732 1.368C57.1932 1.632 57.6332 2.024 57.9932 2.544L57.1292 3.372C56.8252 2.908 56.4812 2.576 56.0972 2.376C55.7212 2.168 55.2732 2.064 54.7532 2.064C54.3692 2.064 54.0532 2.116 53.8052 2.22C53.5572 2.324 53.3732 2.464 53.2532 2.64C53.1412 2.808 53.0852 3 53.0852 3.216C53.0852 3.464 53.1692 3.68 53.3372 3.864C53.5132 4.048 53.8372 4.192 54.3092 4.296L55.9172 4.656C56.6852 4.824 57.2292 5.08 57.5492 5.424C57.8692 5.768 58.0292 6.204 58.0292 6.732C58.0292 7.22 57.8972 7.644 57.6332 8.004C57.3692 8.364 57.0012 8.64 56.5292 8.832C56.0652 9.024 55.5172 9.12 54.8852 9.12C54.3252 9.12 53.8212 9.048 53.3732 8.904C52.9252 8.76 52.5332 8.564 52.1972 8.316C51.8612 8.068 51.5852 7.784 51.3692 7.464L52.2572 6.576C52.4252 6.856 52.6372 7.108 52.8932 7.332C53.1492 7.548 53.4452 7.716 53.7812 7.836C54.1252 7.956 54.5052 8.016 54.9212 8.016C55.2892 8.016 55.6052 7.972 55.8692 7.884C56.1412 7.796 56.3452 7.668 56.4812 7.5C56.6252 7.324 56.6972 7.116 56.6972 6.876C56.6972 6.644 56.6172 6.44 56.4572 6.264C56.3052 6.088 56.0172 5.952 55.5932 5.856L53.8532 5.46C53.3732 5.356 52.9772 5.208 52.6652 5.016C52.3532 4.824 52.1212 4.592 51.9692 4.32C51.8172 4.04 51.7412 3.728 51.7412 3.384C51.7412 2.936 51.8612 2.532 52.1012 2.172C52.3492 1.804 52.7052 1.512 53.1692 1.296C53.6332 1.072 54.1852 0.96 54.8252 0.96ZM59.8244 9V1.08H65.5604V2.184H61.1084V4.464H64.5884V5.544H61.1084V7.896H65.7284V9H59.8244ZM70.1533 0.96C70.8653 0.96 71.4813 1.096 72.0013 1.368C72.5213 1.632 72.9613 2.024 73.3213 2.544L72.4573 3.372C72.1533 2.908 71.8093 2.576 71.4253 2.376C71.0493 2.168 70.6013 2.064 70.0813 2.064C69.6973 2.064 69.3813 2.116 69.1333 2.22C68.8853 2.324 68.7013 2.464 68.5813 2.64C68.4693 2.808 68.4133 3 68.4133 3.216C68.4133 3.464 68.4973 3.68 68.6653 3.864C68.8413 4.048 69.1653 4.192 69.6373 4.296L71.2453 4.656C72.0133 4.824 72.5573 5.08 72.8773 5.424C73.1973 5.768 73.3573 6.204 73.3573 6.732C73.3573 7.22 73.2253 7.644 72.9613 8.004C72.6973 8.364 72.3293 8.64 71.8573 8.832C71.3933 9.024 70.8453 9.12 70.2133 9.12C69.6533 9.12 69.1493 9.048 68.7013 8.904C68.2533 8.76 67.8613 8.564 67.5253 8.316C67.1893 8.068 66.9133 7.784 66.6973 7.464L67.5853 6.576C67.7533 6.856 67.9653 7.108 68.2213 7.332C68.4773 7.548 68.7733 7.716 69.1093 7.836C69.4533 7.956 69.8333 8.016 70.2493 8.016C70.6173 8.016 70.9333 7.972 71.1973 7.884C71.4693 7.796 71.6733 7.668 71.8093 7.5C71.9533 7.324 72.0253 7.116 72.0253 6.876C72.0253 6.644 71.9453 6.44 71.7853 6.264C71.6333 6.088 71.3453 5.952 70.9213 5.856L69.1813 5.46C68.7013 5.356 68.3053 5.208 67.9933 5.016C67.6813 4.824 67.4493 4.592 67.2973 4.32C67.1453 4.04 67.0693 3.728 67.0693 3.384C67.0693 2.936 67.1893 2.532 67.4293 2.172C67.6773 1.804 68.0333 1.512 68.4973 1.296C68.9613 1.072 69.5133 0.96 70.1533 0.96Z" fill="#545F7D"/>
</svg>
