<svg width="74" height="10" viewBox="0 0 74 10" fill="none" xmlns="http://www.w3.org/2000/svg">
<path d="M7.74 6.9C7.58 7.38 7.34 7.788 7.02 8.124C6.7 8.452 6.324 8.7 5.892 8.868C5.46 9.036 4.984 9.12 4.464 9.12C3.704 9.12 3.044 8.956 2.484 8.628C1.924 8.3 1.492 7.832 1.188 7.224C0.884 6.616 0.732 5.888 0.732 5.04C0.732 4.192 0.884 3.464 1.188 2.856C1.492 2.248 1.924 1.78 2.484 1.452C3.044 1.124 3.7 0.96 4.452 0.96C4.972 0.96 5.44 1.032 5.856 1.176C6.28 1.32 6.64 1.536 6.936 1.824C7.232 2.112 7.46 2.472 7.62 2.904L6.408 3.444C6.248 2.972 6.016 2.628 5.712 2.412C5.408 2.188 5.012 2.076 4.524 2.076C4.036 2.076 3.608 2.192 3.24 2.424C2.872 2.656 2.584 2.992 2.376 3.432C2.176 3.872 2.076 4.408 2.076 5.04C2.076 5.664 2.172 6.2 2.364 6.648C2.556 7.088 2.832 7.424 3.192 7.656C3.552 7.888 3.984 8.004 4.488 8.004C4.976 8.004 5.396 7.88 5.748 7.632C6.108 7.376 6.364 6.996 6.516 6.492L7.74 6.9ZM15.6911 1.08V5.964C15.6911 7.012 15.4151 7.8 14.8631 8.328C14.3111 8.856 13.5071 9.12 12.4511 9.12C11.4111 9.12 10.6111 8.856 10.0511 8.328C9.49913 7.8 9.22313 7.012 9.22313 5.964V1.08H10.5071V5.808C10.5071 6.552 10.6671 7.104 10.9871 7.464C11.3071 7.824 11.7951 8.004 12.4511 8.004C13.1151 8.004 13.6071 7.824 13.9271 7.464C14.2471 7.104 14.4071 6.552 14.4071 5.808V1.08H15.6911ZM20.5869 0.96C21.2989 0.96 21.9149 1.096 22.4349 1.368C22.9549 1.632 23.3949 2.024 23.7549 2.544L22.8909 3.372C22.5869 2.908 22.2429 2.576 21.8589 2.376C21.4829 2.168 21.0349 2.064 20.5149 2.064C20.1309 2.064 19.8149 2.116 19.5669 2.22C19.3189 2.324 19.1349 2.464 19.0149 2.64C18.9029 2.808 18.8469 3 18.8469 3.216C18.8469 3.464 18.9309 3.68 19.0989 3.864C19.2749 4.048 19.5989 4.192 20.0709 4.296L21.6789 4.656C22.4469 4.824 22.9909 5.08 23.3109 5.424C23.6309 5.768 23.7909 6.204 23.7909 6.732C23.7909 7.22 23.6589 7.644 23.3949 8.004C23.1309 8.364 22.7629 8.64 22.2909 8.832C21.8269 9.024 21.2789 9.12 20.6469 9.12C20.0869 9.12 19.5829 9.048 19.1349 8.904C18.6869 8.76 18.2949 8.564 17.9589 8.316C17.6229 8.068 17.3469 7.784 17.1309 7.464L18.0189 6.576C18.1869 6.856 18.3989 7.108 18.6549 7.332C18.9109 7.548 19.2069 7.716 19.5429 7.836C19.8869 7.956 20.2669 8.016 20.6829 8.016C21.0509 8.016 21.3669 7.972 21.6309 7.884C21.9029 7.796 22.1069 7.668 22.2429 7.5C22.3869 7.324 22.4589 7.116 22.4589 6.876C22.4589 6.644 22.3789 6.44 22.2189 6.264C22.0669 6.088 21.7789 5.952 21.3549 5.856L19.6149 5.46C19.1349 5.356 18.7389 5.208 18.4269 5.016C18.1149 4.824 17.8829 4.592 17.7309 4.32C17.5789 4.04 17.5029 3.728 17.5029 3.384C17.5029 2.936 17.6229 2.532 17.8629 2.172C18.1109 1.804 18.4669 1.512 18.9309 1.296C19.3949 1.072 19.9469 0.96 20.5869 0.96ZM31.1852 1.08V2.184H28.4732V9H27.1892V2.184H24.4772V1.08H31.1852ZM35.7296 0.96C36.4976 0.96 37.1616 1.124 37.7216 1.452C38.2816 1.78 38.7136 2.248 39.0176 2.856C39.3216 3.464 39.4736 4.192 39.4736 5.04C39.4736 5.888 39.3216 6.616 39.0176 7.224C38.7136 7.832 38.2816 8.3 37.7216 8.628C37.1616 8.956 36.4976 9.12 35.7296 9.12C34.9696 9.12 34.3096 8.956 33.7496 8.628C33.1896 8.3 32.7576 7.832 32.4536 7.224C32.1496 6.616 31.9976 5.888 31.9976 5.04C31.9976 4.192 32.1496 3.464 32.4536 2.856C32.7576 2.248 33.1896 1.78 33.7496 1.452C34.3096 1.124 34.9696 0.96 35.7296 0.96ZM35.7296 2.076C35.2336 2.076 34.8056 2.192 34.4456 2.424C34.0936 2.656 33.8216 2.992 33.6296 3.432C33.4376 3.872 33.3416 4.408 33.3416 5.04C33.3416 5.664 33.4376 6.2 33.6296 6.648C33.8216 7.088 34.0936 7.424 34.4456 7.656C34.8056 7.888 35.2336 8.004 35.7296 8.004C36.2336 8.004 36.6616 7.888 37.0136 7.656C37.3736 7.424 37.6496 7.088 37.8416 6.648C38.0336 6.2 38.1296 5.664 38.1296 5.04C38.1296 4.408 38.0336 3.872 37.8416 3.432C37.6496 2.992 37.3736 2.656 37.0136 2.424C36.6616 2.192 36.2336 2.076 35.7296 2.076ZM49.483 1.08V9H48.295V4.416L48.391 2.232H48.379L45.967 9H44.899L42.487 2.232H42.475L42.571 4.416V9H41.383V1.08H43.291L44.887 5.664L45.439 7.548H45.463L46.027 5.664L47.611 1.08H49.483ZM51.8362 9V1.08H57.5722V2.184H53.1202V4.464H56.6002V5.544H53.1202V7.896H57.7402V9H51.8362ZM62.6931 1.08C63.5411 1.08 64.2131 1.292 64.7091 1.716C65.2131 2.14 65.4651 2.712 65.4651 3.432C65.4651 4.176 65.2131 4.752 64.7091 5.16C64.2131 5.56 63.5411 5.76 62.6931 5.76L62.5731 5.832H60.7371V9H59.4651V1.08H62.6931ZM62.5971 4.764C63.1171 4.764 63.5011 4.66 63.7491 4.452C64.0051 4.236 64.1331 3.908 64.1331 3.468C64.1331 3.036 64.0051 2.712 63.7491 2.496C63.5011 2.28 63.1171 2.172 62.5971 2.172H60.7371V4.764H62.5971ZM63.3531 5.028L65.9331 9H64.4571L62.2491 5.532L63.3531 5.028ZM70.2276 0.96C70.9396 0.96 71.5556 1.096 72.0756 1.368C72.5956 1.632 73.0356 2.024 73.3956 2.544L72.5316 3.372C72.2276 2.908 71.8836 2.576 71.4996 2.376C71.1236 2.168 70.6756 2.064 70.1556 2.064C69.7716 2.064 69.4556 2.116 69.2076 2.22C68.9596 2.324 68.7756 2.464 68.6556 2.64C68.5436 2.808 68.4876 3 68.4876 3.216C68.4876 3.464 68.5716 3.68 68.7396 3.864C68.9156 4.048 69.2396 4.192 69.7116 4.296L71.3196 4.656C72.0876 4.824 72.6316 5.08 72.9516 5.424C73.2716 5.768 73.4316 6.204 73.4316 6.732C73.4316 7.22 73.2996 7.644 73.0356 8.004C72.7716 8.364 72.4036 8.64 71.9316 8.832C71.4676 9.024 70.9196 9.12 70.2876 9.12C69.7276 9.12 69.2236 9.048 68.7756 8.904C68.3276 8.76 67.9356 8.564 67.5996 8.316C67.2636 8.068 66.9876 7.784 66.7716 7.464L67.6596 6.576C67.8276 6.856 68.0396 7.108 68.2956 7.332C68.5516 7.548 68.8476 7.716 69.1836 7.836C69.5276 7.956 69.9076 8.016 70.3236 8.016C70.6916 8.016 71.0076 7.972 71.2716 7.884C71.5436 7.796 71.7476 7.668 71.8836 7.5C72.0276 7.324 72.0996 7.116 72.0996 6.876C72.0996 6.644 72.0196 6.44 71.8596 6.264C71.7076 6.088 71.4196 5.952 70.9956 5.856L69.2556 5.46C68.7756 5.356 68.3796 5.208 68.0676 5.016C67.7556 4.824 67.5236 4.592 67.3716 4.32C67.2196 4.04 67.1436 3.728 67.1436 3.384C67.1436 2.936 67.2636 2.532 67.5036 2.172C67.7516 1.804 68.1076 1.512 68.5716 1.296C69.0356 1.072 69.5876 0.96 70.2276 0.96Z" fill="#545F7D"/>
</svg>
