<svg width="82" height="13" viewBox="0 0 82 13" fill="none" xmlns="http://www.w3.org/2000/svg">
<path d="M4.136 1.44C5.78933 1.44 7.08533 1.89867 8.024 2.816C8.97333 3.72267 9.448 5.024 9.448 6.72C9.448 8.416 8.97333 9.72267 8.024 10.64C7.08533 11.5467 5.78933 12 4.136 12H0.728V1.44H4.136ZM4.264 10.8C5.46933 10.8 6.408 10.4427 7.08 9.728C7.76267 9.00267 8.104 8 8.104 6.72C8.104 5.44 7.76267 4.44267 7.08 3.728C6.408 3.00267 5.46933 2.64 4.264 2.64H2.008V10.8H4.264ZM16.6913 6.832C16.6913 6.23467 16.5313 5.776 16.2113 5.456C15.8913 5.12533 15.4379 4.96 14.8513 4.96C14.2966 4.96 13.8273 5.08267 13.4433 5.328C13.0593 5.56267 12.7766 5.94667 12.5953 6.48L11.5553 5.84C11.7686 5.24267 12.1633 4.76267 12.7393 4.4C13.3153 4.02667 14.0299 3.84 14.8833 3.84C15.4593 3.84 15.9819 3.94133 16.4513 4.144C16.9206 4.336 17.2886 4.63467 17.5553 5.04C17.8326 5.43467 17.9713 5.94667 17.9713 6.576V10.448C17.9713 10.832 18.1739 11.024 18.5793 11.024C18.7819 11.024 18.9793 10.9973 19.1713 10.944L19.1073 11.952C18.8939 12.0587 18.6166 12.112 18.2753 12.112C17.9659 12.112 17.6886 12.0533 17.4433 11.936C17.1979 11.8187 17.0059 11.6427 16.8673 11.408C16.7286 11.1627 16.6593 10.8587 16.6593 10.496V10.336L16.9793 10.384C16.8513 10.8 16.6326 11.1413 16.3233 11.408C16.0139 11.664 15.6673 11.856 15.2833 11.984C14.8993 12.1013 14.5206 12.16 14.1473 12.16C13.6779 12.16 13.2406 12.08 12.8353 11.92C12.4299 11.76 12.1046 11.52 11.8593 11.2C11.6246 10.8693 11.5073 10.464 11.5073 9.984C11.5073 9.38667 11.7046 8.896 12.0993 8.512C12.5046 8.11733 13.0646 7.85067 13.7793 7.712L16.9473 7.088V8.144L14.3713 8.672C13.8486 8.77867 13.4593 8.928 13.2033 9.12C12.9473 9.312 12.8193 9.57867 12.8193 9.92C12.8193 10.2507 12.9473 10.5227 13.2033 10.736C13.4699 10.9387 13.8433 11.04 14.3233 11.04C14.6326 11.04 14.9259 11.0027 15.2033 10.928C15.4913 10.8427 15.7473 10.72 15.9713 10.56C16.1953 10.3893 16.3713 10.1813 16.4993 9.936C16.6273 9.68 16.6913 9.38133 16.6913 9.04V6.832ZM23.9618 12.16C23.1831 12.16 22.4631 11.9947 21.8018 11.664C21.1511 11.3333 20.6498 10.864 20.2978 10.256L21.3858 9.472C21.6204 9.96267 21.9618 10.3467 22.4098 10.624C22.8684 10.9013 23.4178 11.04 24.0578 11.04C24.6231 11.04 25.0658 10.9333 25.3858 10.72C25.7058 10.496 25.8658 10.208 25.8658 9.856C25.8658 9.632 25.7911 9.42933 25.6418 9.248C25.5031 9.056 25.2311 8.91733 24.8258 8.832L22.9058 8.432C22.1271 8.272 21.5671 8.00533 21.2258 7.632C20.8951 7.25867 20.7298 6.79467 20.7298 6.24C20.7298 5.80267 20.8524 5.40267 21.0978 5.04C21.3538 4.67733 21.7111 4.38933 22.1698 4.176C22.6391 3.952 23.1884 3.84 23.8177 3.84C24.6071 3.84 25.2738 3.99467 25.8178 4.304C26.3618 4.61333 26.7671 5.05067 27.0338 5.616L25.9618 6.32C25.7804 5.85067 25.4871 5.50933 25.0818 5.296C24.6764 5.072 24.2551 4.96 23.8177 4.96C23.4338 4.96 23.1031 5.01333 22.8258 5.12C22.5591 5.22667 22.3511 5.376 22.2018 5.568C22.0631 5.74933 21.9938 5.95733 21.9938 6.192C21.9938 6.42667 22.0738 6.64533 22.2338 6.848C22.3938 7.04 22.6924 7.17867 23.1298 7.264L25.1298 7.68C25.8764 7.82933 26.3991 8.07467 26.6978 8.416C26.9964 8.75733 27.1458 9.17333 27.1458 9.664C27.1458 10.1653 27.0124 10.608 26.7458 10.992C26.4791 11.3653 26.1058 11.6533 25.6258 11.856C25.1458 12.0587 24.5911 12.16 23.9618 12.16ZM29.5193 12V0.32H30.7993V5.2C31.0766 4.72 31.4446 4.37333 31.9033 4.16C32.3619 3.94667 32.8633 3.84 33.4073 3.84C33.9833 3.84 34.5059 3.952 34.9753 4.176C35.4446 4.38933 35.8179 4.72 36.0953 5.168C36.3833 5.616 36.5273 6.18667 36.5273 6.88V12H35.2473V7.328C35.2473 6.44267 35.0553 5.82933 34.6713 5.488C34.2979 5.136 33.8339 4.96 33.2793 4.96C32.8953 4.96 32.5113 5.05067 32.1273 5.232C31.7433 5.41333 31.4233 5.712 31.1673 6.128C30.9219 6.53333 30.7993 7.07733 30.7993 7.76V12H29.5193ZM43.3455 12.16C42.8975 12.16 42.4815 12.08 42.0975 11.92C41.7135 11.76 41.3828 11.536 41.1055 11.248C40.8282 10.96 40.6202 10.6347 40.4815 10.272L40.6575 10.048L40.5455 12H39.4255V0.32H40.7055V5.808L40.5455 5.568C40.7588 5.06667 41.1162 4.656 41.6175 4.336C42.1295 4.00533 42.7108 3.84 43.3615 3.84C44.0228 3.84 44.6308 4.00533 45.1855 4.336C45.7402 4.66667 46.1828 5.14133 46.5135 5.76C46.8442 6.37867 47.0095 7.12533 47.0095 8C47.0095 8.864 46.8388 9.61067 46.4975 10.24C46.1668 10.8587 45.7242 11.3333 45.1695 11.664C44.6148 11.9947 44.0068 12.16 43.3455 12.16ZM43.2175 11.04C44.0068 11.04 44.6202 10.7627 45.0575 10.208C45.5055 9.65333 45.7295 8.91733 45.7295 8C45.7295 7.08267 45.5108 6.34667 45.0735 5.792C44.6362 5.23733 44.0228 4.96 43.2335 4.96C42.7322 4.96 42.2895 5.088 41.9055 5.344C41.5322 5.6 41.2388 5.95733 41.0255 6.416C40.8122 6.87467 40.7055 7.41333 40.7055 8.032C40.7055 8.64 40.8068 9.17333 41.0095 9.632C41.2228 10.08 41.5162 10.4267 41.8895 10.672C42.2735 10.9173 42.7162 11.04 43.2175 11.04ZM52.7688 3.84C53.5261 3.84 54.1928 4.00533 54.7688 4.336C55.3554 4.66667 55.8141 5.14667 56.1448 5.776C56.4754 6.39467 56.6408 7.136 56.6408 8C56.6408 8.864 56.4754 9.61067 56.1448 10.24C55.8141 10.8587 55.3554 11.3333 54.7688 11.664C54.1928 11.9947 53.5261 12.16 52.7688 12.16C52.0221 12.16 51.3554 11.9947 50.7688 11.664C50.1821 11.3333 49.7234 10.8587 49.3928 10.24C49.0621 9.61067 48.8968 8.864 48.8968 8C48.8968 7.136 49.0621 6.39467 49.3928 5.776C49.7234 5.14667 50.1821 4.66667 50.7688 4.336C51.3554 4.00533 52.0221 3.84 52.7688 3.84ZM52.7688 4.944C52.2248 4.944 51.7608 5.06667 51.3768 5.312C50.9928 5.55733 50.6941 5.90933 50.4808 6.368C50.2781 6.816 50.1768 7.36 50.1768 8C50.1768 8.62933 50.2781 9.17333 50.4808 9.632C50.6941 10.0907 50.9928 10.4427 51.3768 10.688C51.7608 10.9333 52.2248 11.056 52.7688 11.056C53.3128 11.056 53.7768 10.9333 54.1608 10.688C54.5448 10.4427 54.8381 10.0907 55.0408 9.632C55.2541 9.17333 55.3608 8.62933 55.3608 8C55.3608 7.36 55.2541 6.816 55.0408 6.368C54.8381 5.90933 54.5448 5.55733 54.1608 5.312C53.7768 5.06667 53.3128 4.944 52.7688 4.944ZM63.7225 6.832C63.7225 6.23467 63.5625 5.776 63.2425 5.456C62.9225 5.12533 62.4692 4.96 61.8825 4.96C61.3278 4.96 60.8585 5.08267 60.4745 5.328C60.0905 5.56267 59.8078 5.94667 59.6265 6.48L58.5865 5.84C58.7998 5.24267 59.1945 4.76267 59.7705 4.4C60.3465 4.02667 61.0612 3.84 61.9145 3.84C62.4905 3.84 63.0132 3.94133 63.4825 4.144C63.9518 4.336 64.3198 4.63467 64.5865 5.04C64.8638 5.43467 65.0025 5.94667 65.0025 6.576V10.448C65.0025 10.832 65.2052 11.024 65.6105 11.024C65.8132 11.024 66.0105 10.9973 66.2025 10.944L66.1385 11.952C65.9252 12.0587 65.6478 12.112 65.3065 12.112C64.9972 12.112 64.7198 12.0533 64.4745 11.936C64.2292 11.8187 64.0372 11.6427 63.8985 11.408C63.7598 11.1627 63.6905 10.8587 63.6905 10.496V10.336L64.0105 10.384C63.8825 10.8 63.6638 11.1413 63.3545 11.408C63.0452 11.664 62.6985 11.856 62.3145 11.984C61.9305 12.1013 61.5518 12.16 61.1785 12.16C60.7092 12.16 60.2718 12.08 59.8665 11.92C59.4612 11.76 59.1358 11.52 58.8905 11.2C58.6558 10.8693 58.5385 10.464 58.5385 9.984C58.5385 9.38667 58.7358 8.896 59.1305 8.512C59.5358 8.11733 60.0958 7.85067 60.8105 7.712L63.9785 7.088V8.144L61.4025 8.672C60.8798 8.77867 60.4905 8.928 60.2345 9.12C59.9785 9.312 59.8505 9.57867 59.8505 9.92C59.8505 10.2507 59.9785 10.5227 60.2345 10.736C60.5012 10.9387 60.8745 11.04 61.3545 11.04C61.6638 11.04 61.9572 11.0027 62.2345 10.928C62.5225 10.8427 62.7785 10.72 63.0025 10.56C63.2265 10.3893 63.4025 10.1813 63.5305 9.936C63.6585 9.68 63.7225 9.38133 63.7225 9.04V6.832ZM68.113 12V4H69.153L69.329 5.312C69.553 4.82133 69.8783 4.45333 70.305 4.208C70.7423 3.96267 71.2703 3.84 71.889 3.84C72.0277 3.84 72.177 3.85067 72.337 3.872C72.5077 3.89333 72.6517 3.936 72.769 4L72.545 5.168C72.4277 5.12533 72.2997 5.09333 72.161 5.072C72.0223 5.05067 71.825 5.04 71.569 5.04C71.2383 5.04 70.9023 5.136 70.561 5.328C70.2303 5.52 69.953 5.81333 69.729 6.208C69.505 6.592 69.393 7.08267 69.393 7.68V12H68.113ZM77.5143 12.16C76.8529 12.16 76.2449 11.9947 75.6903 11.664C75.1356 11.3333 74.6929 10.8587 74.3623 10.24C74.0316 9.61067 73.8663 8.864 73.8663 8C73.8663 7.11467 74.0423 6.36267 74.3943 5.744C74.7463 5.12533 75.2103 4.656 75.7863 4.336C76.3623 4.00533 76.9809 3.84 77.6423 3.84C78.3036 3.84 78.8743 4.01067 79.3543 4.352C79.8449 4.69333 80.1703 5.14667 80.3303 5.712L80.1703 5.824V0.32H81.4503V12H80.3303L80.2183 10.064L80.3943 9.968C80.3196 10.4373 80.1383 10.8373 79.8503 11.168C79.5729 11.488 79.2263 11.7333 78.8103 11.904C78.4049 12.0747 77.9729 12.16 77.5143 12.16ZM77.6423 11.04C78.1543 11.04 78.5969 10.912 78.9703 10.656C79.3543 10.4 79.6476 10.0373 79.8503 9.568C80.0636 9.088 80.1703 8.528 80.1703 7.888C80.1703 7.28 80.0636 6.75733 79.8503 6.32C79.6476 5.88267 79.3596 5.54667 78.9863 5.312C78.6236 5.07733 78.1969 4.96 77.7063 4.96C76.8956 4.96 76.2663 5.23733 75.8183 5.792C75.3703 6.34667 75.1463 7.08267 75.1463 8C75.1463 8.91733 75.3649 9.65333 75.8023 10.208C76.2396 10.7627 76.8529 11.04 77.6423 11.04Z" fill="#213F7D"/>
</svg>
