<svg width="126" height="13" viewBox="0 0 126 13" fill="none" xmlns="http://www.w3.org/2000/svg">
<path d="M4.136 1.44C5.78933 1.44 7.08533 1.89867 8.024 2.816C8.97333 3.72267 9.448 5.024 9.448 6.72C9.448 8.416 8.97333 9.72267 8.024 10.64C7.08533 11.5467 5.78933 12 4.136 12H0.728V1.44H4.136ZM4.264 10.8C5.46933 10.8 6.408 10.4427 7.08 9.728C7.76267 9.00267 8.104 8 8.104 6.72C8.104 5.44 7.76267 4.44267 7.08 3.728C6.408 3.00267 5.46933 2.64 4.264 2.64H2.008V10.8H4.264ZM15.3633 12.16C14.6059 12.16 13.9286 11.9947 13.3313 11.664C12.7446 11.3333 12.2859 10.8587 11.9553 10.24C11.6246 9.61067 11.4593 8.864 11.4593 8C11.4593 7.136 11.6246 6.39467 11.9553 5.776C12.2859 5.14667 12.7393 4.66667 13.3153 4.336C13.8913 4.00533 14.5473 3.84 15.2833 3.84C16.0299 3.84 16.6646 4 17.1873 4.32C17.7206 4.64 18.1259 5.07733 18.4033 5.632C18.6806 6.176 18.8193 6.78933 18.8193 7.472C18.8193 7.65333 18.8139 7.81867 18.8033 7.968C18.7926 8.11733 18.7766 8.25067 18.7552 8.368H12.2913V7.232H18.1953L17.5393 7.36C17.5393 6.592 17.3259 6 16.8993 5.584C16.4833 5.168 15.9339 4.96 15.2513 4.96C14.7286 4.96 14.2753 5.08267 13.8913 5.328C13.5179 5.56267 13.2246 5.90933 13.0113 6.368C12.8086 6.816 12.7073 7.36 12.7073 8C12.7073 8.62933 12.8139 9.17333 13.0273 9.632C13.2406 10.0907 13.5393 10.4427 13.9233 10.688C14.3179 10.9227 14.7873 11.04 15.3313 11.04C15.9179 11.04 16.3926 10.928 16.7553 10.704C17.1286 10.48 17.4273 10.176 17.6513 9.792L18.6593 10.384C18.4566 10.7467 18.1953 11.0613 17.8753 11.328C17.5659 11.5947 17.1979 11.8027 16.7713 11.952C16.3553 12.0907 15.8859 12.16 15.3633 12.16ZM24.5656 3.84C25.1203 3.84 25.6056 3.92533 26.0216 4.096C26.4483 4.26667 26.8163 4.512 27.1256 4.832C27.435 5.152 27.6856 5.53067 27.8776 5.968L26.6616 6.544C26.491 6.032 26.2296 5.64267 25.8776 5.376C25.5363 5.09867 25.0883 4.96 24.5336 4.96C24.0003 4.96 23.5416 5.08267 23.1576 5.328C22.7736 5.56267 22.4803 5.90933 22.2776 6.368C22.075 6.816 21.9736 7.36 21.9736 8C21.9736 8.62933 22.075 9.17333 22.2776 9.632C22.4803 10.0907 22.7736 10.4427 23.1576 10.688C23.5416 10.9227 24.0003 11.04 24.5336 11.04C24.9496 11.04 25.307 10.976 25.6056 10.848C25.915 10.72 26.1656 10.5333 26.3576 10.288C26.5603 10.0427 26.699 9.744 26.7736 9.392L27.9576 9.808C27.7763 10.2987 27.5256 10.72 27.2056 11.072C26.8963 11.424 26.5176 11.696 26.0696 11.888C25.6323 12.0693 25.131 12.16 24.5656 12.16C23.819 12.16 23.1523 11.9947 22.5656 11.664C21.979 11.3333 21.5203 10.8587 21.1896 10.24C20.859 9.61067 20.6936 8.864 20.6936 8C20.6936 7.136 20.859 6.39467 21.1896 5.776C21.5203 5.14667 21.979 4.66667 22.5656 4.336C23.1523 4.00533 23.819 3.84 24.5656 3.84ZM30.8468 2.464C30.5588 2.464 30.3241 2.37867 30.1428 2.208C29.9721 2.02667 29.8868 1.792 29.8868 1.504C29.8868 1.216 29.9721 0.986666 30.1428 0.815999C30.3241 0.634666 30.5588 0.544 30.8468 0.544C31.1348 0.544 31.3641 0.634666 31.5348 0.815999C31.7161 0.986666 31.8068 1.216 31.8068 1.504C31.8068 1.792 31.7161 2.02667 31.5348 2.208C31.3641 2.37867 31.1348 2.464 30.8468 2.464ZM31.4868 4V12H30.2068V4H31.4868ZM37.3368 12.16C36.5581 12.16 35.8381 11.9947 35.1768 11.664C34.5261 11.3333 34.0248 10.864 33.6728 10.256L34.7608 9.472C34.9954 9.96267 35.3368 10.3467 35.7848 10.624C36.2434 10.9013 36.7928 11.04 37.4328 11.04C37.9981 11.04 38.4408 10.9333 38.7608 10.72C39.0808 10.496 39.2408 10.208 39.2408 9.856C39.2408 9.632 39.1661 9.42933 39.0168 9.248C38.8781 9.056 38.6061 8.91733 38.2008 8.832L36.2808 8.432C35.5021 8.272 34.9421 8.00533 34.6008 7.632C34.2701 7.25867 34.1048 6.79467 34.1048 6.24C34.1048 5.80267 34.2274 5.40267 34.4728 5.04C34.7288 4.67733 35.0861 4.38933 35.5448 4.176C36.0141 3.952 36.5634 3.84 37.1927 3.84C37.9821 3.84 38.6488 3.99467 39.1928 4.304C39.7368 4.61333 40.1421 5.05067 40.4088 5.616L39.3368 6.32C39.1554 5.85067 38.8621 5.50933 38.4568 5.296C38.0514 5.072 37.6301 4.96 37.1927 4.96C36.8088 4.96 36.4781 5.01333 36.2008 5.12C35.9341 5.22667 35.7261 5.376 35.5768 5.568C35.4381 5.74933 35.3688 5.95733 35.3688 6.192C35.3688 6.42667 35.4488 6.64533 35.6088 6.848C35.7688 7.04 36.0674 7.17867 36.5048 7.264L38.5048 7.68C39.2514 7.82933 39.7741 8.07467 40.0728 8.416C40.3714 8.75733 40.5208 9.17333 40.5208 9.664C40.5208 10.1653 40.3874 10.608 40.1208 10.992C39.8541 11.3653 39.4808 11.6533 39.0008 11.856C38.5208 12.0587 37.9661 12.16 37.3368 12.16ZM43.5343 2.464C43.2463 2.464 43.0116 2.37867 42.8303 2.208C42.6596 2.02667 42.5743 1.792 42.5743 1.504C42.5743 1.216 42.6596 0.986666 42.8303 0.815999C43.0116 0.634666 43.2463 0.544 43.5343 0.544C43.8223 0.544 44.0516 0.634666 44.2223 0.815999C44.4036 0.986666 44.4943 1.216 44.4943 1.504C44.4943 1.792 44.4036 2.02667 44.2223 2.208C44.0516 2.37867 43.8223 2.464 43.5343 2.464ZM44.1743 4V12H42.8943V4H44.1743ZM50.4563 3.84C51.2136 3.84 51.8803 4.00533 52.4563 4.336C53.0429 4.66667 53.5016 5.14667 53.8323 5.776C54.1629 6.39467 54.3283 7.136 54.3283 8C54.3283 8.864 54.1629 9.61067 53.8323 10.24C53.5016 10.8587 53.0429 11.3333 52.4563 11.664C51.8803 11.9947 51.2136 12.16 50.4563 12.16C49.7096 12.16 49.0429 11.9947 48.4563 11.664C47.8696 11.3333 47.4109 10.8587 47.0803 10.24C46.7496 9.61067 46.5843 8.864 46.5843 8C46.5843 7.136 46.7496 6.39467 47.0803 5.776C47.4109 5.14667 47.8696 4.66667 48.4563 4.336C49.0429 4.00533 49.7096 3.84 50.4563 3.84ZM50.4563 4.944C49.9123 4.944 49.4483 5.06667 49.0643 5.312C48.6803 5.55733 48.3816 5.90933 48.1683 6.368C47.9656 6.816 47.8643 7.36 47.8643 8C47.8643 8.62933 47.9656 9.17333 48.1683 9.632C48.3816 10.0907 48.6803 10.4427 49.0643 10.688C49.4483 10.9333 49.9123 11.056 50.4563 11.056C51.0003 11.056 51.4643 10.9333 51.8483 10.688C52.2323 10.4427 52.5256 10.0907 52.7283 9.632C52.9416 9.17333 53.0483 8.62933 53.0483 8C53.0483 7.36 52.9416 6.816 52.7283 6.368C52.5256 5.90933 52.2323 5.55733 51.8483 5.312C51.4643 5.06667 51.0003 4.944 50.4563 4.944ZM56.738 12V4H57.858L57.97 5.792L57.762 5.616C57.9327 5.18933 58.162 4.848 58.45 4.592C58.738 4.32533 59.0687 4.13333 59.442 4.016C59.826 3.89867 60.2207 3.84 60.626 3.84C61.202 3.84 61.7247 3.952 62.194 4.176C62.6633 4.38933 63.0367 4.72 63.314 5.168C63.602 5.616 63.746 6.18667 63.746 6.88V12H62.466V7.328C62.466 6.44267 62.274 5.82933 61.89 5.488C61.5167 5.136 61.0527 4.96 60.498 4.96C60.114 4.96 59.73 5.05067 59.346 5.232C58.962 5.41333 58.642 5.70667 58.386 6.112C58.1407 6.51733 58.018 7.06133 58.018 7.744V12H56.738ZM82.5454 1.44V12H81.3294V5.36L81.4734 2.576H81.4574L77.9854 12H76.8974L73.4254 2.576H73.4094L73.5534 5.36V12H72.3374V1.44H74.3054L76.6254 7.856L77.4254 10.496H77.4574L78.2734 7.872L80.5774 1.44H82.5454ZM88.9406 3.84C89.698 3.84 90.3646 4.00533 90.9406 4.336C91.5273 4.66667 91.986 5.14667 92.3166 5.776C92.6473 6.39467 92.8126 7.136 92.8126 8C92.8126 8.864 92.6473 9.61067 92.3166 10.24C91.986 10.8587 91.5273 11.3333 90.9406 11.664C90.3646 11.9947 89.698 12.16 88.9406 12.16C88.194 12.16 87.5273 11.9947 86.9406 11.664C86.354 11.3333 85.8953 10.8587 85.5646 10.24C85.234 9.61067 85.0686 8.864 85.0686 8C85.0686 7.136 85.234 6.39467 85.5646 5.776C85.8953 5.14667 86.354 4.66667 86.9406 4.336C87.5273 4.00533 88.194 3.84 88.9406 3.84ZM88.9406 4.944C88.3966 4.944 87.9326 5.06667 87.5486 5.312C87.1646 5.55733 86.866 5.90933 86.6526 6.368C86.45 6.816 86.3486 7.36 86.3486 8C86.3486 8.62933 86.45 9.17333 86.6526 9.632C86.866 10.0907 87.1646 10.4427 87.5486 10.688C87.9326 10.9333 88.3966 11.056 88.9406 11.056C89.4846 11.056 89.9486 10.9333 90.3326 10.688C90.7166 10.4427 91.01 10.0907 91.2126 9.632C91.426 9.17333 91.5326 8.62933 91.5326 8C91.5326 7.36 91.426 6.816 91.2126 6.368C91.01 5.90933 90.7166 5.55733 90.3326 5.312C89.9486 5.06667 89.4846 4.944 88.9406 4.944ZM98.3424 12.16C97.681 12.16 97.073 11.9947 96.5184 11.664C95.9637 11.3333 95.521 10.8587 95.1904 10.24C94.8597 9.61067 94.6944 8.864 94.6944 8C94.6944 7.11467 94.8704 6.36267 95.2224 5.744C95.5744 5.12533 96.0384 4.656 96.6144 4.336C97.1904 4.00533 97.809 3.84 98.4704 3.84C99.1317 3.84 99.7024 4.01067 100.182 4.352C100.673 4.69333 100.998 5.14667 101.158 5.712L100.998 5.824V0.32H102.278V12H101.158L101.046 10.064L101.222 9.968C101.148 10.4373 100.966 10.8373 100.678 11.168C100.401 11.488 100.054 11.7333 99.6384 11.904C99.233 12.0747 98.801 12.16 98.3424 12.16ZM98.4704 11.04C98.9824 11.04 99.425 10.912 99.7984 10.656C100.182 10.4 100.476 10.0373 100.678 9.568C100.892 9.088 100.998 8.528 100.998 7.888C100.998 7.28 100.892 6.75733 100.678 6.32C100.476 5.88267 100.188 5.54667 99.8144 5.312C99.4517 5.07733 99.025 4.96 98.5344 4.96C97.7237 4.96 97.0944 5.23733 96.6464 5.792C96.1984 6.34667 95.9744 7.08267 95.9744 8C95.9744 8.91733 96.193 9.65333 96.6304 10.208C97.0677 10.7627 97.681 11.04 98.4704 11.04ZM108.598 12.16C107.84 12.16 107.163 11.9947 106.566 11.664C105.979 11.3333 105.52 10.8587 105.19 10.24C104.859 9.61067 104.694 8.864 104.694 8C104.694 7.136 104.859 6.39467 105.19 5.776C105.52 5.14667 105.974 4.66667 106.55 4.336C107.126 4.00533 107.782 3.84 108.518 3.84C109.264 3.84 109.899 4 110.422 4.32C110.955 4.64 111.36 5.07733 111.638 5.632C111.915 6.176 112.054 6.78933 112.054 7.472C112.054 7.65333 112.048 7.81867 112.038 7.968C112.027 8.11733 112.011 8.25067 111.99 8.368H105.526V7.232H111.43L110.774 7.36C110.774 6.592 110.56 6 110.134 5.584C109.718 5.168 109.168 4.96 108.486 4.96C107.963 4.96 107.51 5.08267 107.126 5.328C106.752 5.56267 106.459 5.90933 106.246 6.368C106.043 6.816 105.942 7.36 105.942 8C105.942 8.62933 106.048 9.17333 106.262 9.632C106.475 10.0907 106.774 10.4427 107.158 10.688C107.552 10.9227 108.022 11.04 108.566 11.04C109.152 11.04 109.627 10.928 109.99 10.704C110.363 10.48 110.662 10.176 110.886 9.792L111.894 10.384C111.691 10.7467 111.43 11.0613 111.11 11.328C110.8 11.5947 110.432 11.8027 110.006 11.952C109.59 12.0907 109.12 12.16 108.598 12.16ZM115.704 0.32V9.968C115.704 10.3733 115.779 10.656 115.928 10.816C116.077 10.9653 116.317 11.04 116.648 11.04C116.861 11.04 117.037 11.024 117.176 10.992C117.315 10.96 117.501 10.9013 117.736 10.816L117.528 11.936C117.357 12.0107 117.171 12.064 116.968 12.096C116.765 12.1387 116.557 12.16 116.344 12.16C115.693 12.16 115.208 11.984 114.888 11.632C114.579 11.28 114.424 10.7413 114.424 10.016V0.32H115.704ZM122.259 12.16C121.48 12.16 120.76 11.9947 120.099 11.664C119.448 11.3333 118.947 10.864 118.595 10.256L119.683 9.472C119.917 9.96267 120.259 10.3467 120.707 10.624C121.165 10.9013 121.715 11.04 122.355 11.04C122.92 11.04 123.363 10.9333 123.683 10.72C124.003 10.496 124.163 10.208 124.163 9.856C124.163 9.632 124.088 9.42933 123.939 9.248C123.8 9.056 123.528 8.91733 123.123 8.832L121.203 8.432C120.424 8.272 119.864 8.00533 119.523 7.632C119.192 7.25867 119.027 6.79467 119.027 6.24C119.027 5.80267 119.149 5.40267 119.395 5.04C119.651 4.67733 120.008 4.38933 120.467 4.176C120.936 3.952 121.485 3.84 122.115 3.84C122.904 3.84 123.571 3.99467 124.115 4.304C124.659 4.61333 125.064 5.05067 125.331 5.616L124.259 6.32C124.077 5.85067 123.784 5.50933 123.379 5.296C122.973 5.072 122.552 4.96 122.115 4.96C121.731 4.96 121.4 5.01333 121.123 5.12C120.856 5.22667 120.648 5.376 120.499 5.568C120.36 5.74933 120.291 5.95733 120.291 6.192C120.291 6.42667 120.371 6.64533 120.531 6.848C120.691 7.04 120.989 7.17867 121.427 7.264L123.427 7.68C124.173 7.82933 124.696 8.07467 124.995 8.416C125.293 8.75733 125.443 9.17333 125.443 9.664C125.443 10.1653 125.309 10.608 125.043 10.992C124.776 11.3653 124.403 11.6533 123.923 11.856C123.443 12.0587 122.888 12.16 122.259 12.16Z" fill="#213F7D"/>
</svg>
