<svg width="137" height="16" viewBox="0 0 137 16" fill="none" xmlns="http://www.w3.org/2000/svg">
<path d="M8.12 2.64H2.008V6.048H6.776V7.248H2.008V12H0.728V1.44H8.12V2.64ZM12.7226 12.16C11.9653 12.16 11.288 11.9947 10.6906 11.664C10.104 11.3333 9.64529 10.8587 9.31463 10.24C8.98396 9.61067 8.81863 8.864 8.81863 8C8.81863 7.136 8.98396 6.39467 9.31463 5.776C9.64529 5.14667 10.0986 4.66667 10.6746 4.336C11.2506 4.00533 11.9066 3.84 12.6426 3.84C13.3893 3.84 14.024 4 14.5466 4.32C15.08 4.64 15.4853 5.07733 15.7626 5.632C16.04 6.176 16.1786 6.78933 16.1786 7.472C16.1786 7.65333 16.1733 7.81867 16.1626 7.968C16.152 8.11733 16.136 8.25067 16.1146 8.368H9.65063V7.232H15.5546L14.8986 7.36C14.8986 6.592 14.6853 6 14.2586 5.584C13.8426 5.168 13.2933 4.96 12.6106 4.96C12.088 4.96 11.6346 5.08267 11.2506 5.328C10.8773 5.56267 10.584 5.90933 10.3706 6.368C10.168 6.816 10.0666 7.36 10.0666 8C10.0666 8.62933 10.1733 9.17333 10.3866 9.632C10.6 10.0907 10.8986 10.4427 11.2826 10.688C11.6773 10.9227 12.1466 11.04 12.6906 11.04C13.2773 11.04 13.752 10.928 14.1146 10.704C14.488 10.48 14.7866 10.176 15.0106 9.792L16.0186 10.384C15.816 10.7467 15.5546 11.0613 15.2346 11.328C14.9253 11.5947 14.5573 11.8027 14.1306 11.952C13.7146 12.0907 13.2453 12.16 12.7226 12.16ZM21.957 12.16C21.1997 12.16 20.5223 11.9947 19.925 11.664C19.3383 11.3333 18.8797 10.8587 18.549 10.24C18.2183 9.61067 18.053 8.864 18.053 8C18.053 7.136 18.2183 6.39467 18.549 5.776C18.8797 5.14667 19.333 4.66667 19.909 4.336C20.485 4.00533 21.141 3.84 21.877 3.84C22.6237 3.84 23.2583 4 23.781 4.32C24.3143 4.64 24.7197 5.07733 24.997 5.632C25.2743 6.176 25.413 6.78933 25.413 7.472C25.413 7.65333 25.4077 7.81867 25.397 7.968C25.3863 8.11733 25.3703 8.25067 25.349 8.368H18.885V7.232H24.789L24.133 7.36C24.133 6.592 23.9197 6 23.493 5.584C23.077 5.168 22.5277 4.96 21.845 4.96C21.3223 4.96 20.869 5.08267 20.485 5.328C20.1117 5.56267 19.8183 5.90933 19.605 6.368C19.4023 6.816 19.301 7.36 19.301 8C19.301 8.62933 19.4077 9.17333 19.621 9.632C19.8343 10.0907 20.133 10.4427 20.517 10.688C20.9117 10.9227 21.381 11.04 21.925 11.04C22.5117 11.04 22.9863 10.928 23.349 10.704C23.7223 10.48 24.021 10.176 24.245 9.792L25.253 10.384C25.0503 10.7467 24.789 11.0613 24.469 11.328C24.1597 11.5947 23.7917 11.8027 23.365 11.952C22.949 12.0907 22.4797 12.16 21.957 12.16ZM30.7274 12.16C29.9487 12.16 29.2287 11.9947 28.5674 11.664C27.9167 11.3333 27.4154 10.864 27.0634 10.256L28.1514 9.472C28.386 9.96267 28.7274 10.3467 29.1754 10.624C29.634 10.9013 30.1834 11.04 30.8234 11.04C31.3887 11.04 31.8314 10.9333 32.1514 10.72C32.4714 10.496 32.6314 10.208 32.6314 9.856C32.6314 9.632 32.5567 9.42933 32.4074 9.248C32.2687 9.056 31.9967 8.91733 31.5914 8.832L29.6714 8.432C28.8927 8.272 28.3327 8.00533 27.9914 7.632C27.6607 7.25867 27.4954 6.79467 27.4954 6.24C27.4954 5.80267 27.618 5.40267 27.8634 5.04C28.1194 4.67733 28.4767 4.38933 28.9354 4.176C29.4047 3.952 29.954 3.84 30.5834 3.84C31.3727 3.84 32.0394 3.99467 32.5834 4.304C33.1274 4.61333 33.5327 5.05067 33.7994 5.616L32.7274 6.32C32.546 5.85067 32.2527 5.50933 31.8474 5.296C31.442 5.072 31.0207 4.96 30.5834 4.96C30.1994 4.96 29.8687 5.01333 29.5914 5.12C29.3247 5.22667 29.1167 5.376 28.9674 5.568C28.8287 5.74933 28.7594 5.95733 28.7594 6.192C28.7594 6.42667 28.8394 6.64533 28.9994 6.848C29.1594 7.04 29.458 7.17867 29.8954 7.264L31.8954 7.68C32.642 7.82933 33.1647 8.07467 33.4634 8.416C33.762 8.75733 33.9114 9.17333 33.9114 9.664C33.9114 10.1653 33.778 10.608 33.5114 10.992C33.2447 11.3653 32.8714 11.6533 32.3914 11.856C31.9114 12.0587 31.3567 12.16 30.7274 12.16ZM46.41 6.832C46.41 6.23467 46.25 5.776 45.93 5.456C45.61 5.12533 45.1567 4.96 44.57 4.96C44.0153 4.96 43.546 5.08267 43.162 5.328C42.778 5.56267 42.4953 5.94667 42.314 6.48L41.274 5.84C41.4873 5.24267 41.882 4.76267 42.458 4.4C43.034 4.02667 43.7487 3.84 44.602 3.84C45.178 3.84 45.7007 3.94133 46.17 4.144C46.6393 4.336 47.0073 4.63467 47.274 5.04C47.5513 5.43467 47.69 5.94667 47.69 6.576V10.448C47.69 10.832 47.8927 11.024 48.298 11.024C48.5007 11.024 48.698 10.9973 48.89 10.944L48.826 11.952C48.6127 12.0587 48.3353 12.112 47.994 12.112C47.6847 12.112 47.4073 12.0533 47.162 11.936C46.9167 11.8187 46.7247 11.6427 46.586 11.408C46.4473 11.1627 46.378 10.8587 46.378 10.496V10.336L46.698 10.384C46.57 10.8 46.3513 11.1413 46.042 11.408C45.7327 11.664 45.386 11.856 45.002 11.984C44.618 12.1013 44.2393 12.16 43.866 12.16C43.3967 12.16 42.9593 12.08 42.554 11.92C42.1487 11.76 41.8233 11.52 41.578 11.2C41.3433 10.8693 41.226 10.464 41.226 9.984C41.226 9.38667 41.4233 8.896 41.818 8.512C42.2233 8.11733 42.7833 7.85067 43.498 7.712L46.666 7.088V8.144L44.09 8.672C43.5673 8.77867 43.178 8.928 42.922 9.12C42.666 9.312 42.538 9.57867 42.538 9.92C42.538 10.2507 42.666 10.5227 42.922 10.736C43.1887 10.9387 43.562 11.04 44.042 11.04C44.3513 11.04 44.6447 11.0027 44.922 10.928C45.21 10.8427 45.466 10.72 45.69 10.56C45.914 10.3893 46.09 10.1813 46.218 9.936C46.346 9.68 46.41 9.38133 46.41 9.04V6.832ZM50.8005 12V4H51.9205L52.0325 5.792L51.8245 5.616C51.9952 5.18933 52.2245 4.848 52.5125 4.592C52.8005 4.32533 53.1312 4.13333 53.5045 4.016C53.8885 3.89867 54.2832 3.84 54.6885 3.84C55.2645 3.84 55.7872 3.952 56.2565 4.176C56.7258 4.38933 57.0992 4.72 57.3765 5.168C57.6645 5.616 57.8085 6.18667 57.8085 6.88V12H56.5285V7.328C56.5285 6.44267 56.3365 5.82933 55.9525 5.488C55.5792 5.136 55.1152 4.96 54.5605 4.96C54.1765 4.96 53.7925 5.05067 53.4085 5.232C53.0245 5.41333 52.7045 5.70667 52.4485 6.112C52.2032 6.51733 52.0805 7.06133 52.0805 7.744V12H50.8005ZM63.8268 12.16C63.1654 12.16 62.5574 11.9947 62.0028 11.664C61.4481 11.3333 61.0054 10.8587 60.6748 10.24C60.3441 9.61067 60.1788 8.864 60.1788 8C60.1788 7.11467 60.3548 6.36267 60.7068 5.744C61.0588 5.12533 61.5228 4.656 62.0988 4.336C62.6748 4.00533 63.2934 3.84 63.9548 3.84C64.6161 3.84 65.1868 4.01067 65.6668 4.352C66.1574 4.69333 66.4828 5.14667 66.6428 5.712L66.4828 5.824V0.32H67.7628V12H66.6428L66.5308 10.064L66.7068 9.968C66.6321 10.4373 66.4508 10.8373 66.1628 11.168C65.8854 11.488 65.5388 11.7333 65.1228 11.904C64.7174 12.0747 64.2854 12.16 63.8268 12.16ZM63.9548 11.04C64.4668 11.04 64.9094 10.912 65.2828 10.656C65.6668 10.4 65.9601 10.0373 66.1628 9.568C66.3761 9.088 66.4828 8.528 66.4828 7.888C66.4828 7.28 66.3761 6.75733 66.1628 6.32C65.9601 5.88267 65.6721 5.54667 65.2988 5.312C64.9361 5.07733 64.5094 4.96 64.0188 4.96C63.2081 4.96 62.5788 5.23733 62.1308 5.792C61.6828 6.34667 61.4588 7.08267 61.4588 8C61.4588 8.91733 61.6774 9.65333 62.1148 10.208C62.5521 10.7627 63.1654 11.04 63.9548 11.04ZM84.9431 9.296C84.7191 9.89333 84.3991 10.4107 83.9831 10.848C83.5671 11.2747 83.0765 11.6 82.5111 11.824C81.9565 12.048 81.3485 12.16 80.6871 12.16C79.6845 12.16 78.8151 11.9413 78.0791 11.504C77.3538 11.056 76.7885 10.4267 76.3831 9.616C75.9885 8.80533 75.7911 7.84 75.7911 6.72C75.7911 5.6 75.9885 4.63467 76.3831 3.824C76.7885 3.01333 77.3538 2.38933 78.0791 1.952C78.8151 1.504 79.6738 1.28 80.6551 1.28C81.3378 1.28 81.9458 1.376 82.4791 1.568C83.0125 1.74933 83.4658 2.02667 83.8391 2.4C84.2231 2.76267 84.5271 3.21067 84.7511 3.744L83.4871 4.336C83.2525 3.728 82.9111 3.26933 82.4631 2.96C82.0258 2.64 81.4551 2.48 80.7511 2.48C80.0365 2.48 79.4071 2.65067 78.8631 2.992C78.3191 3.32267 77.8925 3.80267 77.5831 4.432C77.2845 5.06133 77.1351 5.824 77.1351 6.72C77.1351 7.60533 77.2791 8.368 77.5671 9.008C77.8551 9.63733 78.2658 10.1227 78.7991 10.464C79.3325 10.7947 79.9618 10.96 80.6871 10.96C81.3911 10.96 82.0045 10.784 82.5271 10.432C83.0498 10.0693 83.4285 9.53067 83.6631 8.816L84.9431 9.296ZM87.1599 12V0.32H88.4399V5.2C88.7172 4.72 89.0852 4.37333 89.5439 4.16C90.0025 3.94667 90.5039 3.84 91.0479 3.84C91.6239 3.84 92.1465 3.952 92.6159 4.176C93.0852 4.38933 93.4585 4.72 93.7359 5.168C94.0239 5.616 94.1679 6.18667 94.1679 6.88V12H92.8879V7.328C92.8879 6.44267 92.6959 5.82933 92.3119 5.488C91.9385 5.136 91.4745 4.96 90.9199 4.96C90.5359 4.96 90.1519 5.05067 89.7679 5.232C89.3839 5.41333 89.0639 5.712 88.8079 6.128C88.5625 6.53333 88.4399 7.07733 88.4399 7.76V12H87.1599ZM101.738 6.832C101.738 6.23467 101.578 5.776 101.258 5.456C100.938 5.12533 100.485 4.96 99.8981 4.96C99.3435 4.96 98.8741 5.08267 98.4901 5.328C98.1061 5.56267 97.8235 5.94667 97.6421 6.48L96.6021 5.84C96.8155 5.24267 97.2101 4.76267 97.7861 4.4C98.3621 4.02667 99.0768 3.84 99.9301 3.84C100.506 3.84 101.029 3.94133 101.498 4.144C101.967 4.336 102.335 4.63467 102.602 5.04C102.879 5.43467 103.018 5.94667 103.018 6.576V10.448C103.018 10.832 103.221 11.024 103.626 11.024C103.829 11.024 104.026 10.9973 104.218 10.944L104.154 11.952C103.941 12.0587 103.663 12.112 103.322 12.112C103.013 12.112 102.735 12.0533 102.49 11.936C102.245 11.8187 102.053 11.6427 101.914 11.408C101.775 11.1627 101.706 10.8587 101.706 10.496V10.336L102.026 10.384C101.898 10.8 101.679 11.1413 101.37 11.408C101.061 11.664 100.714 11.856 100.33 11.984C99.9461 12.1013 99.5675 12.16 99.1941 12.16C98.7248 12.16 98.2875 12.08 97.8821 11.92C97.4768 11.76 97.1515 11.52 96.9061 11.2C96.6715 10.8693 96.5541 10.464 96.5541 9.984C96.5541 9.38667 96.7515 8.896 97.1461 8.512C97.5515 8.11733 98.1115 7.85067 98.8261 7.712L101.994 7.088V8.144L99.4181 8.672C98.8955 8.77867 98.5061 8.928 98.2501 9.12C97.9941 9.312 97.8661 9.57867 97.8661 9.92C97.8661 10.2507 97.9941 10.5227 98.2501 10.736C98.5168 10.9387 98.8901 11.04 99.3701 11.04C99.6795 11.04 99.9728 11.0027 100.25 10.928C100.538 10.8427 100.794 10.72 101.018 10.56C101.242 10.3893 101.418 10.1813 101.546 9.936C101.674 9.68 101.738 9.38133 101.738 9.04V6.832ZM106.129 12V4H107.169L107.345 5.312C107.569 4.82133 107.894 4.45333 108.321 4.208C108.758 3.96267 109.286 3.84 109.905 3.84C110.043 3.84 110.193 3.85067 110.353 3.872C110.523 3.89333 110.667 3.936 110.785 4L110.561 5.168C110.443 5.12533 110.315 5.09333 110.177 5.072C110.038 5.05067 109.841 5.04 109.585 5.04C109.254 5.04 108.918 5.136 108.577 5.328C108.246 5.52 107.969 5.81333 107.745 6.208C107.521 6.592 107.409 7.08267 107.409 7.68V12H106.129ZM118.99 2.528L119.278 3.664C119.267 3.664 119.251 3.664 119.23 3.664C119.208 3.664 119.187 3.664 119.166 3.664C118.643 3.664 118.238 3.77067 117.95 3.984C117.672 4.18667 117.534 4.51733 117.534 4.976L116.75 4.576C116.75 4.16 116.846 3.79733 117.038 3.488C117.23 3.17867 117.491 2.944 117.822 2.784C118.152 2.61333 118.515 2.528 118.91 2.528C118.92 2.528 118.931 2.528 118.942 2.528C118.963 2.528 118.979 2.528 118.99 2.528ZM116.558 10.976C117.315 10.976 117.907 11.152 118.334 11.504C118.76 11.8453 118.974 12.304 118.974 12.88C118.974 13.4027 118.798 13.856 118.446 14.24C118.104 14.624 117.64 14.9173 117.054 15.12C116.478 15.3333 115.827 15.44 115.102 15.44C113.843 15.44 112.899 15.2267 112.27 14.8C111.651 14.3733 111.342 13.8613 111.342 13.264C111.342 12.8373 111.48 12.4533 111.758 12.112C112.046 11.7813 112.526 11.5947 113.198 11.552L113.086 11.792C112.723 11.696 112.414 11.536 112.158 11.312C111.912 11.0773 111.79 10.7413 111.79 10.304C111.79 9.86667 111.95 9.49333 112.27 9.184C112.6 8.864 113.086 8.66667 113.726 8.592L114.574 9.024H114.414C113.891 9.07733 113.518 9.21067 113.294 9.424C113.08 9.62667 112.974 9.85067 112.974 10.096C112.974 10.3947 113.08 10.6187 113.294 10.768C113.518 10.9067 113.827 10.976 114.222 10.976H116.558ZM115.086 14.368C115.704 14.368 116.211 14.304 116.606 14.176C117.011 14.048 117.31 13.8827 117.502 13.68C117.694 13.4773 117.79 13.2587 117.79 13.024C117.79 12.736 117.672 12.5067 117.438 12.336C117.214 12.1653 116.803 12.08 116.206 12.08H113.742C113.4 12.08 113.112 12.1653 112.878 12.336C112.643 12.5173 112.526 12.7627 112.526 13.072C112.526 13.4667 112.75 13.7813 113.198 14.016C113.656 14.2507 114.286 14.368 115.086 14.368ZM114.974 3.84C115.614 3.84 116.179 3.95733 116.67 4.192C117.171 4.416 117.56 4.73067 117.838 5.136C118.115 5.54133 118.254 6.01067 118.254 6.544C118.254 7.06667 118.115 7.536 117.838 7.952C117.56 8.35733 117.171 8.67733 116.67 8.912C116.179 9.136 115.614 9.248 114.974 9.248C113.918 9.248 113.107 8.99733 112.542 8.496C111.976 7.984 111.694 7.33333 111.694 6.544C111.694 6.01067 111.832 5.54133 112.11 5.136C112.398 4.73067 112.787 4.416 113.278 4.192C113.768 3.95733 114.334 3.84 114.974 3.84ZM114.974 4.88C114.419 4.88 113.955 5.03467 113.582 5.344C113.208 5.64267 113.022 6.04267 113.022 6.544C113.022 7.03467 113.208 7.43467 113.582 7.744C113.955 8.05333 114.419 8.208 114.974 8.208C115.528 8.208 115.992 8.05333 116.366 7.744C116.739 7.43467 116.926 7.03467 116.926 6.544C116.926 6.04267 116.739 5.64267 116.366 5.344C115.992 5.03467 115.528 4.88 114.974 4.88ZM124.113 12.16C123.356 12.16 122.679 11.9947 122.081 11.664C121.495 11.3333 121.036 10.8587 120.705 10.24C120.375 9.61067 120.209 8.864 120.209 8C120.209 7.136 120.375 6.39467 120.705 5.776C121.036 5.14667 121.489 4.66667 122.065 4.336C122.641 4.00533 123.297 3.84 124.033 3.84C124.78 3.84 125.415 4 125.937 4.32C126.471 4.64 126.876 5.07733 127.153 5.632C127.431 6.176 127.569 6.78933 127.569 7.472C127.569 7.65333 127.564 7.81867 127.553 7.968C127.543 8.11733 127.527 8.25067 127.505 8.368H121.041V7.232H126.945L126.289 7.36C126.289 6.592 126.076 6 125.649 5.584C125.233 5.168 124.684 4.96 124.001 4.96C123.479 4.96 123.025 5.08267 122.641 5.328C122.268 5.56267 121.975 5.90933 121.761 6.368C121.559 6.816 121.457 7.36 121.457 8C121.457 8.62933 121.564 9.17333 121.777 9.632C121.991 10.0907 122.289 10.4427 122.673 10.688C123.068 10.9227 123.537 11.04 124.081 11.04C124.668 11.04 125.143 10.928 125.505 10.704C125.879 10.48 126.177 10.176 126.401 9.792L127.409 10.384C127.207 10.7467 126.945 11.0613 126.625 11.328C126.316 11.5947 125.948 11.8027 125.521 11.952C125.105 12.0907 124.636 12.16 124.113 12.16ZM132.884 12.16C132.105 12.16 131.385 11.9947 130.724 11.664C130.073 11.3333 129.572 10.864 129.22 10.256L130.308 9.472C130.542 9.96267 130.884 10.3467 131.332 10.624C131.79 10.9013 132.34 11.04 132.98 11.04C133.545 11.04 133.988 10.9333 134.308 10.72C134.628 10.496 134.788 10.208 134.788 9.856C134.788 9.632 134.713 9.42933 134.564 9.248C134.425 9.056 134.153 8.91733 133.748 8.832L131.828 8.432C131.049 8.272 130.489 8.00533 130.148 7.632C129.817 7.25867 129.652 6.79467 129.652 6.24C129.652 5.80267 129.774 5.40267 130.02 5.04C130.276 4.67733 130.633 4.38933 131.092 4.176C131.561 3.952 132.11 3.84 132.74 3.84C133.529 3.84 134.196 3.99467 134.74 4.304C135.284 4.61333 135.689 5.05067 135.956 5.616L134.884 6.32C134.702 5.85067 134.409 5.50933 134.004 5.296C133.598 5.072 133.177 4.96 132.74 4.96C132.356 4.96 132.025 5.01333 131.748 5.12C131.481 5.22667 131.273 5.376 131.124 5.568C130.985 5.74933 130.916 5.95733 130.916 6.192C130.916 6.42667 130.996 6.64533 131.156 6.848C131.316 7.04 131.614 7.17867 132.052 7.264L134.052 7.68C134.798 7.82933 135.321 8.07467 135.62 8.416C135.918 8.75733 136.068 9.17333 136.068 9.664C136.068 10.1653 135.934 10.608 135.668 10.992C135.401 11.3653 135.028 11.6533 134.548 11.856C134.068 12.0587 133.513 12.16 132.884 12.16Z" fill="#213F7D"/>
</svg>
