<svg width="127" height="16" viewBox="0 0 127 16" fill="none" xmlns="http://www.w3.org/2000/svg">
<path d="M8.12 2.64H2.008V6.048H6.776V7.248H2.008V12H0.728V1.44H8.12V2.64ZM12.7226 12.16C11.9653 12.16 11.288 11.9947 10.6906 11.664C10.104 11.3333 9.64529 10.8587 9.31463 10.24C8.98396 9.61067 8.81863 8.864 8.81863 8C8.81863 7.136 8.98396 6.39467 9.31463 5.776C9.64529 5.14667 10.0986 4.66667 10.6746 4.336C11.2506 4.00533 11.9066 3.84 12.6426 3.84C13.3893 3.84 14.024 4 14.5466 4.32C15.08 4.64 15.4853 5.07733 15.7626 5.632C16.04 6.176 16.1786 6.78933 16.1786 7.472C16.1786 7.65333 16.1733 7.81867 16.1626 7.968C16.152 8.11733 16.136 8.25067 16.1146 8.368H9.65063V7.232H15.5546L14.8986 7.36C14.8986 6.592 14.6853 6 14.2586 5.584C13.8426 5.168 13.2933 4.96 12.6106 4.96C12.088 4.96 11.6346 5.08267 11.2506 5.328C10.8773 5.56267 10.584 5.90933 10.3706 6.368C10.168 6.816 10.0666 7.36 10.0666 8C10.0666 8.62933 10.1733 9.17333 10.3866 9.632C10.6 10.0907 10.8986 10.4427 11.2826 10.688C11.6773 10.9227 12.1466 11.04 12.6906 11.04C13.2773 11.04 13.752 10.928 14.1146 10.704C14.488 10.48 14.7866 10.176 15.0106 9.792L16.0186 10.384C15.816 10.7467 15.5546 11.0613 15.2346 11.328C14.9253 11.5947 14.5573 11.8027 14.1306 11.952C13.7146 12.0907 13.2453 12.16 12.7226 12.16ZM21.957 12.16C21.1997 12.16 20.5223 11.9947 19.925 11.664C19.3383 11.3333 18.8797 10.8587 18.549 10.24C18.2183 9.61067 18.053 8.864 18.053 8C18.053 7.136 18.2183 6.39467 18.549 5.776C18.8797 5.14667 19.333 4.66667 19.909 4.336C20.485 4.00533 21.141 3.84 21.877 3.84C22.6237 3.84 23.2583 4 23.781 4.32C24.3143 4.64 24.7197 5.07733 24.997 5.632C25.2743 6.176 25.413 6.78933 25.413 7.472C25.413 7.65333 25.4077 7.81867 25.397 7.968C25.3863 8.11733 25.3703 8.25067 25.349 8.368H18.885V7.232H24.789L24.133 7.36C24.133 6.592 23.9197 6 23.493 5.584C23.077 5.168 22.5277 4.96 21.845 4.96C21.3223 4.96 20.869 5.08267 20.485 5.328C20.1117 5.56267 19.8183 5.90933 19.605 6.368C19.4023 6.816 19.301 7.36 19.301 8C19.301 8.62933 19.4077 9.17333 19.621 9.632C19.8343 10.0907 20.133 10.4427 20.517 10.688C20.9117 10.9227 21.381 11.04 21.925 11.04C22.5117 11.04 22.9863 10.928 23.349 10.704C23.7223 10.48 24.021 10.176 24.245 9.792L25.253 10.384C25.0503 10.7467 24.789 11.0613 24.469 11.328C24.1597 11.5947 23.7917 11.8027 23.365 11.952C22.949 12.0907 22.4797 12.16 21.957 12.16ZM30.7274 12.16C29.9487 12.16 29.2287 11.9947 28.5674 11.664C27.9167 11.3333 27.4154 10.864 27.0634 10.256L28.1514 9.472C28.386 9.96267 28.7274 10.3467 29.1754 10.624C29.634 10.9013 30.1834 11.04 30.8234 11.04C31.3887 11.04 31.8314 10.9333 32.1514 10.72C32.4714 10.496 32.6314 10.208 32.6314 9.856C32.6314 9.632 32.5567 9.42933 32.4074 9.248C32.2687 9.056 31.9967 8.91733 31.5914 8.832L29.6714 8.432C28.8927 8.272 28.3327 8.00533 27.9914 7.632C27.6607 7.25867 27.4954 6.79467 27.4954 6.24C27.4954 5.80267 27.618 5.40267 27.8634 5.04C28.1194 4.67733 28.4767 4.38933 28.9354 4.176C29.4047 3.952 29.954 3.84 30.5834 3.84C31.3727 3.84 32.0394 3.99467 32.5834 4.304C33.1274 4.61333 33.5327 5.05067 33.7994 5.616L32.7274 6.32C32.546 5.85067 32.2527 5.50933 31.8474 5.296C31.442 5.072 31.0207 4.96 30.5834 4.96C30.1994 4.96 29.8687 5.01333 29.5914 5.12C29.3247 5.22667 29.1167 5.376 28.9674 5.568C28.8287 5.74933 28.7594 5.95733 28.7594 6.192C28.7594 6.42667 28.8394 6.64533 28.9994 6.848C29.1594 7.04 29.458 7.17867 29.8954 7.264L31.8954 7.68C32.642 7.82933 33.1647 8.07467 33.4634 8.416C33.762 8.75733 33.9114 9.17333 33.9114 9.664C33.9114 10.1653 33.778 10.608 33.5114 10.992C33.2447 11.3653 32.8714 11.6533 32.3914 11.856C31.9114 12.0587 31.3567 12.16 30.7274 12.16ZM46.41 6.832C46.41 6.23467 46.25 5.776 45.93 5.456C45.61 5.12533 45.1567 4.96 44.57 4.96C44.0153 4.96 43.546 5.08267 43.162 5.328C42.778 5.56267 42.4953 5.94667 42.314 6.48L41.274 5.84C41.4873 5.24267 41.882 4.76267 42.458 4.4C43.034 4.02667 43.7487 3.84 44.602 3.84C45.178 3.84 45.7007 3.94133 46.17 4.144C46.6393 4.336 47.0073 4.63467 47.274 5.04C47.5513 5.43467 47.69 5.94667 47.69 6.576V10.448C47.69 10.832 47.8927 11.024 48.298 11.024C48.5007 11.024 48.698 10.9973 48.89 10.944L48.826 11.952C48.6127 12.0587 48.3353 12.112 47.994 12.112C47.6847 12.112 47.4073 12.0533 47.162 11.936C46.9167 11.8187 46.7247 11.6427 46.586 11.408C46.4473 11.1627 46.378 10.8587 46.378 10.496V10.336L46.698 10.384C46.57 10.8 46.3513 11.1413 46.042 11.408C45.7327 11.664 45.386 11.856 45.002 11.984C44.618 12.1013 44.2393 12.16 43.866 12.16C43.3967 12.16 42.9593 12.08 42.554 11.92C42.1487 11.76 41.8233 11.52 41.578 11.2C41.3433 10.8693 41.226 10.464 41.226 9.984C41.226 9.38667 41.4233 8.896 41.818 8.512C42.2233 8.11733 42.7833 7.85067 43.498 7.712L46.666 7.088V8.144L44.09 8.672C43.5673 8.77867 43.178 8.928 42.922 9.12C42.666 9.312 42.538 9.57867 42.538 9.92C42.538 10.2507 42.666 10.5227 42.922 10.736C43.1887 10.9387 43.562 11.04 44.042 11.04C44.3513 11.04 44.6447 11.0027 44.922 10.928C45.21 10.8427 45.466 10.72 45.69 10.56C45.914 10.3893 46.09 10.1813 46.218 9.936C46.346 9.68 46.41 9.38133 46.41 9.04V6.832ZM50.8005 12V4H51.9205L52.0325 5.792L51.8245 5.616C51.9952 5.18933 52.2245 4.848 52.5125 4.592C52.8005 4.32533 53.1312 4.13333 53.5045 4.016C53.8885 3.89867 54.2832 3.84 54.6885 3.84C55.2645 3.84 55.7872 3.952 56.2565 4.176C56.7258 4.38933 57.0992 4.72 57.3765 5.168C57.6645 5.616 57.8085 6.18667 57.8085 6.88V12H56.5285V7.328C56.5285 6.44267 56.3365 5.82933 55.9525 5.488C55.5792 5.136 55.1152 4.96 54.5605 4.96C54.1765 4.96 53.7925 5.05067 53.4085 5.232C53.0245 5.41333 52.7045 5.70667 52.4485 6.112C52.2032 6.51733 52.0805 7.06133 52.0805 7.744V12H50.8005ZM63.8268 12.16C63.1654 12.16 62.5574 11.9947 62.0028 11.664C61.4481 11.3333 61.0054 10.8587 60.6748 10.24C60.3441 9.61067 60.1788 8.864 60.1788 8C60.1788 7.11467 60.3548 6.36267 60.7068 5.744C61.0588 5.12533 61.5228 4.656 62.0988 4.336C62.6748 4.00533 63.2934 3.84 63.9548 3.84C64.6161 3.84 65.1868 4.01067 65.6668 4.352C66.1574 4.69333 66.4828 5.14667 66.6428 5.712L66.4828 5.824V0.32H67.7628V12H66.6428L66.5308 10.064L66.7068 9.968C66.6321 10.4373 66.4508 10.8373 66.1628 11.168C65.8854 11.488 65.5388 11.7333 65.1228 11.904C64.7174 12.0747 64.2854 12.16 63.8268 12.16ZM63.9548 11.04C64.4668 11.04 64.9094 10.912 65.2828 10.656C65.6668 10.4 65.9601 10.0373 66.1628 9.568C66.3761 9.088 66.4828 8.528 66.4828 7.888C66.4828 7.28 66.3761 6.75733 66.1628 6.32C65.9601 5.88267 65.6721 5.54667 65.2988 5.312C64.9361 5.07733 64.5094 4.96 64.0188 4.96C63.2081 4.96 62.5788 5.23733 62.1308 5.792C61.6828 6.34667 61.4588 7.08267 61.4588 8C61.4588 8.91733 61.6774 9.65333 62.1148 10.208C62.5521 10.7627 63.1654 11.04 63.9548 11.04ZM80.1591 1.44C80.8738 1.44 81.4925 1.57333 82.0151 1.84C82.5485 2.096 82.9645 2.464 83.2631 2.944C83.5618 3.424 83.7111 3.99467 83.7111 4.656C83.7111 5.31733 83.5618 5.888 83.2631 6.368C82.9645 6.848 82.5485 7.22133 82.0151 7.488C81.4925 7.744 80.8738 7.872 80.1591 7.872H77.7111V12H76.4311V1.44H80.1591ZM79.9671 6.672C80.7991 6.672 81.4071 6.50133 81.7911 6.16C82.1751 5.808 82.3671 5.30667 82.3671 4.656C82.3671 3.99467 82.1751 3.49333 81.7911 3.152C81.4071 2.81067 80.7991 2.64 79.9671 2.64H77.7111V6.672H79.9671ZM85.9568 12V4H86.9968L87.1728 5.312C87.3968 4.82133 87.7221 4.45333 88.1488 4.208C88.5861 3.96267 89.1141 3.84 89.7328 3.84C89.8714 3.84 90.0208 3.85067 90.1808 3.872C90.3514 3.89333 90.4954 3.936 90.6128 4L90.3888 5.168C90.2714 5.12533 90.1434 5.09333 90.0048 5.072C89.8661 5.05067 89.6688 5.04 89.4128 5.04C89.0821 5.04 88.7461 5.136 88.4048 5.328C88.0741 5.52 87.7968 5.81333 87.5728 6.208C87.3488 6.592 87.2368 7.08267 87.2368 7.68V12H85.9568ZM93.128 2.464C92.84 2.464 92.6053 2.37867 92.424 2.208C92.2533 2.02667 92.168 1.792 92.168 1.504C92.168 1.216 92.2533 0.986666 92.424 0.815999C92.6053 0.634666 92.84 0.544 93.128 0.544C93.416 0.544 93.6453 0.634666 93.816 0.815999C93.9973 0.986666 94.088 1.216 94.088 1.504C94.088 1.792 93.9973 2.02667 93.816 2.208C93.6453 2.37867 93.416 2.464 93.128 2.464ZM93.768 4V12H92.488V4H93.768ZM100.05 3.84C100.605 3.84 101.09 3.92533 101.506 4.096C101.933 4.26667 102.301 4.512 102.61 4.832C102.919 5.152 103.17 5.53067 103.362 5.968L102.146 6.544C101.975 6.032 101.714 5.64267 101.362 5.376C101.021 5.09867 100.573 4.96 100.018 4.96C99.4847 4.96 99.026 5.08267 98.642 5.328C98.258 5.56267 97.9647 5.90933 97.762 6.368C97.5593 6.816 97.458 7.36 97.458 8C97.458 8.62933 97.5593 9.17333 97.762 9.632C97.9647 10.0907 98.258 10.4427 98.642 10.688C99.026 10.9227 99.4847 11.04 100.018 11.04C100.434 11.04 100.791 10.976 101.09 10.848C101.399 10.72 101.65 10.5333 101.842 10.288C102.045 10.0427 102.183 9.744 102.258 9.392L103.442 9.808C103.261 10.2987 103.01 10.72 102.69 11.072C102.381 11.424 102.002 11.696 101.554 11.888C101.117 12.0693 100.615 12.16 100.05 12.16C99.3033 12.16 98.6367 11.9947 98.05 11.664C97.4633 11.3333 97.0047 10.8587 96.674 10.24C96.3433 9.61067 96.178 8.864 96.178 8C96.178 7.136 96.3433 6.39467 96.674 5.776C97.0047 5.14667 97.4633 4.66667 98.05 4.336C98.6367 4.00533 99.3033 3.84 100.05 3.84ZM106.331 2.464C106.043 2.464 105.808 2.37867 105.627 2.208C105.456 2.02667 105.371 1.792 105.371 1.504C105.371 1.216 105.456 0.986666 105.627 0.815999C105.808 0.634666 106.043 0.544 106.331 0.544C106.619 0.544 106.848 0.634666 107.019 0.815999C107.2 0.986666 107.291 1.216 107.291 1.504C107.291 1.792 107.2 2.02667 107.019 2.208C106.848 2.37867 106.619 2.464 106.331 2.464ZM106.971 4V12H105.691V4H106.971ZM109.941 12V4H111.061L111.173 5.792L110.965 5.616C111.136 5.18933 111.365 4.848 111.653 4.592C111.941 4.32533 112.272 4.13333 112.645 4.016C113.029 3.89867 113.424 3.84 113.829 3.84C114.405 3.84 114.928 3.952 115.397 4.176C115.866 4.38933 116.24 4.72 116.517 5.168C116.805 5.616 116.949 6.18667 116.949 6.88V12H115.669V7.328C115.669 6.44267 115.477 5.82933 115.093 5.488C114.72 5.136 114.256 4.96 113.701 4.96C113.317 4.96 112.933 5.05067 112.549 5.232C112.165 5.41333 111.845 5.70667 111.589 6.112C111.344 6.51733 111.221 7.06133 111.221 7.744V12H109.941ZM126.583 2.528L126.871 3.664C126.861 3.664 126.845 3.664 126.823 3.664C126.802 3.664 126.781 3.664 126.759 3.664C126.237 3.664 125.831 3.77067 125.543 3.984C125.266 4.18667 125.127 4.51733 125.127 4.976L124.343 4.576C124.343 4.16 124.439 3.79733 124.631 3.488C124.823 3.17867 125.085 2.944 125.415 2.784C125.746 2.61333 126.109 2.528 126.503 2.528C126.514 2.528 126.525 2.528 126.535 2.528C126.557 2.528 126.573 2.528 126.583 2.528ZM124.151 10.976C124.909 10.976 125.501 11.152 125.927 11.504C126.354 11.8453 126.567 12.304 126.567 12.88C126.567 13.4027 126.391 13.856 126.039 14.24C125.698 14.624 125.234 14.9173 124.647 15.12C124.071 15.3333 123.421 15.44 122.695 15.44C121.437 15.44 120.493 15.2267 119.863 14.8C119.245 14.3733 118.935 13.8613 118.935 13.264C118.935 12.8373 119.074 12.4533 119.351 12.112C119.639 11.7813 120.119 11.5947 120.791 11.552L120.679 11.792C120.317 11.696 120.007 11.536 119.751 11.312C119.506 11.0773 119.383 10.7413 119.383 10.304C119.383 9.86667 119.543 9.49333 119.863 9.184C120.194 8.864 120.679 8.66667 121.319 8.592L122.167 9.024H122.007C121.485 9.07733 121.111 9.21067 120.887 9.424C120.674 9.62667 120.567 9.85067 120.567 10.096C120.567 10.3947 120.674 10.6187 120.887 10.768C121.111 10.9067 121.421 10.976 121.815 10.976H124.151ZM122.679 14.368C123.298 14.368 123.805 14.304 124.199 14.176C124.605 14.048 124.903 13.8827 125.095 13.68C125.287 13.4773 125.383 13.2587 125.383 13.024C125.383 12.736 125.266 12.5067 125.031 12.336C124.807 12.1653 124.397 12.08 123.799 12.08H121.335C120.994 12.08 120.706 12.1653 120.471 12.336C120.237 12.5173 120.119 12.7627 120.119 13.072C120.119 13.4667 120.343 13.7813 120.791 14.016C121.25 14.2507 121.879 14.368 122.679 14.368ZM122.567 3.84C123.207 3.84 123.773 3.95733 124.263 4.192C124.765 4.416 125.154 4.73067 125.431 5.136C125.709 5.54133 125.847 6.01067 125.847 6.544C125.847 7.06667 125.709 7.536 125.431 7.952C125.154 8.35733 124.765 8.67733 124.263 8.912C123.773 9.136 123.207 9.248 122.567 9.248C121.511 9.248 120.701 8.99733 120.135 8.496C119.57 7.984 119.287 7.33333 119.287 6.544C119.287 6.01067 119.426 5.54133 119.703 5.136C119.991 4.73067 120.381 4.416 120.871 4.192C121.362 3.95733 121.927 3.84 122.567 3.84ZM122.567 4.88C122.013 4.88 121.549 5.03467 121.175 5.344C120.802 5.64267 120.615 6.04267 120.615 6.544C120.615 7.03467 120.802 7.43467 121.175 7.744C121.549 8.05333 122.013 8.208 122.567 8.208C123.122 8.208 123.586 8.05333 123.959 7.744C124.333 7.43467 124.519 7.03467 124.519 6.544C124.519 6.04267 124.333 5.64267 123.959 5.344C123.586 5.03467 123.122 4.88 122.567 4.88Z" fill="#213F7D"/>
</svg>
