<svg width="85" height="12" viewBox="0 0 85 12" fill="none" xmlns="http://www.w3.org/2000/svg">
<path d="M4.984 11.16C3.98133 11.16 3.112 10.9413 2.376 10.504C1.65067 10.056 1.08533 9.42667 0.68 8.616C0.285333 7.80533 0.0880001 6.84 0.0880001 5.72C0.0880001 4.6 0.296 3.63467 0.712 2.824C1.13867 2.01333 1.73067 1.38933 2.488 0.952C3.24533 0.504 4.11467 0.28 5.096 0.28C6.14133 0.28 6.98933 0.477333 7.64 0.872C8.30133 1.26667 8.83467 1.87467 9.24 2.696L8.072 3.336C7.83733 2.728 7.464 2.26933 6.952 1.96C6.45067 1.64 5.832 1.48 5.096 1.48C4.38133 1.48 3.74667 1.65067 3.192 1.992C2.648 2.32267 2.216 2.808 1.896 3.448C1.58667 4.07733 1.432 4.83467 1.432 5.72C1.432 6.60533 1.56533 7.368 1.832 8.008C2.10933 8.63733 2.51467 9.12267 3.048 9.464C3.592 9.79467 4.25333 9.96 5.032 9.96C5.46933 9.96 5.87467 9.90667 6.248 9.8C6.632 9.68267 6.96267 9.512 7.24 9.288C7.528 9.064 7.752 8.78133 7.912 8.44C8.072 8.09867 8.152 7.69867 8.152 7.24V6.872H4.792V5.672H9.32V11H8.312L8.248 9.032L8.52 9.08C8.24267 9.74133 7.80533 10.2533 7.208 10.616C6.61067 10.9787 5.86933 11.16 4.984 11.16ZM14.9621 11.16C14.4501 11.16 13.9648 11.064 13.5061 10.872C13.0581 10.68 12.6901 10.3707 12.4021 9.944C12.1248 9.50667 11.9861 8.94133 11.9861 8.248V3H13.2661V7.912C13.2661 8.72267 13.4421 9.28267 13.7941 9.592C14.1461 9.89067 14.6421 10.04 15.2821 10.04C15.5808 10.04 15.8741 9.992 16.1621 9.896C16.4501 9.78933 16.7061 9.62933 16.9301 9.416C17.1648 9.192 17.3461 8.90933 17.4741 8.568C17.6128 8.22667 17.6821 7.82133 17.6821 7.352V3H18.9621V11H17.8421L17.7621 9.784C17.4848 10.264 17.1061 10.616 16.6261 10.84C16.1568 11.0533 15.6021 11.16 14.9621 11.16ZM26.6131 5.832C26.6131 5.23467 26.4531 4.776 26.1331 4.456C25.8131 4.12533 25.3598 3.96 24.7731 3.96C24.2185 3.96 23.7491 4.08267 23.3651 4.328C22.9811 4.56267 22.6985 4.94667 22.5171 5.48L21.4771 4.84C21.6905 4.24267 22.0851 3.76267 22.6611 3.4C23.2371 3.02667 23.9518 2.84 24.8051 2.84C25.3811 2.84 25.9038 2.94133 26.3731 3.144C26.8425 3.336 27.2105 3.63467 27.4771 4.04C27.7545 4.43467 27.8931 4.94667 27.8931 5.576V9.448C27.8931 9.832 28.0958 10.024 28.5011 10.024C28.7038 10.024 28.9011 9.99733 29.0931 9.944L29.0291 10.952C28.8158 11.0587 28.5385 11.112 28.1971 11.112C27.8878 11.112 27.6105 11.0533 27.3651 10.936C27.1198 10.8187 26.9278 10.6427 26.7891 10.408C26.6505 10.1627 26.5811 9.85867 26.5811 9.496V9.336L26.9011 9.384C26.7731 9.8 26.5545 10.1413 26.2451 10.408C25.9358 10.664 25.5891 10.856 25.2051 10.984C24.8211 11.1013 24.4425 11.16 24.0691 11.16C23.5998 11.16 23.1625 11.08 22.7571 10.92C22.3518 10.76 22.0265 10.52 21.7811 10.2C21.5465 9.86933 21.4291 9.464 21.4291 8.984C21.4291 8.38667 21.6265 7.896 22.0211 7.512C22.4265 7.11733 22.9865 6.85067 23.7011 6.712L26.8691 6.088V7.144L24.2931 7.672C23.7705 7.77867 23.3811 7.928 23.1251 8.12C22.8691 8.312 22.7411 8.57867 22.7411 8.92C22.7411 9.25067 22.8691 9.52267 23.1251 9.736C23.3918 9.93867 23.7651 10.04 24.2451 10.04C24.5545 10.04 24.8478 10.0027 25.1251 9.928C25.4131 9.84267 25.6691 9.72 25.8931 9.56C26.1171 9.38933 26.2931 9.18133 26.4211 8.936C26.5491 8.68 26.6131 8.38133 26.6131 8.04V5.832ZM31.0036 11V3H32.0436L32.2196 4.312C32.4436 3.82133 32.769 3.45333 33.1956 3.208C33.633 2.96267 34.161 2.84 34.7796 2.84C34.9183 2.84 35.0676 2.85067 35.2276 2.872C35.3983 2.89333 35.5423 2.936 35.6596 3L35.4356 4.168C35.3183 4.12533 35.1903 4.09333 35.0516 4.072C34.913 4.05067 34.7156 4.04 34.4596 4.04C34.129 4.04 33.793 4.136 33.4516 4.328C33.121 4.52 32.8436 4.81333 32.6196 5.208C32.3956 5.592 32.2836 6.08267 32.2836 6.68V11H31.0036ZM41.9881 5.832C41.9881 5.23467 41.8281 4.776 41.5081 4.456C41.1881 4.12533 40.7348 3.96 40.1481 3.96C39.5935 3.96 39.1241 4.08267 38.7401 4.328C38.3561 4.56267 38.0735 4.94667 37.8921 5.48L36.8521 4.84C37.0655 4.24267 37.4601 3.76267 38.0361 3.4C38.6121 3.02667 39.3268 2.84 40.1801 2.84C40.7561 2.84 41.2788 2.94133 41.7481 3.144C42.2175 3.336 42.5855 3.63467 42.8521 4.04C43.1295 4.43467 43.2681 4.94667 43.2681 5.576V9.448C43.2681 9.832 43.4708 10.024 43.8761 10.024C44.0788 10.024 44.2761 9.99733 44.4681 9.944L44.4041 10.952C44.1908 11.0587 43.9135 11.112 43.5721 11.112C43.2628 11.112 42.9855 11.0533 42.7401 10.936C42.4948 10.8187 42.3028 10.6427 42.1641 10.408C42.0255 10.1627 41.9561 9.85867 41.9561 9.496V9.336L42.2761 9.384C42.1481 9.8 41.9295 10.1413 41.6201 10.408C41.3108 10.664 40.9641 10.856 40.5801 10.984C40.1961 11.1013 39.8175 11.16 39.4441 11.16C38.9748 11.16 38.5375 11.08 38.1321 10.92C37.7268 10.76 37.4015 10.52 37.1561 10.2C36.9215 9.86933 36.8041 9.464 36.8041 8.984C36.8041 8.38667 37.0015 7.896 37.3961 7.512C37.8015 7.11733 38.3615 6.85067 39.0761 6.712L42.2441 6.088V7.144L39.6681 7.672C39.1455 7.77867 38.7561 7.928 38.5001 8.12C38.2441 8.312 38.1161 8.57867 38.1161 8.92C38.1161 9.25067 38.2441 9.52267 38.5001 9.736C38.7668 9.93867 39.1401 10.04 39.6201 10.04C39.9295 10.04 40.2228 10.0027 40.5001 9.928C40.7881 9.84267 41.0441 9.72 41.2681 9.56C41.4921 9.38933 41.6681 9.18133 41.7961 8.936C41.9241 8.68 41.9881 8.38133 41.9881 8.04V5.832ZM46.3786 11V3H47.4986L47.6106 4.792L47.4026 4.616C47.5733 4.18933 47.8026 3.848 48.0906 3.592C48.3786 3.32533 48.7093 3.13333 49.0826 3.016C49.4666 2.89867 49.8613 2.84 50.2666 2.84C50.8426 2.84 51.3653 2.952 51.8346 3.176C52.304 3.38933 52.6773 3.72 52.9546 4.168C53.2426 4.616 53.3866 5.18667 53.3866 5.88V11H52.1066V6.328C52.1066 5.44267 51.9146 4.82933 51.5306 4.488C51.1573 4.136 50.6933 3.96 50.1386 3.96C49.7546 3.96 49.3706 4.05067 48.9866 4.232C48.6026 4.41333 48.2826 4.70667 48.0266 5.112C47.7813 5.51733 47.6586 6.06133 47.6586 6.744V11H46.3786ZM58.0635 0.728V8.792C58.0635 9.18667 58.1755 9.48 58.3995 9.672C58.6235 9.864 58.9115 9.96 59.2635 9.96C59.5728 9.96 59.8395 9.90667 60.0635 9.8C60.2875 9.69333 60.4902 9.54933 60.6715 9.368L61.1195 10.44C60.8742 10.664 60.5808 10.84 60.2395 10.968C59.9088 11.096 59.5248 11.16 59.0875 11.16C58.6822 11.16 58.3035 11.0907 57.9515 10.952C57.5995 10.8027 57.3168 10.5733 57.1035 10.264C56.9008 9.944 56.7942 9.528 56.7835 9.016V1.08L58.0635 0.728ZM60.9755 3V4.104H55.1835V3H60.9755ZM66.1906 2.84C66.948 2.84 67.6146 3.00533 68.1906 3.336C68.7773 3.66667 69.236 4.14667 69.5666 4.776C69.8973 5.39467 70.0626 6.136 70.0626 7C70.0626 7.864 69.8973 8.61067 69.5666 9.24C69.236 9.85867 68.7773 10.3333 68.1906 10.664C67.6146 10.9947 66.948 11.16 66.1906 11.16C65.444 11.16 64.7773 10.9947 64.1906 10.664C63.604 10.3333 63.1453 9.85867 62.8146 9.24C62.484 8.61067 62.3186 7.864 62.3186 7C62.3186 6.136 62.484 5.39467 62.8146 4.776C63.1453 4.14667 63.604 3.66667 64.1906 3.336C64.7773 3.00533 65.444 2.84 66.1906 2.84ZM66.1906 3.944C65.6466 3.944 65.1826 4.06667 64.7986 4.312C64.4146 4.55733 64.116 4.90933 63.9026 5.368C63.7 5.816 63.5986 6.36 63.5986 7C63.5986 7.62933 63.7 8.17333 63.9026 8.632C64.116 9.09067 64.4146 9.44267 64.7986 9.688C65.1826 9.93333 65.6466 10.056 66.1906 10.056C66.7346 10.056 67.1986 9.93333 67.5826 9.688C67.9666 9.44267 68.26 9.09067 68.4626 8.632C68.676 8.17333 68.7826 7.62933 68.7826 7C68.7826 6.36 68.676 5.816 68.4626 5.368C68.26 4.90933 67.9666 4.55733 67.5826 4.312C67.1986 4.06667 66.7346 3.944 66.1906 3.944ZM72.4724 11V3H73.5124L73.6884 4.312C73.9124 3.82133 74.2377 3.45333 74.6644 3.208C75.1017 2.96267 75.6297 2.84 76.2484 2.84C76.387 2.84 76.5364 2.85067 76.6964 2.872C76.867 2.89333 77.011 2.936 77.1284 3L76.9044 4.168C76.787 4.12533 76.659 4.09333 76.5204 4.072C76.3817 4.05067 76.1844 4.04 75.9284 4.04C75.5977 4.04 75.2617 4.136 74.9204 4.328C74.5897 4.52 74.3124 4.81333 74.0884 5.208C73.8644 5.592 73.7524 6.08267 73.7524 6.68V11H72.4724ZM81.5399 11.16C80.7612 11.16 80.0412 10.9947 79.3799 10.664C78.7292 10.3333 78.2279 9.864 77.8759 9.256L78.9639 8.472C79.1985 8.96267 79.5399 9.34667 79.9879 9.624C80.4465 9.90133 80.9959 10.04 81.6359 10.04C82.2012 10.04 82.6439 9.93333 82.9639 9.72C83.2839 9.496 83.4439 9.208 83.4439 8.856C83.4439 8.632 83.3692 8.42933 83.2199 8.248C83.0812 8.056 82.8092 7.91733 82.4039 7.832L80.4839 7.432C79.7052 7.272 79.1452 7.00533 78.8039 6.632C78.4732 6.25867 78.3079 5.79467 78.3079 5.24C78.3079 4.80267 78.4305 4.40267 78.6759 4.04C78.9319 3.67733 79.2892 3.38933 79.7479 3.176C80.2172 2.952 80.7665 2.84 81.3959 2.84C82.1852 2.84 82.8519 2.99467 83.3959 3.304C83.9399 3.61333 84.3452 4.05067 84.6119 4.616L83.5399 5.32C83.3585 4.85067 83.0652 4.50933 82.6599 4.296C82.2545 4.072 81.8332 3.96 81.3959 3.96C81.0119 3.96 80.6812 4.01333 80.4039 4.12C80.1372 4.22667 79.9292 4.376 79.7799 4.568C79.6412 4.74933 79.5719 4.95733 79.5719 5.192C79.5719 5.42667 79.6519 5.64533 79.8119 5.848C79.9719 6.04 80.2705 6.17867 80.7079 6.264L82.7079 6.68C83.4545 6.82933 83.9772 7.07467 84.2759 7.416C84.5745 7.75733 84.7239 8.17333 84.7239 8.664C84.7239 9.16533 84.5905 9.608 84.3239 9.992C84.0572 10.3653 83.6839 10.6533 83.2039 10.856C82.7239 11.0587 82.1692 11.16 81.5399 11.16Z" fill="#213F7D"/>
</svg>
