<svg width="49" height="12" viewBox="0 0 49 12" fill="none" xmlns="http://www.w3.org/2000/svg">
<path d="M9 0.44L4.392 5.16L4.2 5.368L1.368 8.264V6.536L7.32 0.44H9ZM2.008 0.44V11H0.728V0.44H2.008ZM4.52 4.344L9.048 11H7.512L3.464 5.064L4.52 4.344ZM15.4413 5.832C15.4413 5.23467 15.2813 4.776 14.9613 4.456C14.6413 4.12533 14.1879 3.96 13.6013 3.96C13.0466 3.96 12.5773 4.08267 12.1933 4.328C11.8093 4.56267 11.5266 4.94667 11.3453 5.48L10.3053 4.84C10.5186 4.24267 10.9133 3.76267 11.4893 3.4C12.0653 3.02667 12.7799 2.84 13.6333 2.84C14.2093 2.84 14.7319 2.94133 15.2013 3.144C15.6706 3.336 16.0386 3.63467 16.3053 4.04C16.5826 4.43467 16.7213 4.94667 16.7213 5.576V9.448C16.7213 9.832 16.9239 10.024 17.3293 10.024C17.5319 10.024 17.7293 9.99733 17.9213 9.944L17.8573 10.952C17.6439 11.0587 17.3666 11.112 17.0253 11.112C16.7159 11.112 16.4386 11.0533 16.1933 10.936C15.9479 10.8187 15.7559 10.6427 15.6173 10.408C15.4786 10.1627 15.4093 9.85867 15.4093 9.496V9.336L15.7293 9.384C15.6013 9.8 15.3826 10.1413 15.0733 10.408C14.7639 10.664 14.4173 10.856 14.0333 10.984C13.6493 11.1013 13.2706 11.16 12.8973 11.16C12.4279 11.16 11.9906 11.08 11.5853 10.92C11.1799 10.76 10.8546 10.52 10.6093 10.2C10.3746 9.86933 10.2573 9.464 10.2573 8.984C10.2573 8.38667 10.4546 7.896 10.8493 7.512C11.2546 7.11733 11.8146 6.85067 12.5293 6.712L15.6973 6.088V7.144L13.1213 7.672C12.5986 7.77867 12.2093 7.928 11.9533 8.12C11.6973 8.312 11.5693 8.57867 11.5693 8.92C11.5693 9.25067 11.6973 9.52267 11.9533 9.736C12.2199 9.93867 12.5933 10.04 13.0733 10.04C13.3826 10.04 13.6759 10.0027 13.9533 9.928C14.2413 9.84267 14.4973 9.72 14.7213 9.56C14.9453 9.38933 15.1213 9.18133 15.2493 8.936C15.3773 8.68 15.4413 8.38133 15.4413 8.04V5.832ZM19.8318 11V3H20.8718L21.0478 4.312C21.2718 3.82133 21.5971 3.45333 22.0238 3.208C22.4611 2.96267 22.9891 2.84 23.6078 2.84C23.7464 2.84 23.8958 2.85067 24.0558 2.872C24.2264 2.89333 24.3704 2.936 24.4878 3L24.2638 4.168C24.1464 4.12533 24.0184 4.09333 23.8798 4.072C23.7411 4.05067 23.5438 4.04 23.2878 4.04C22.9571 4.04 22.6211 4.136 22.2798 4.328C21.9491 4.52 21.6718 4.81333 21.4478 5.208C21.2238 5.592 21.1118 6.08267 21.1118 6.68V11H19.8318ZM26.363 11V3H27.483L27.563 4.248C27.851 3.75733 28.2243 3.4 28.683 3.176C29.1523 2.952 29.6323 2.84 30.123 2.84C30.6883 2.84 31.2217 2.968 31.723 3.224C32.2243 3.48 32.6083 3.87467 32.875 4.408C33.0457 4.04533 33.2857 3.752 33.595 3.528C33.9043 3.29333 34.2403 3.12267 34.603 3.016C34.9763 2.89867 35.3283 2.84 35.659 2.84C36.171 2.84 36.6563 2.94667 37.115 3.16C37.5843 3.37333 37.9683 3.704 38.267 4.152C38.5657 4.6 38.715 5.176 38.715 5.88V11H37.435V6.008C37.435 5.28267 37.2537 4.76 36.891 4.44C36.5283 4.12 36.0803 3.96 35.547 3.96C35.131 3.96 34.7417 4.06133 34.379 4.264C34.0163 4.46667 33.723 4.76533 33.499 5.16C33.2857 5.55467 33.179 6.04 33.179 6.616V11H31.899V6.008C31.899 5.28267 31.7177 4.76 31.355 4.44C30.9923 4.12 30.5443 3.96 30.011 3.96C29.659 3.96 29.2963 4.056 28.923 4.248C28.5603 4.42933 28.2563 4.72267 28.011 5.128C27.7657 5.53333 27.643 6.06667 27.643 6.728V11H26.363ZM46.285 5.832C46.285 5.23467 46.125 4.776 45.805 4.456C45.485 4.12533 45.0317 3.96 44.445 3.96C43.8903 3.96 43.421 4.08267 43.037 4.328C42.653 4.56267 42.3703 4.94667 42.189 5.48L41.149 4.84C41.3623 4.24267 41.757 3.76267 42.333 3.4C42.909 3.02667 43.6237 2.84 44.477 2.84C45.053 2.84 45.5757 2.94133 46.045 3.144C46.5143 3.336 46.8823 3.63467 47.149 4.04C47.4263 4.43467 47.565 4.94667 47.565 5.576V9.448C47.565 9.832 47.7677 10.024 48.173 10.024C48.3757 10.024 48.573 9.99733 48.765 9.944L48.701 10.952C48.4877 11.0587 48.2103 11.112 47.869 11.112C47.5597 11.112 47.2823 11.0533 47.037 10.936C46.7917 10.8187 46.5997 10.6427 46.461 10.408C46.3223 10.1627 46.253 9.85867 46.253 9.496V9.336L46.573 9.384C46.445 9.8 46.2263 10.1413 45.917 10.408C45.6077 10.664 45.261 10.856 44.877 10.984C44.493 11.1013 44.1143 11.16 43.741 11.16C43.2717 11.16 42.8343 11.08 42.429 10.92C42.0237 10.76 41.6983 10.52 41.453 10.2C41.2183 9.86933 41.101 9.464 41.101 8.984C41.101 8.38667 41.2983 7.896 41.693 7.512C42.0983 7.11733 42.6583 6.85067 43.373 6.712L46.541 6.088V7.144L43.965 7.672C43.4423 7.77867 43.053 7.928 42.797 8.12C42.541 8.312 42.413 8.57867 42.413 8.92C42.413 9.25067 42.541 9.52267 42.797 9.736C43.0637 9.93867 43.437 10.04 43.917 10.04C44.2263 10.04 44.5197 10.0027 44.797 9.928C45.085 9.84267 45.341 9.72 45.565 9.56C45.789 9.38933 45.965 9.18133 46.093 8.936C46.221 8.68 46.285 8.38133 46.285 8.04V5.832Z" fill="#213F7D"/>
</svg>
