<svg width="114" height="15" viewBox="0 0 114 15" fill="none" xmlns="http://www.w3.org/2000/svg">
<path d="M2.008 9.8H8.056V11H0.728V0.44H2.008V9.8ZM13.1281 2.84C13.8855 2.84 14.5521 3.00533 15.1281 3.336C15.7148 3.66667 16.1735 4.14667 16.5041 4.776C16.8348 5.39467 17.0001 6.136 17.0001 7C17.0001 7.864 16.8348 8.61067 16.5041 9.24C16.1735 9.85867 15.7148 10.3333 15.1281 10.664C14.5521 10.9947 13.8855 11.16 13.1281 11.16C12.3815 11.16 11.7148 10.9947 11.1281 10.664C10.5415 10.3333 10.0828 9.85867 9.75213 9.24C9.42146 8.61067 9.25613 7.864 9.25613 7C9.25613 6.136 9.42146 5.39467 9.75213 4.776C10.0828 4.14667 10.5415 3.66667 11.1281 3.336C11.7148 3.00533 12.3815 2.84 13.1281 2.84ZM13.1281 3.944C12.5841 3.944 12.1201 4.06667 11.7361 4.312C11.3521 4.55733 11.0535 4.90933 10.8401 5.368C10.6375 5.816 10.5361 6.36 10.5361 7C10.5361 7.62933 10.6375 8.17333 10.8401 8.632C11.0535 9.09067 11.3521 9.44267 11.7361 9.688C12.1201 9.93333 12.5841 10.056 13.1281 10.056C13.6721 10.056 14.1361 9.93333 14.5201 9.688C14.9041 9.44267 15.1975 9.09067 15.4001 8.632C15.6135 8.17333 15.7201 7.62933 15.7201 7C15.7201 6.36 15.6135 5.816 15.4001 5.368C15.1975 4.90933 14.9041 4.55733 14.5201 4.312C14.1361 4.06667 13.6721 3.944 13.1281 3.944ZM24.0819 5.832C24.0819 5.23467 23.9219 4.776 23.6019 4.456C23.2819 4.12533 22.8285 3.96 22.2419 3.96C21.6872 3.96 21.2179 4.08267 20.8339 4.328C20.4499 4.56267 20.1672 4.94667 19.9859 5.48L18.9459 4.84C19.1592 4.24267 19.5539 3.76267 20.1299 3.4C20.7059 3.02667 21.4205 2.84 22.2739 2.84C22.8499 2.84 23.3725 2.94133 23.8419 3.144C24.3112 3.336 24.6792 3.63467 24.9459 4.04C25.2232 4.43467 25.3619 4.94667 25.3619 5.576V9.448C25.3619 9.832 25.5645 10.024 25.9699 10.024C26.1725 10.024 26.3699 9.99733 26.5619 9.944L26.4979 10.952C26.2845 11.0587 26.0072 11.112 25.6659 11.112C25.3565 11.112 25.0792 11.0533 24.8339 10.936C24.5885 10.8187 24.3965 10.6427 24.2579 10.408C24.1192 10.1627 24.0499 9.85867 24.0499 9.496V9.336L24.3699 9.384C24.2419 9.8 24.0232 10.1413 23.7139 10.408C23.4045 10.664 23.0579 10.856 22.6739 10.984C22.2899 11.1013 21.9112 11.16 21.5379 11.16C21.0685 11.16 20.6312 11.08 20.2259 10.92C19.8205 10.76 19.4952 10.52 19.2499 10.2C19.0152 9.86933 18.8979 9.464 18.8979 8.984C18.8979 8.38667 19.0952 7.896 19.4899 7.512C19.8952 7.11733 20.4552 6.85067 21.1699 6.712L24.3379 6.088V7.144L21.7619 7.672C21.2392 7.77867 20.8499 7.928 20.5939 8.12C20.3379 8.312 20.2099 8.57867 20.2099 8.92C20.2099 9.25067 20.3379 9.52267 20.5939 9.736C20.8605 9.93867 21.2339 10.04 21.7139 10.04C22.0232 10.04 22.3165 10.0027 22.5939 9.928C22.8819 9.84267 23.1379 9.72 23.3619 9.56C23.5859 9.38933 23.7619 9.18133 23.8899 8.936C24.0179 8.68 24.0819 8.38133 24.0819 8.04V5.832ZM28.4724 11V3H29.5924L29.7044 4.792L29.4964 4.616C29.667 4.18933 29.8964 3.848 30.1844 3.592C30.4724 3.32533 30.803 3.13333 31.1764 3.016C31.5604 2.89867 31.955 2.84 32.3604 2.84C32.9364 2.84 33.459 2.952 33.9284 3.176C34.3977 3.38933 34.771 3.72 35.0484 4.168C35.3364 4.616 35.4804 5.18667 35.4804 5.88V11H34.2004V6.328C34.2004 5.44267 34.0084 4.82933 33.6244 4.488C33.251 4.136 32.787 3.96 32.2324 3.96C31.8484 3.96 31.4644 4.05067 31.0804 4.232C30.6964 4.41333 30.3764 4.70667 30.1204 5.112C29.875 5.51733 29.7524 6.06133 29.7524 6.744V11H28.4724ZM48.0718 0.44C49.1491 0.44 50.0131 0.717333 50.6638 1.272C51.3144 1.82667 51.6398 2.57867 51.6398 3.528C51.6398 4.47733 51.3091 5.21867 50.6478 5.752C49.9971 6.27467 49.1331 6.536 48.0558 6.536L47.9438 6.616H45.3518V11H44.0718V0.44H48.0718ZM48.0558 5.416C48.8131 5.416 49.3731 5.26133 49.7358 4.952C50.1091 4.632 50.2958 4.15733 50.2958 3.528C50.2958 2.89867 50.1091 2.42933 49.7358 2.12C49.3731 1.8 48.8131 1.64 48.0558 1.64H45.3518V5.416H48.0558ZM48.7918 5.672L52.2798 11H50.7598L47.7198 6.376L48.7918 5.672ZM57.5508 11.16C56.7934 11.16 56.1161 10.9947 55.5188 10.664C54.9321 10.3333 54.4734 9.85867 54.1428 9.24C53.8121 8.61067 53.6468 7.864 53.6468 7C53.6468 6.136 53.8121 5.39467 54.1428 4.776C54.4734 4.14667 54.9268 3.66667 55.5028 3.336C56.0788 3.00533 56.7348 2.84 57.4708 2.84C58.2174 2.84 58.8521 3 59.3748 3.32C59.9081 3.64 60.3134 4.07733 60.5908 4.632C60.8681 5.176 61.0068 5.78933 61.0068 6.472C61.0068 6.65333 61.0014 6.81867 60.9908 6.968C60.9801 7.11733 60.9641 7.25067 60.9427 7.368H54.4788V6.232H60.3828L59.7268 6.36C59.7268 5.592 59.5134 5 59.0868 4.584C58.6708 4.168 58.1214 3.96 57.4388 3.96C56.9161 3.96 56.4628 4.08267 56.0788 4.328C55.7054 4.56267 55.4121 4.90933 55.1988 5.368C54.9961 5.816 54.8948 6.36 54.8948 7C54.8948 7.62933 55.0014 8.17333 55.2148 8.632C55.4281 9.09067 55.7268 9.44267 56.1108 9.688C56.5054 9.92267 56.9748 10.04 57.5188 10.04C58.1054 10.04 58.5801 9.928 58.9428 9.704C59.3161 9.48 59.6148 9.176 59.8388 8.792L60.8468 9.384C60.6441 9.74667 60.3828 10.0613 60.0628 10.328C59.7534 10.5947 59.3854 10.8027 58.9588 10.952C58.5428 11.0907 58.0734 11.16 57.5508 11.16ZM69.2171 14.36V8.808L69.4411 8.968C69.3665 9.43733 69.1851 9.83733 68.8971 10.168C68.6198 10.488 68.2731 10.7333 67.8571 10.904C67.4518 11.0747 67.0198 11.16 66.5611 11.16C65.8998 11.16 65.2918 10.9947 64.7371 10.664C64.1825 10.3333 63.7398 9.85867 63.4091 9.24C63.0785 8.61067 62.9131 7.864 62.9131 7C62.9131 6.11467 63.0891 5.36267 63.4411 4.744C63.7931 4.12533 64.2571 3.656 64.8331 3.336C65.4091 3.00533 66.0278 2.84 66.6891 2.84C67.1371 2.84 67.5531 2.92533 67.9371 3.096C68.3211 3.256 68.6465 3.49067 68.9131 3.8C69.1905 4.09867 69.3718 4.456 69.4571 4.872H69.2651L69.3771 3H70.4971V14.36H69.2171ZM66.6891 10.04C67.1905 10.04 67.6278 9.91733 68.0011 9.672C68.3851 9.416 68.6838 9.05867 68.8971 8.6C69.1105 8.13067 69.2171 7.58133 69.2171 6.952C69.2171 6.312 69.1105 5.77333 68.8971 5.336C68.6945 4.888 68.4065 4.54667 68.0331 4.312C67.6598 4.07733 67.2225 3.96 66.7211 3.96C65.9318 3.96 65.3131 4.23733 64.8651 4.792C64.4171 5.34667 64.1931 6.08267 64.1931 7C64.1931 7.91733 64.4118 8.65333 64.8491 9.208C65.2865 9.76267 65.8998 10.04 66.6891 10.04ZM76.3684 11.16C75.8564 11.16 75.371 11.064 74.9124 10.872C74.4644 10.68 74.0964 10.3707 73.8084 9.944C73.531 9.50667 73.3924 8.94133 73.3924 8.248V3H74.6724V7.912C74.6724 8.72267 74.8484 9.28267 75.2004 9.592C75.5524 9.89067 76.0484 10.04 76.6884 10.04C76.987 10.04 77.2804 9.992 77.5684 9.896C77.8564 9.78933 78.1124 9.62933 78.3364 9.416C78.571 9.192 78.7524 8.90933 78.8804 8.568C79.019 8.22667 79.0884 7.82133 79.0884 7.352V3H80.3684V11H79.2484L79.1684 9.784C78.891 10.264 78.5124 10.616 78.0324 10.84C77.563 11.0533 77.0084 11.16 76.3684 11.16ZM86.6914 11.16C85.934 11.16 85.2567 10.9947 84.6594 10.664C84.0727 10.3333 83.614 9.85867 83.2834 9.24C82.9527 8.61067 82.7874 7.864 82.7874 7C82.7874 6.136 82.9527 5.39467 83.2834 4.776C83.614 4.14667 84.0674 3.66667 84.6434 3.336C85.2194 3.00533 85.8754 2.84 86.6114 2.84C87.358 2.84 87.9927 3 88.5154 3.32C89.0487 3.64 89.454 4.07733 89.7314 4.632C90.0087 5.176 90.1474 5.78933 90.1474 6.472C90.1474 6.65333 90.142 6.81867 90.1314 6.968C90.1207 7.11733 90.1047 7.25067 90.0834 7.368H83.6194V6.232H89.5234L88.8674 6.36C88.8674 5.592 88.654 5 88.2274 4.584C87.8114 4.168 87.262 3.96 86.5794 3.96C86.0567 3.96 85.6034 4.08267 85.2194 4.328C84.846 4.56267 84.5527 4.90933 84.3394 5.368C84.1367 5.816 84.0354 6.36 84.0354 7C84.0354 7.62933 84.142 8.17333 84.3554 8.632C84.5687 9.09067 84.8674 9.44267 85.2514 9.688C85.646 9.92267 86.1154 10.04 86.6594 10.04C87.246 10.04 87.7207 9.928 88.0834 9.704C88.4567 9.48 88.7554 9.176 88.9794 8.792L89.9874 9.384C89.7847 9.74667 89.5234 10.0613 89.2034 10.328C88.894 10.5947 88.526 10.8027 88.0994 10.952C87.6834 11.0907 87.214 11.16 86.6914 11.16ZM95.4618 11.16C94.6831 11.16 93.9631 10.9947 93.3018 10.664C92.6511 10.3333 92.1498 9.864 91.7978 9.256L92.8858 8.472C93.1204 8.96267 93.4618 9.34667 93.9098 9.624C94.3684 9.90133 94.9178 10.04 95.5578 10.04C96.1231 10.04 96.5658 9.93333 96.8858 9.72C97.2058 9.496 97.3658 9.208 97.3658 8.856C97.3658 8.632 97.2911 8.42933 97.1418 8.248C97.0031 8.056 96.7311 7.91733 96.3258 7.832L94.4058 7.432C93.6271 7.272 93.0671 7.00533 92.7258 6.632C92.3951 6.25867 92.2298 5.79467 92.2298 5.24C92.2298 4.80267 92.3524 4.40267 92.5978 4.04C92.8538 3.67733 93.2111 3.38933 93.6698 3.176C94.1391 2.952 94.6884 2.84 95.3177 2.84C96.1071 2.84 96.7738 2.99467 97.3178 3.304C97.8618 3.61333 98.2671 4.05067 98.5338 4.616L97.4618 5.32C97.2804 4.85067 96.9871 4.50933 96.5818 4.296C96.1764 4.072 95.7551 3.96 95.3177 3.96C94.9338 3.96 94.6031 4.01333 94.3258 4.12C94.0591 4.22667 93.8511 4.376 93.7018 4.568C93.5631 4.74933 93.4938 4.95733 93.4938 5.192C93.4938 5.42667 93.5738 5.64533 93.7338 5.848C93.8938 6.04 94.1924 6.17867 94.6298 6.264L96.6298 6.68C97.3764 6.82933 97.8991 7.07467 98.1978 7.416C98.4964 7.75733 98.6458 8.17333 98.6458 8.664C98.6458 9.16533 98.5124 9.608 98.2458 9.992C97.9791 10.3653 97.6058 10.6533 97.1258 10.856C96.6458 11.0587 96.0911 11.16 95.4618 11.16ZM102.907 0.728V8.792C102.907 9.18667 103.019 9.48 103.243 9.672C103.467 9.864 103.755 9.96 104.107 9.96C104.417 9.96 104.683 9.90667 104.907 9.8C105.131 9.69333 105.334 9.54933 105.515 9.368L105.963 10.44C105.718 10.664 105.425 10.84 105.083 10.968C104.753 11.096 104.369 11.16 103.931 11.16C103.526 11.16 103.147 11.0907 102.795 10.952C102.443 10.8027 102.161 10.5733 101.947 10.264C101.745 9.944 101.638 9.528 101.627 9.016V1.08L102.907 0.728ZM105.819 3V4.104H100.027V3H105.819ZM110.602 11.16C109.824 11.16 109.104 10.9947 108.442 10.664C107.792 10.3333 107.29 9.864 106.938 9.256L108.026 8.472C108.261 8.96267 108.602 9.34667 109.05 9.624C109.509 9.90133 110.058 10.04 110.698 10.04C111.264 10.04 111.706 9.93333 112.026 9.72C112.346 9.496 112.506 9.208 112.506 8.856C112.506 8.632 112.432 8.42933 112.282 8.248C112.144 8.056 111.872 7.91733 111.466 7.832L109.546 7.432C108.768 7.272 108.208 7.00533 107.866 6.632C107.536 6.25867 107.37 5.79467 107.37 5.24C107.37 4.80267 107.493 4.40267 107.738 4.04C107.994 3.67733 108.352 3.38933 108.81 3.176C109.28 2.952 109.829 2.84 110.458 2.84C111.248 2.84 111.914 2.99467 112.458 3.304C113.002 3.61333 113.408 4.05067 113.674 4.616L112.602 5.32C112.421 4.85067 112.128 4.50933 111.722 4.296C111.317 4.072 110.896 3.96 110.458 3.96C110.074 3.96 109.744 4.01333 109.466 4.12C109.2 4.22667 108.992 4.376 108.842 4.568C108.704 4.74933 108.634 4.95733 108.634 5.192C108.634 5.42667 108.714 5.64533 108.874 5.848C109.034 6.04 109.333 6.17867 109.77 6.264L111.77 6.68C112.517 6.82933 113.04 7.07467 113.338 7.416C113.637 7.75733 113.786 8.17333 113.786 8.664C113.786 9.16533 113.653 9.608 113.386 9.992C113.12 10.3653 112.746 10.6533 112.266 10.856C111.786 11.0587 111.232 11.16 110.602 11.16Z" fill="#213F7D"/>
</svg>
