<svg width="45" height="12" viewBox="0 0 45 12" fill="none" xmlns="http://www.w3.org/2000/svg">
<path d="M2.008 9.8H8.056V11H0.728V0.44H2.008V9.8ZM13.1281 2.84C13.8855 2.84 14.5521 3.00533 15.1281 3.336C15.7148 3.66667 16.1735 4.14667 16.5041 4.776C16.8348 5.39467 17.0001 6.136 17.0001 7C17.0001 7.864 16.8348 8.61067 16.5041 9.24C16.1735 9.85867 15.7148 10.3333 15.1281 10.664C14.5521 10.9947 13.8855 11.16 13.1281 11.16C12.3815 11.16 11.7148 10.9947 11.1281 10.664C10.5415 10.3333 10.0828 9.85867 9.75213 9.24C9.42146 8.61067 9.25613 7.864 9.25613 7C9.25613 6.136 9.42146 5.39467 9.75213 4.776C10.0828 4.14667 10.5415 3.66667 11.1281 3.336C11.7148 3.00533 12.3815 2.84 13.1281 2.84ZM13.1281 3.944C12.5841 3.944 12.1201 4.06667 11.7361 4.312C11.3521 4.55733 11.0535 4.90933 10.8401 5.368C10.6375 5.816 10.5361 6.36 10.5361 7C10.5361 7.62933 10.6375 8.17333 10.8401 8.632C11.0535 9.09067 11.3521 9.44267 11.7361 9.688C12.1201 9.93333 12.5841 10.056 13.1281 10.056C13.6721 10.056 14.1361 9.93333 14.5201 9.688C14.9041 9.44267 15.1975 9.09067 15.4001 8.632C15.6135 8.17333 15.7201 7.62933 15.7201 7C15.7201 6.36 15.6135 5.816 15.4001 5.368C15.1975 4.90933 14.9041 4.55733 14.5201 4.312C14.1361 4.06667 13.6721 3.944 13.1281 3.944ZM24.0819 5.832C24.0819 5.23467 23.9219 4.776 23.6019 4.456C23.2819 4.12533 22.8285 3.96 22.2419 3.96C21.6872 3.96 21.2179 4.08267 20.8339 4.328C20.4499 4.56267 20.1672 4.94667 19.9859 5.48L18.9459 4.84C19.1592 4.24267 19.5539 3.76267 20.1299 3.4C20.7059 3.02667 21.4205 2.84 22.2739 2.84C22.8499 2.84 23.3725 2.94133 23.8419 3.144C24.3112 3.336 24.6792 3.63467 24.9459 4.04C25.2232 4.43467 25.3619 4.94667 25.3619 5.576V9.448C25.3619 9.832 25.5645 10.024 25.9699 10.024C26.1725 10.024 26.3699 9.99733 26.5619 9.944L26.4979 10.952C26.2845 11.0587 26.0072 11.112 25.6659 11.112C25.3565 11.112 25.0792 11.0533 24.8339 10.936C24.5885 10.8187 24.3965 10.6427 24.2579 10.408C24.1192 10.1627 24.0499 9.85867 24.0499 9.496V9.336L24.3699 9.384C24.2419 9.8 24.0232 10.1413 23.7139 10.408C23.4045 10.664 23.0579 10.856 22.6739 10.984C22.2899 11.1013 21.9112 11.16 21.5379 11.16C21.0685 11.16 20.6312 11.08 20.2259 10.92C19.8205 10.76 19.4952 10.52 19.2499 10.2C19.0152 9.86933 18.8979 9.464 18.8979 8.984C18.8979 8.38667 19.0952 7.896 19.4899 7.512C19.8952 7.11733 20.4552 6.85067 21.1699 6.712L24.3379 6.088V7.144L21.7619 7.672C21.2392 7.77867 20.8499 7.928 20.5939 8.12C20.3379 8.312 20.2099 8.57867 20.2099 8.92C20.2099 9.25067 20.3379 9.52267 20.5939 9.736C20.8605 9.93867 21.2339 10.04 21.7139 10.04C22.0232 10.04 22.3165 10.0027 22.5939 9.928C22.8819 9.84267 23.1379 9.72 23.3619 9.56C23.5859 9.38933 23.7619 9.18133 23.8899 8.936C24.0179 8.68 24.0819 8.38133 24.0819 8.04V5.832ZM28.4724 11V3H29.5924L29.7044 4.792L29.4964 4.616C29.667 4.18933 29.8964 3.848 30.1844 3.592C30.4724 3.32533 30.803 3.13333 31.1764 3.016C31.5604 2.89867 31.955 2.84 32.3604 2.84C32.9364 2.84 33.459 2.952 33.9284 3.176C34.3977 3.38933 34.771 3.72 35.0484 4.168C35.3364 4.616 35.4804 5.18667 35.4804 5.88V11H34.2004V6.328C34.2004 5.44267 34.0084 4.82933 33.6244 4.488C33.251 4.136 32.787 3.96 32.2324 3.96C31.8484 3.96 31.4644 4.05067 31.0804 4.232C30.6964 4.41333 30.3764 4.70667 30.1204 5.112C29.875 5.51733 29.7524 6.06133 29.7524 6.744V11H28.4724ZM41.2586 11.16C40.48 11.16 39.76 10.9947 39.0986 10.664C38.448 10.3333 37.9466 9.864 37.5946 9.256L38.6826 8.472C38.9173 8.96267 39.2586 9.34667 39.7066 9.624C40.1653 9.90133 40.7146 10.04 41.3546 10.04C41.92 10.04 42.3626 9.93333 42.6826 9.72C43.0026 9.496 43.1626 9.208 43.1626 8.856C43.1626 8.632 43.088 8.42933 42.9386 8.248C42.8 8.056 42.528 7.91733 42.1226 7.832L40.2026 7.432C39.424 7.272 38.864 7.00533 38.5226 6.632C38.192 6.25867 38.0266 5.79467 38.0266 5.24C38.0266 4.80267 38.1493 4.40267 38.3946 4.04C38.6506 3.67733 39.008 3.38933 39.4666 3.176C39.936 2.952 40.4853 2.84 41.1146 2.84C41.904 2.84 42.5706 2.99467 43.1146 3.304C43.6586 3.61333 44.064 4.05067 44.3306 4.616L43.2586 5.32C43.0773 4.85067 42.784 4.50933 42.3786 4.296C41.9733 4.072 41.552 3.96 41.1146 3.96C40.7306 3.96 40.4 4.01333 40.1226 4.12C39.856 4.22667 39.648 4.376 39.4986 4.568C39.36 4.74933 39.2906 4.95733 39.2906 5.192C39.2906 5.42667 39.3706 5.64533 39.5306 5.848C39.6906 6.04 39.9893 6.17867 40.4266 6.264L42.4266 6.68C43.1733 6.82933 43.696 7.07467 43.9946 7.416C44.2933 7.75733 44.4426 8.17333 44.4426 8.664C44.4426 9.16533 44.3093 9.608 44.0426 9.992C43.776 10.3653 43.4026 10.6533 42.9226 10.856C42.4426 11.0587 41.888 11.16 41.2586 11.16Z" fill="#213F7D"/>
</svg>
