<svg width="112" height="13" viewBox="0 0 112 13" fill="none" xmlns="http://www.w3.org/2000/svg">
<path d="M2.008 10.8H8.056V12H0.728V1.44H2.008V10.8ZM13.1281 3.84C13.8855 3.84 14.5521 4.00533 15.1281 4.336C15.7148 4.66667 16.1735 5.14667 16.5041 5.776C16.8348 6.39467 17.0001 7.136 17.0001 8C17.0001 8.864 16.8348 9.61067 16.5041 10.24C16.1735 10.8587 15.7148 11.3333 15.1281 11.664C14.5521 11.9947 13.8855 12.16 13.1281 12.16C12.3815 12.16 11.7148 11.9947 11.1281 11.664C10.5415 11.3333 10.0828 10.8587 9.75213 10.24C9.42146 9.61067 9.25613 8.864 9.25613 8C9.25613 7.136 9.42146 6.39467 9.75213 5.776C10.0828 5.14667 10.5415 4.66667 11.1281 4.336C11.7148 4.00533 12.3815 3.84 13.1281 3.84ZM13.1281 4.944C12.5841 4.944 12.1201 5.06667 11.7361 5.312C11.3521 5.55733 11.0535 5.90933 10.8401 6.368C10.6375 6.816 10.5361 7.36 10.5361 8C10.5361 8.62933 10.6375 9.17333 10.8401 9.632C11.0535 10.0907 11.3521 10.4427 11.7361 10.688C12.1201 10.9333 12.5841 11.056 13.1281 11.056C13.6721 11.056 14.1361 10.9333 14.5201 10.688C14.9041 10.4427 15.1975 10.0907 15.4001 9.632C15.6135 9.17333 15.7201 8.62933 15.7201 8C15.7201 7.36 15.6135 6.816 15.4001 6.368C15.1975 5.90933 14.9041 5.55733 14.5201 5.312C14.1361 5.06667 13.6721 4.944 13.1281 4.944ZM24.0819 6.832C24.0819 6.23467 23.9219 5.776 23.6019 5.456C23.2819 5.12533 22.8285 4.96 22.2419 4.96C21.6872 4.96 21.2179 5.08267 20.8339 5.328C20.4499 5.56267 20.1672 5.94667 19.9859 6.48L18.9459 5.84C19.1592 5.24267 19.5539 4.76267 20.1299 4.4C20.7059 4.02667 21.4205 3.84 22.2739 3.84C22.8499 3.84 23.3725 3.94133 23.8419 4.144C24.3112 4.336 24.6792 4.63467 24.9459 5.04C25.2232 5.43467 25.3619 5.94667 25.3619 6.576V10.448C25.3619 10.832 25.5645 11.024 25.9699 11.024C26.1725 11.024 26.3699 10.9973 26.5619 10.944L26.4979 11.952C26.2845 12.0587 26.0072 12.112 25.6659 12.112C25.3565 12.112 25.0792 12.0533 24.8339 11.936C24.5885 11.8187 24.3965 11.6427 24.2579 11.408C24.1192 11.1627 24.0499 10.8587 24.0499 10.496V10.336L24.3699 10.384C24.2419 10.8 24.0232 11.1413 23.7139 11.408C23.4045 11.664 23.0579 11.856 22.6739 11.984C22.2899 12.1013 21.9112 12.16 21.5379 12.16C21.0685 12.16 20.6312 12.08 20.2259 11.92C19.8205 11.76 19.4952 11.52 19.2499 11.2C19.0152 10.8693 18.8979 10.464 18.8979 9.984C18.8979 9.38667 19.0952 8.896 19.4899 8.512C19.8952 8.11733 20.4552 7.85067 21.1699 7.712L24.3379 7.088V8.144L21.7619 8.672C21.2392 8.77867 20.8499 8.928 20.5939 9.12C20.3379 9.312 20.2099 9.57867 20.2099 9.92C20.2099 10.2507 20.3379 10.5227 20.5939 10.736C20.8605 10.9387 21.2339 11.04 21.7139 11.04C22.0232 11.04 22.3165 11.0027 22.5939 10.928C22.8819 10.8427 23.1379 10.72 23.3619 10.56C23.5859 10.3893 23.7619 10.1813 23.8899 9.936C24.0179 9.68 24.0819 9.38133 24.0819 9.04V6.832ZM28.4724 12V4H29.5924L29.7044 5.792L29.4964 5.616C29.667 5.18933 29.8964 4.848 30.1844 4.592C30.4724 4.32533 30.803 4.13333 31.1764 4.016C31.5604 3.89867 31.955 3.84 32.3604 3.84C32.9364 3.84 33.459 3.952 33.9284 4.176C34.3977 4.38933 34.771 4.72 35.0484 5.168C35.3364 5.616 35.4804 6.18667 35.4804 6.88V12H34.2004V7.328C34.2004 6.44267 34.0084 5.82933 33.6244 5.488C33.251 5.136 32.787 4.96 32.2324 4.96C31.8484 4.96 31.4644 5.05067 31.0804 5.232C30.6964 5.41333 30.3764 5.70667 30.1204 6.112C29.875 6.51733 29.7524 7.06133 29.7524 7.744V12H28.4724ZM47.7998 1.44C48.5144 1.44 49.1331 1.57333 49.6558 1.84C50.1891 2.096 50.6051 2.464 50.9038 2.944C51.2024 3.424 51.3518 3.99467 51.3518 4.656C51.3518 5.31733 51.2024 5.888 50.9038 6.368C50.6051 6.848 50.1891 7.22133 49.6558 7.488C49.1331 7.744 48.5144 7.872 47.7998 7.872H45.3518V12H44.0718V1.44H47.7998ZM47.6078 6.672C48.4398 6.672 49.0478 6.50133 49.4318 6.16C49.8158 5.808 50.0078 5.30667 50.0078 4.656C50.0078 3.99467 49.8158 3.49333 49.4318 3.152C49.0478 2.81067 48.4398 2.64 47.6078 2.64H45.3518V6.672H47.6078ZM53.5974 12V4H54.6374L54.8134 5.312C55.0374 4.82133 55.3627 4.45333 55.7894 4.208C56.2267 3.96267 56.7547 3.84 57.3734 3.84C57.512 3.84 57.6614 3.85067 57.8214 3.872C57.992 3.89333 58.136 3.936 58.2534 4L58.0294 5.168C57.912 5.12533 57.784 5.09333 57.6454 5.072C57.5067 5.05067 57.3094 5.04 57.0534 5.04C56.7227 5.04 56.3867 5.136 56.0454 5.328C55.7147 5.52 55.4374 5.81333 55.2134 6.208C54.9894 6.592 54.8774 7.08267 54.8774 7.68V12H53.5974ZM63.1906 3.84C63.948 3.84 64.6146 4.00533 65.1906 4.336C65.7773 4.66667 66.236 5.14667 66.5666 5.776C66.8973 6.39467 67.0626 7.136 67.0626 8C67.0626 8.864 66.8973 9.61067 66.5666 10.24C66.236 10.8587 65.7773 11.3333 65.1906 11.664C64.6146 11.9947 63.948 12.16 63.1906 12.16C62.444 12.16 61.7773 11.9947 61.1906 11.664C60.604 11.3333 60.1453 10.8587 59.8146 10.24C59.484 9.61067 59.3186 8.864 59.3186 8C59.3186 7.136 59.484 6.39467 59.8146 5.776C60.1453 5.14667 60.604 4.66667 61.1906 4.336C61.7773 4.00533 62.444 3.84 63.1906 3.84ZM63.1906 4.944C62.6466 4.944 62.1826 5.06667 61.7986 5.312C61.4146 5.55733 61.116 5.90933 60.9026 6.368C60.7 6.816 60.5986 7.36 60.5986 8C60.5986 8.62933 60.7 9.17333 60.9026 9.632C61.116 10.0907 61.4146 10.4427 61.7986 10.688C62.1826 10.9333 62.6466 11.056 63.1906 11.056C63.7346 11.056 64.1986 10.9333 64.5826 10.688C64.9666 10.4427 65.26 10.0907 65.4626 9.632C65.676 9.17333 65.7826 8.62933 65.7826 8C65.7826 7.36 65.676 6.816 65.4626 6.368C65.26 5.90933 64.9666 5.55733 64.5826 5.312C64.1986 5.06667 63.7346 4.944 63.1906 4.944ZM72.5924 12.16C71.931 12.16 71.323 11.9947 70.7684 11.664C70.2137 11.3333 69.771 10.8587 69.4404 10.24C69.1097 9.61067 68.9444 8.864 68.9444 8C68.9444 7.11467 69.1204 6.36267 69.4724 5.744C69.8244 5.12533 70.2884 4.656 70.8644 4.336C71.4404 4.00533 72.059 3.84 72.7204 3.84C73.3817 3.84 73.9524 4.01067 74.4324 4.352C74.923 4.69333 75.2484 5.14667 75.4084 5.712L75.2484 5.824V0.32H76.5284V12H75.4084L75.2964 10.064L75.4724 9.968C75.3977 10.4373 75.2164 10.8373 74.9284 11.168C74.651 11.488 74.3044 11.7333 73.8884 11.904C73.483 12.0747 73.051 12.16 72.5924 12.16ZM72.7204 11.04C73.2324 11.04 73.675 10.912 74.0484 10.656C74.4324 10.4 74.7257 10.0373 74.9284 9.568C75.1417 9.088 75.2484 8.528 75.2484 7.888C75.2484 7.28 75.1417 6.75733 74.9284 6.32C74.7257 5.88267 74.4377 5.54667 74.0644 5.312C73.7017 5.07733 73.275 4.96 72.7844 4.96C71.9737 4.96 71.3444 5.23733 70.8964 5.792C70.4484 6.34667 70.2244 7.08267 70.2244 8C70.2244 8.91733 70.443 9.65333 70.8804 10.208C71.3177 10.7627 71.931 11.04 72.7204 11.04ZM82.3996 12.16C81.8876 12.16 81.4023 12.064 80.9436 11.872C80.4956 11.68 80.1276 11.3707 79.8396 10.944C79.5623 10.5067 79.4236 9.94133 79.4236 9.248V4H80.7036V8.912C80.7036 9.72267 80.8796 10.2827 81.2316 10.592C81.5836 10.8907 82.0796 11.04 82.7196 11.04C83.0183 11.04 83.3116 10.992 83.5996 10.896C83.8876 10.7893 84.1436 10.6293 84.3676 10.416C84.6023 10.192 84.7836 9.90933 84.9116 9.568C85.0503 9.22667 85.1196 8.82133 85.1196 8.352V4H86.3996V12H85.2796L85.1996 10.784C84.9223 11.264 84.5436 11.616 84.0636 11.84C83.5943 12.0533 83.0396 12.16 82.3996 12.16ZM92.6906 3.84C93.2453 3.84 93.7306 3.92533 94.1466 4.096C94.5733 4.26667 94.9413 4.512 95.2506 4.832C95.56 5.152 95.8106 5.53067 96.0026 5.968L94.7866 6.544C94.616 6.032 94.3546 5.64267 94.0026 5.376C93.6613 5.09867 93.2133 4.96 92.6586 4.96C92.1253 4.96 91.6666 5.08267 91.2826 5.328C90.8986 5.56267 90.6053 5.90933 90.4026 6.368C90.2 6.816 90.0986 7.36 90.0986 8C90.0986 8.62933 90.2 9.17333 90.4026 9.632C90.6053 10.0907 90.8986 10.4427 91.2826 10.688C91.6666 10.9227 92.1253 11.04 92.6586 11.04C93.0746 11.04 93.432 10.976 93.7306 10.848C94.04 10.72 94.2906 10.5333 94.4826 10.288C94.6853 10.0427 94.824 9.744 94.8986 9.392L96.0826 9.808C95.9013 10.2987 95.6506 10.72 95.3306 11.072C95.0213 11.424 94.6426 11.696 94.1946 11.888C93.7573 12.0693 93.256 12.16 92.6906 12.16C91.944 12.16 91.2773 11.9947 90.6906 11.664C90.104 11.3333 89.6453 10.8587 89.3146 10.24C88.984 9.61067 88.8186 8.864 88.8186 8C88.8186 7.136 88.984 6.39467 89.3146 5.776C89.6453 5.14667 90.104 4.66667 90.6906 4.336C91.2773 4.00533 91.944 3.84 92.6906 3.84ZM100.22 1.728V9.792C100.22 10.1867 100.332 10.48 100.556 10.672C100.78 10.864 101.068 10.96 101.42 10.96C101.729 10.96 101.996 10.9067 102.22 10.8C102.444 10.6933 102.646 10.5493 102.828 10.368L103.276 11.44C103.03 11.664 102.737 11.84 102.396 11.968C102.065 12.096 101.681 12.16 101.244 12.16C100.838 12.16 100.46 12.0907 100.108 11.952C99.7558 11.8027 99.4731 11.5733 99.2598 11.264C99.0571 10.944 98.9504 10.528 98.9398 10.016V2.08L100.22 1.728ZM103.132 4V5.104H97.3398V4H103.132ZM107.915 12.16C107.136 12.16 106.416 11.9947 105.755 11.664C105.104 11.3333 104.603 10.864 104.251 10.256L105.339 9.472C105.574 9.96267 105.915 10.3467 106.363 10.624C106.822 10.9013 107.371 11.04 108.011 11.04C108.576 11.04 109.019 10.9333 109.339 10.72C109.659 10.496 109.819 10.208 109.819 9.856C109.819 9.632 109.744 9.42933 109.595 9.248C109.456 9.056 109.184 8.91733 108.779 8.832L106.859 8.432C106.08 8.272 105.52 8.00533 105.179 7.632C104.848 7.25867 104.683 6.79467 104.683 6.24C104.683 5.80267 104.806 5.40267 105.051 5.04C105.307 4.67733 105.664 4.38933 106.123 4.176C106.592 3.952 107.142 3.84 107.771 3.84C108.56 3.84 109.227 3.99467 109.771 4.304C110.315 4.61333 110.72 5.05067 110.987 5.616L109.915 6.32C109.734 5.85067 109.44 5.50933 109.035 5.296C108.63 5.072 108.208 4.96 107.771 4.96C107.387 4.96 107.056 5.01333 106.779 5.12C106.512 5.22667 106.304 5.376 106.155 5.568C106.016 5.74933 105.947 5.95733 105.947 6.192C105.947 6.42667 106.027 6.64533 106.187 6.848C106.347 7.04 106.646 7.17867 107.083 7.264L109.083 7.68C109.83 7.82933 110.352 8.07467 110.651 8.416C110.95 8.75733 111.099 9.17333 111.099 9.664C111.099 10.1653 110.966 10.608 110.699 10.992C110.432 11.3653 110.059 11.6533 109.579 11.856C109.099 12.0587 108.544 12.16 107.915 12.16Z" fill="#213F7D"/>
</svg>
