<svg width="96" height="16" viewBox="0 0 96 16" fill="none" xmlns="http://www.w3.org/2000/svg">
<path d="M4.984 1.28C5.98667 1.28 6.85067 1.504 7.576 1.952C8.312 2.38933 8.87733 3.01333 9.272 3.824C9.67733 4.63467 9.88 5.6 9.88 6.72C9.88 7.84 9.67733 8.80533 9.272 9.616C8.87733 10.4267 8.312 11.056 7.576 11.504C6.85067 11.9413 5.98667 12.16 4.984 12.16C3.98133 12.16 3.112 11.9413 2.376 11.504C1.65067 11.056 1.08533 10.4267 0.68 9.616C0.285333 8.80533 0.0880001 7.84 0.0880001 6.72C0.0880001 5.6 0.285333 4.63467 0.68 3.824C1.08533 3.01333 1.65067 2.38933 2.376 1.952C3.112 1.504 3.98133 1.28 4.984 1.28ZM4.984 2.48C4.25867 2.48 3.62933 2.65067 3.096 2.992C2.56267 3.32267 2.152 3.808 1.864 4.448C1.576 5.07733 1.432 5.83467 1.432 6.72C1.432 7.60533 1.576 8.368 1.864 9.008C2.152 9.63733 2.56267 10.1227 3.096 10.464C3.62933 10.7947 4.25867 10.96 4.984 10.96C5.72 10.96 6.34933 10.7947 6.872 10.464C7.40533 10.1227 7.816 9.63733 8.104 9.008C8.392 8.368 8.536 7.60533 8.536 6.72C8.536 5.83467 8.392 5.07733 8.104 4.448C7.816 3.808 7.40533 3.32267 6.872 2.992C6.34933 2.65067 5.72 2.48 4.984 2.48ZM12.3786 12V4H13.4186L13.5946 5.312C13.8186 4.82133 14.144 4.45333 14.5706 4.208C15.008 3.96267 15.536 3.84 16.1546 3.84C16.2933 3.84 16.4426 3.85067 16.6026 3.872C16.7733 3.89333 16.9173 3.936 17.0346 4L16.8106 5.168C16.6933 5.12533 16.5653 5.09333 16.4266 5.072C16.288 5.05067 16.0906 5.04 15.8346 5.04C15.504 5.04 15.168 5.136 14.8266 5.328C14.496 5.52 14.2186 5.81333 13.9946 6.208C13.7706 6.592 13.6586 7.08267 13.6586 7.68V12H12.3786ZM25.2396 2.528L25.5276 3.664C25.517 3.664 25.501 3.664 25.4796 3.664C25.4583 3.664 25.437 3.664 25.4156 3.664C24.893 3.664 24.4876 3.77067 24.1996 3.984C23.9223 4.18667 23.7836 4.51733 23.7836 4.976L22.9996 4.576C22.9996 4.16 23.0956 3.79733 23.2876 3.488C23.4796 3.17867 23.741 2.944 24.0716 2.784C24.4023 2.61333 24.765 2.528 25.1596 2.528C25.1703 2.528 25.181 2.528 25.1916 2.528C25.213 2.528 25.229 2.528 25.2396 2.528ZM22.8076 10.976C23.565 10.976 24.157 11.152 24.5836 11.504C25.0103 11.8453 25.2236 12.304 25.2236 12.88C25.2236 13.4027 25.0476 13.856 24.6956 14.24C24.3543 14.624 23.8903 14.9173 23.3036 15.12C22.7276 15.3333 22.077 15.44 21.3516 15.44C20.093 15.44 19.149 15.2267 18.5196 14.8C17.901 14.3733 17.5916 13.8613 17.5916 13.264C17.5916 12.8373 17.7303 12.4533 18.0076 12.112C18.2956 11.7813 18.7756 11.5947 19.4476 11.552L19.3356 11.792C18.973 11.696 18.6636 11.536 18.4076 11.312C18.1623 11.0773 18.0396 10.7413 18.0396 10.304C18.0396 9.86667 18.1996 9.49333 18.5196 9.184C18.8503 8.864 19.3356 8.66667 19.9756 8.592L20.8236 9.024H20.6636C20.141 9.07733 19.7676 9.21067 19.5436 9.424C19.3303 9.62667 19.2236 9.85067 19.2236 10.096C19.2236 10.3947 19.3303 10.6187 19.5436 10.768C19.7676 10.9067 20.077 10.976 20.4716 10.976H22.8076ZM21.3356 14.368C21.9543 14.368 22.461 14.304 22.8556 14.176C23.261 14.048 23.5596 13.8827 23.7516 13.68C23.9436 13.4773 24.0396 13.2587 24.0396 13.024C24.0396 12.736 23.9223 12.5067 23.6876 12.336C23.4636 12.1653 23.053 12.08 22.4556 12.08H19.9916C19.6503 12.08 19.3623 12.1653 19.1276 12.336C18.893 12.5173 18.7756 12.7627 18.7756 13.072C18.7756 13.4667 18.9996 13.7813 19.4476 14.016C19.9063 14.2507 20.5356 14.368 21.3356 14.368ZM21.2236 3.84C21.8636 3.84 22.429 3.95733 22.9196 4.192C23.421 4.416 23.8103 4.73067 24.0876 5.136C24.365 5.54133 24.5036 6.01067 24.5036 6.544C24.5036 7.06667 24.365 7.536 24.0876 7.952C23.8103 8.35733 23.421 8.67733 22.9196 8.912C22.429 9.136 21.8636 9.248 21.2236 9.248C20.1676 9.248 19.357 8.99733 18.7916 8.496C18.2263 7.984 17.9436 7.33333 17.9436 6.544C17.9436 6.01067 18.0823 5.54133 18.3596 5.136C18.6476 4.73067 19.037 4.416 19.5276 4.192C20.0183 3.95733 20.5836 3.84 21.2236 3.84ZM21.2236 4.88C20.669 4.88 20.205 5.03467 19.8316 5.344C19.4583 5.64267 19.2716 6.04267 19.2716 6.544C19.2716 7.03467 19.4583 7.43467 19.8316 7.744C20.205 8.05333 20.669 8.208 21.2236 8.208C21.7783 8.208 22.2423 8.05333 22.6156 7.744C22.989 7.43467 23.1756 7.03467 23.1756 6.544C23.1756 6.04267 22.989 5.64267 22.6156 5.344C22.2423 5.03467 21.7783 4.88 21.2236 4.88ZM31.6913 6.832C31.6913 6.23467 31.5313 5.776 31.2113 5.456C30.8913 5.12533 30.4379 4.96 29.8513 4.96C29.2966 4.96 28.8273 5.08267 28.4433 5.328C28.0593 5.56267 27.7766 5.94667 27.5953 6.48L26.5553 5.84C26.7686 5.24267 27.1633 4.76267 27.7393 4.4C28.3153 4.02667 29.0299 3.84 29.8833 3.84C30.4593 3.84 30.9819 3.94133 31.4513 4.144C31.9206 4.336 32.2886 4.63467 32.5553 5.04C32.8326 5.43467 32.9713 5.94667 32.9713 6.576V10.448C32.9713 10.832 33.1739 11.024 33.5793 11.024C33.7819 11.024 33.9793 10.9973 34.1713 10.944L34.1073 11.952C33.8939 12.0587 33.6166 12.112 33.2753 12.112C32.9659 12.112 32.6886 12.0533 32.4433 11.936C32.1979 11.8187 32.0059 11.6427 31.8673 11.408C31.7286 11.1627 31.6593 10.8587 31.6593 10.496V10.336L31.9793 10.384C31.8513 10.8 31.6326 11.1413 31.3233 11.408C31.0139 11.664 30.6673 11.856 30.2833 11.984C29.8993 12.1013 29.5206 12.16 29.1473 12.16C28.6779 12.16 28.2406 12.08 27.8353 11.92C27.4299 11.76 27.1046 11.52 26.8593 11.2C26.6246 10.8693 26.5073 10.464 26.5073 9.984C26.5073 9.38667 26.7046 8.896 27.0993 8.512C27.5046 8.11733 28.0646 7.85067 28.7793 7.712L31.9473 7.088V8.144L29.3713 8.672C28.8486 8.77867 28.4593 8.928 28.2033 9.12C27.9473 9.312 27.8193 9.57867 27.8193 9.92C27.8193 10.2507 27.9473 10.5227 28.2033 10.736C28.4699 10.9387 28.8433 11.04 29.3233 11.04C29.6326 11.04 29.9259 11.0027 30.2033 10.928C30.4913 10.8427 30.7473 10.72 30.9713 10.56C31.1953 10.3893 31.3713 10.1813 31.4993 9.936C31.6273 9.68 31.6913 9.38133 31.6913 9.04V6.832ZM36.0818 12V4H37.2018L37.3138 5.792L37.1058 5.616C37.2764 5.18933 37.5058 4.848 37.7938 4.592C38.0818 4.32533 38.4124 4.13333 38.7858 4.016C39.1698 3.89867 39.5644 3.84 39.9698 3.84C40.5458 3.84 41.0684 3.952 41.5378 4.176C42.0071 4.38933 42.3804 4.72 42.6578 5.168C42.9458 5.616 43.0898 6.18667 43.0898 6.88V12H41.8098V7.328C41.8098 6.44267 41.6178 5.82933 41.2338 5.488C40.8604 5.136 40.3964 4.96 39.8418 4.96C39.4578 4.96 39.0738 5.05067 38.6898 5.232C38.3058 5.41333 37.9858 5.70667 37.7298 6.112C37.4844 6.51733 37.3618 7.06133 37.3618 7.744V12H36.0818ZM46.628 2.464C46.34 2.464 46.1053 2.37867 45.924 2.208C45.7533 2.02667 45.668 1.792 45.668 1.504C45.668 1.216 45.7533 0.986666 45.924 0.815999C46.1053 0.634666 46.34 0.544 46.628 0.544C46.916 0.544 47.1453 0.634666 47.316 0.815999C47.4973 0.986666 47.588 1.216 47.588 1.504C47.588 1.792 47.4973 2.02667 47.316 2.208C47.1453 2.37867 46.916 2.464 46.628 2.464ZM47.268 4V12H45.988V4H47.268ZM49.662 12V11.024L53.854 6.112L54.862 5.072L53.438 5.104H49.71V4H56.286V4.976L52.094 9.888L51.102 10.928L52.654 10.896H56.414V12H49.662ZM63.4569 6.832C63.4569 6.23467 63.2969 5.776 62.9769 5.456C62.6569 5.12533 62.2035 4.96 61.6169 4.96C61.0622 4.96 60.5929 5.08267 60.2089 5.328C59.8249 5.56267 59.5422 5.94667 59.3609 6.48L58.3209 5.84C58.5342 5.24267 58.9289 4.76267 59.5049 4.4C60.0809 4.02667 60.7955 3.84 61.6489 3.84C62.2249 3.84 62.7475 3.94133 63.2169 4.144C63.6862 4.336 64.0542 4.63467 64.3209 5.04C64.5982 5.43467 64.7369 5.94667 64.7369 6.576V10.448C64.7369 10.832 64.9395 11.024 65.3449 11.024C65.5475 11.024 65.7449 10.9973 65.9369 10.944L65.8729 11.952C65.6595 12.0587 65.3822 12.112 65.0409 12.112C64.7315 12.112 64.4542 12.0533 64.2089 11.936C63.9635 11.8187 63.7715 11.6427 63.6329 11.408C63.4942 11.1627 63.4249 10.8587 63.4249 10.496V10.336L63.7449 10.384C63.6169 10.8 63.3982 11.1413 63.0889 11.408C62.7795 11.664 62.4329 11.856 62.0489 11.984C61.6649 12.1013 61.2862 12.16 60.9129 12.16C60.4435 12.16 60.0062 12.08 59.6009 11.92C59.1955 11.76 58.8702 11.52 58.6249 11.2C58.3902 10.8693 58.2729 10.464 58.2729 9.984C58.2729 9.38667 58.4702 8.896 58.8649 8.512C59.2702 8.11733 59.8302 7.85067 60.5449 7.712L63.7129 7.088V8.144L61.1369 8.672C60.6142 8.77867 60.2249 8.928 59.9689 9.12C59.7129 9.312 59.5849 9.57867 59.5849 9.92C59.5849 10.2507 59.7129 10.5227 59.9689 10.736C60.2355 10.9387 60.6089 11.04 61.0889 11.04C61.3982 11.04 61.6915 11.0027 61.9689 10.928C62.2569 10.8427 62.5129 10.72 62.7369 10.56C62.9609 10.3893 63.1369 10.1813 63.2649 9.936C63.3929 9.68 63.4569 9.38133 63.4569 9.04V6.832ZM69.4229 1.728V9.792C69.4229 10.1867 69.5349 10.48 69.7589 10.672C69.9829 10.864 70.2709 10.96 70.6229 10.96C70.9322 10.96 71.1989 10.9067 71.4229 10.8C71.6469 10.6933 71.8495 10.5493 72.0309 10.368L72.4789 11.44C72.2335 11.664 71.9402 11.84 71.5989 11.968C71.2682 12.096 70.8842 12.16 70.4469 12.16C70.0415 12.16 69.6629 12.0907 69.3109 11.952C68.9589 11.8027 68.6762 11.5733 68.4629 11.264C68.2602 10.944 68.1535 10.528 68.1429 10.016V2.08L69.4229 1.728ZM72.3349 4V5.104H66.5429V4H72.3349ZM74.878 2.464C74.59 2.464 74.3553 2.37867 74.174 2.208C74.0033 2.02667 73.918 1.792 73.918 1.504C73.918 1.216 74.0033 0.986666 74.174 0.815999C74.3553 0.634666 74.59 0.544 74.878 0.544C75.166 0.544 75.3953 0.634666 75.566 0.815999C75.7473 0.986666 75.838 1.216 75.838 1.504C75.838 1.792 75.7473 2.02667 75.566 2.208C75.3953 2.37867 75.166 2.464 74.878 2.464ZM75.518 4V12H74.238V4H75.518ZM81.8 3.84C82.5573 3.84 83.224 4.00533 83.8 4.336C84.3867 4.66667 84.8453 5.14667 85.176 5.776C85.5067 6.39467 85.672 7.136 85.672 8C85.672 8.864 85.5067 9.61067 85.176 10.24C84.8453 10.8587 84.3867 11.3333 83.8 11.664C83.224 11.9947 82.5573 12.16 81.8 12.16C81.0533 12.16 80.3867 11.9947 79.8 11.664C79.2133 11.3333 78.7547 10.8587 78.424 10.24C78.0933 9.61067 77.928 8.864 77.928 8C77.928 7.136 78.0933 6.39467 78.424 5.776C78.7547 5.14667 79.2133 4.66667 79.8 4.336C80.3867 4.00533 81.0533 3.84 81.8 3.84ZM81.8 4.944C81.256 4.944 80.792 5.06667 80.408 5.312C80.024 5.55733 79.7253 5.90933 79.512 6.368C79.3093 6.816 79.208 7.36 79.208 8C79.208 8.62933 79.3093 9.17333 79.512 9.632C79.7253 10.0907 80.024 10.4427 80.408 10.688C80.792 10.9333 81.256 11.056 81.8 11.056C82.344 11.056 82.808 10.9333 83.192 10.688C83.576 10.4427 83.8693 10.0907 84.072 9.632C84.2853 9.17333 84.392 8.62933 84.392 8C84.392 7.36 84.2853 6.816 84.072 6.368C83.8693 5.90933 83.576 5.55733 83.192 5.312C82.808 5.06667 82.344 4.944 81.8 4.944ZM88.0818 12V4H89.2018L89.3138 5.792L89.1058 5.616C89.2764 5.18933 89.5058 4.848 89.7938 4.592C90.0818 4.32533 90.4124 4.13333 90.7858 4.016C91.1698 3.89867 91.5644 3.84 91.9698 3.84C92.5458 3.84 93.0684 3.952 93.5378 4.176C94.0071 4.38933 94.3804 4.72 94.6578 5.168C94.9458 5.616 95.0898 6.18667 95.0898 6.88V12H93.8098V7.328C93.8098 6.44267 93.6178 5.82933 93.2338 5.488C92.8604 5.136 92.3964 4.96 91.8418 4.96C91.4578 4.96 91.0738 5.05067 90.6898 5.232C90.3058 5.41333 89.9858 5.70667 89.7298 6.112C89.4844 6.51733 89.3618 7.06133 89.3618 7.744V12H88.0818Z" fill="#213F7D"/>
</svg>
