<svg width="91" height="13" viewBox="0 0 91 13" fill="none" xmlns="http://www.w3.org/2000/svg">
<path d="M4.456 1.44C5.17067 1.44 5.78933 1.57333 6.312 1.84C6.84533 2.096 7.26133 2.464 7.56 2.944C7.85867 3.424 8.008 3.99467 8.008 4.656C8.008 5.31733 7.85867 5.888 7.56 6.368C7.26133 6.848 6.84533 7.22133 6.312 7.488C5.78933 7.744 5.17067 7.872 4.456 7.872H2.008V12H0.728V1.44H4.456ZM4.264 6.672C5.096 6.672 5.704 6.50133 6.088 6.16C6.472 5.808 6.664 5.30667 6.664 4.656C6.664 3.99467 6.472 3.49333 6.088 3.152C5.704 2.81067 5.096 2.64 4.264 2.64H2.008V6.672H4.264ZM10.2536 12V4H11.2936L11.4696 5.312C11.6936 4.82133 12.019 4.45333 12.4456 4.208C12.883 3.96267 13.411 3.84 14.0296 3.84C14.1683 3.84 14.3176 3.85067 14.4776 3.872C14.6483 3.89333 14.7923 3.936 14.9096 4L14.6856 5.168C14.5683 5.12533 14.4403 5.09333 14.3016 5.072C14.163 5.05067 13.9656 5.04 13.7096 5.04C13.379 5.04 13.043 5.136 12.7016 5.328C12.371 5.52 12.0936 5.81333 11.8696 6.208C11.6456 6.592 11.5336 7.08267 11.5336 7.68V12H10.2536ZM19.8789 12.16C19.1215 12.16 18.4442 11.9947 17.8469 11.664C17.2602 11.3333 16.8015 10.8587 16.4709 10.24C16.1402 9.61067 15.9749 8.864 15.9749 8C15.9749 7.136 16.1402 6.39467 16.4709 5.776C16.8015 5.14667 17.2549 4.66667 17.8309 4.336C18.4069 4.00533 19.0629 3.84 19.7989 3.84C20.5455 3.84 21.1802 4 21.7029 4.32C22.2362 4.64 22.6415 5.07733 22.9189 5.632C23.1962 6.176 23.3349 6.78933 23.3349 7.472C23.3349 7.65333 23.3295 7.81867 23.3189 7.968C23.3082 8.11733 23.2922 8.25067 23.2709 8.368H16.8069V7.232H22.7109L22.0549 7.36C22.0549 6.592 21.8415 6 21.4149 5.584C20.9989 5.168 20.4495 4.96 19.7669 4.96C19.2442 4.96 18.7909 5.08267 18.4069 5.328C18.0335 5.56267 17.7402 5.90933 17.5269 6.368C17.3242 6.816 17.2229 7.36 17.2229 8C17.2229 8.62933 17.3295 9.17333 17.5429 9.632C17.7562 10.0907 18.0549 10.4427 18.4389 10.688C18.8335 10.9227 19.3029 11.04 19.8469 11.04C20.4335 11.04 20.9082 10.928 21.2709 10.704C21.6442 10.48 21.9429 10.176 22.1669 9.792L23.1749 10.384C22.9722 10.7467 22.7109 11.0613 22.3909 11.328C22.0815 11.5947 21.7135 11.8027 21.2869 11.952C20.8709 12.0907 20.4015 12.16 19.8789 12.16ZM28.9391 0.24C29.2165 0.24 29.4778 0.272 29.7231 0.335999C29.9685 0.399999 30.1605 0.490666 30.2991 0.608L29.9631 1.648C29.8351 1.56267 29.6965 1.504 29.5471 1.472C29.3978 1.42933 29.2325 1.408 29.0511 1.408C28.5925 1.408 28.2351 1.52 27.9791 1.744C27.7231 1.95733 27.5951 2.304 27.5951 2.784V4V4.416V12H26.3151V2.656C26.3151 2.304 26.3685 1.97867 26.4751 1.68C26.5818 1.38133 26.7418 1.12533 26.9551 0.912C27.1791 0.698666 27.4565 0.533333 27.7871 0.415999C28.1178 0.298666 28.5018 0.24 28.9391 0.24ZM30.2671 4V5.104H24.7151V4H30.2671ZM35.0976 12.16C34.3403 12.16 33.663 11.9947 33.0656 11.664C32.479 11.3333 32.0203 10.8587 31.6896 10.24C31.359 9.61067 31.1936 8.864 31.1936 8C31.1936 7.136 31.359 6.39467 31.6896 5.776C32.0203 5.14667 32.4736 4.66667 33.0496 4.336C33.6256 4.00533 34.2816 3.84 35.0176 3.84C35.7643 3.84 36.399 4 36.9216 4.32C37.455 4.64 37.8603 5.07733 38.1376 5.632C38.415 6.176 38.5536 6.78933 38.5536 7.472C38.5536 7.65333 38.5483 7.81867 38.5376 7.968C38.527 8.11733 38.511 8.25067 38.4896 8.368H32.0256V7.232H37.9296L37.2736 7.36C37.2736 6.592 37.0603 6 36.6336 5.584C36.2176 5.168 35.6683 4.96 34.9856 4.96C34.463 4.96 34.0096 5.08267 33.6256 5.328C33.2523 5.56267 32.959 5.90933 32.7456 6.368C32.543 6.816 32.4416 7.36 32.4416 8C32.4416 8.62933 32.5483 9.17333 32.7616 9.632C32.975 10.0907 33.2736 10.4427 33.6576 10.688C34.0523 10.9227 34.5216 11.04 35.0656 11.04C35.6523 11.04 36.127 10.928 36.4896 10.704C36.863 10.48 37.1616 10.176 37.3856 9.792L38.3936 10.384C38.191 10.7467 37.9296 11.0613 37.6096 11.328C37.3003 11.5947 36.9323 11.8027 36.5056 11.952C36.0896 12.0907 35.6203 12.16 35.0976 12.16ZM40.988 12V4H42.028L42.204 5.312C42.428 4.82133 42.7533 4.45333 43.18 4.208C43.6173 3.96267 44.1453 3.84 44.764 3.84C44.9027 3.84 45.052 3.85067 45.212 3.872C45.3827 3.89333 45.5267 3.936 45.644 4L45.42 5.168C45.3027 5.12533 45.1747 5.09333 45.036 5.072C44.8973 5.05067 44.7 5.04 44.444 5.04C44.1133 5.04 43.7773 5.136 43.436 5.328C43.1053 5.52 42.828 5.81333 42.604 6.208C42.38 6.592 42.268 7.08267 42.268 7.68V12H40.988ZM50.6133 12.16C49.8559 12.16 49.1786 11.9947 48.5813 11.664C47.9946 11.3333 47.5359 10.8587 47.2053 10.24C46.8746 9.61067 46.7093 8.864 46.7093 8C46.7093 7.136 46.8746 6.39467 47.2053 5.776C47.5359 5.14667 47.9893 4.66667 48.5653 4.336C49.1413 4.00533 49.7973 3.84 50.5333 3.84C51.2799 3.84 51.9146 4 52.4373 4.32C52.9706 4.64 53.3759 5.07733 53.6533 5.632C53.9306 6.176 54.0693 6.78933 54.0693 7.472C54.0693 7.65333 54.0639 7.81867 54.0533 7.968C54.0426 8.11733 54.0266 8.25067 54.0052 8.368H47.5413V7.232H53.4453L52.7893 7.36C52.7893 6.592 52.5759 6 52.1493 5.584C51.7333 5.168 51.1839 4.96 50.5013 4.96C49.9786 4.96 49.5253 5.08267 49.1413 5.328C48.7679 5.56267 48.4746 5.90933 48.2613 6.368C48.0586 6.816 47.9573 7.36 47.9573 8C47.9573 8.62933 48.0639 9.17333 48.2773 9.632C48.4906 10.0907 48.7893 10.4427 49.1733 10.688C49.5679 10.9227 50.0373 11.04 50.5813 11.04C51.1679 11.04 51.6426 10.928 52.0053 10.704C52.3786 10.48 52.6773 10.176 52.9013 9.792L53.9093 10.384C53.7066 10.7467 53.4453 11.0613 53.1253 11.328C52.8159 11.5947 52.4479 11.8027 52.0213 11.952C51.6053 12.0907 51.1359 12.16 50.6133 12.16ZM56.5036 12V4H57.6236L57.7356 5.792L57.5276 5.616C57.6983 5.18933 57.9276 4.848 58.2156 4.592C58.5036 4.32533 58.8343 4.13333 59.2076 4.016C59.5916 3.89867 59.9863 3.84 60.3916 3.84C60.9676 3.84 61.4903 3.952 61.9596 4.176C62.429 4.38933 62.8023 4.72 63.0796 5.168C63.3676 5.616 63.5116 6.18667 63.5116 6.88V12H62.2316V7.328C62.2316 6.44267 62.0396 5.82933 61.6556 5.488C61.2823 5.136 60.8183 4.96 60.2636 4.96C59.8796 4.96 59.4956 5.05067 59.1116 5.232C58.7276 5.41333 58.4076 5.70667 58.1516 6.112C57.9063 6.51733 57.7836 7.06133 57.7836 7.744V12H56.5036ZM69.7219 3.84C70.2765 3.84 70.7619 3.92533 71.1779 4.096C71.6045 4.26667 71.9725 4.512 72.2819 4.832C72.5912 5.152 72.8419 5.53067 73.0339 5.968L71.8179 6.544C71.6472 6.032 71.3859 5.64267 71.0339 5.376C70.6925 5.09867 70.2445 4.96 69.6899 4.96C69.1565 4.96 68.6979 5.08267 68.3139 5.328C67.9299 5.56267 67.6365 5.90933 67.4339 6.368C67.2312 6.816 67.1299 7.36 67.1299 8C67.1299 8.62933 67.2312 9.17333 67.4339 9.632C67.6365 10.0907 67.9299 10.4427 68.3139 10.688C68.6979 10.9227 69.1565 11.04 69.6899 11.04C70.1059 11.04 70.4632 10.976 70.7619 10.848C71.0712 10.72 71.3219 10.5333 71.5139 10.288C71.7165 10.0427 71.8552 9.744 71.9299 9.392L73.1139 9.808C72.9325 10.2987 72.6819 10.72 72.3619 11.072C72.0525 11.424 71.6739 11.696 71.2259 11.888C70.7885 12.0693 70.2872 12.16 69.7219 12.16C68.9752 12.16 68.3085 11.9947 67.7219 11.664C67.1352 11.3333 66.6765 10.8587 66.3459 10.24C66.0152 9.61067 65.8499 8.864 65.8499 8C65.8499 7.136 66.0152 6.39467 66.3459 5.776C66.6765 5.14667 67.1352 4.66667 67.7219 4.336C68.3085 4.00533 68.9752 3.84 69.7219 3.84ZM78.707 12.16C77.9497 12.16 77.2723 11.9947 76.675 11.664C76.0883 11.3333 75.6297 10.8587 75.299 10.24C74.9683 9.61067 74.803 8.864 74.803 8C74.803 7.136 74.9683 6.39467 75.299 5.776C75.6297 5.14667 76.083 4.66667 76.659 4.336C77.235 4.00533 77.891 3.84 78.627 3.84C79.3737 3.84 80.0083 4 80.531 4.32C81.0643 4.64 81.4697 5.07733 81.747 5.632C82.0243 6.176 82.163 6.78933 82.163 7.472C82.163 7.65333 82.1577 7.81867 82.147 7.968C82.1363 8.11733 82.1203 8.25067 82.099 8.368H75.635V7.232H81.539L80.883 7.36C80.883 6.592 80.6697 6 80.243 5.584C79.827 5.168 79.2777 4.96 78.595 4.96C78.0723 4.96 77.619 5.08267 77.235 5.328C76.8617 5.56267 76.5683 5.90933 76.355 6.368C76.1523 6.816 76.051 7.36 76.051 8C76.051 8.62933 76.1577 9.17333 76.371 9.632C76.5843 10.0907 76.883 10.4427 77.267 10.688C77.6617 10.9227 78.131 11.04 78.675 11.04C79.2617 11.04 79.7363 10.928 80.099 10.704C80.4723 10.48 80.771 10.176 80.995 9.792L82.003 10.384C81.8003 10.7467 81.539 11.0613 81.219 11.328C80.9097 11.5947 80.5417 11.8027 80.115 11.952C79.699 12.0907 79.2297 12.16 78.707 12.16ZM87.4774 12.16C86.6987 12.16 85.9787 11.9947 85.3174 11.664C84.6667 11.3333 84.1654 10.864 83.8134 10.256L84.9014 9.472C85.136 9.96267 85.4774 10.3467 85.9254 10.624C86.384 10.9013 86.9334 11.04 87.5734 11.04C88.1387 11.04 88.5814 10.9333 88.9014 10.72C89.2214 10.496 89.3814 10.208 89.3814 9.856C89.3814 9.632 89.3067 9.42933 89.1574 9.248C89.0187 9.056 88.7467 8.91733 88.3414 8.832L86.4214 8.432C85.6427 8.272 85.0827 8.00533 84.7414 7.632C84.4107 7.25867 84.2454 6.79467 84.2454 6.24C84.2454 5.80267 84.368 5.40267 84.6134 5.04C84.8694 4.67733 85.2267 4.38933 85.6854 4.176C86.1547 3.952 86.704 3.84 87.3334 3.84C88.1227 3.84 88.7894 3.99467 89.3334 4.304C89.8774 4.61333 90.2827 5.05067 90.5494 5.616L89.4774 6.32C89.296 5.85067 89.0027 5.50933 88.5974 5.296C88.192 5.072 87.7707 4.96 87.3334 4.96C86.9494 4.96 86.6187 5.01333 86.3414 5.12C86.0747 5.22667 85.8667 5.376 85.7174 5.568C85.5787 5.74933 85.5094 5.95733 85.5094 6.192C85.5094 6.42667 85.5894 6.64533 85.7494 6.848C85.9094 7.04 86.208 7.17867 86.6454 7.264L88.6454 7.68C89.392 7.82933 89.9147 8.07467 90.2134 8.416C90.512 8.75733 90.6614 9.17333 90.6614 9.664C90.6614 10.1653 90.528 10.608 90.2614 10.992C89.9947 11.3653 89.6214 11.6533 89.1414 11.856C88.6614 12.0587 88.1067 12.16 87.4774 12.16Z" fill="#213F7D"/>
</svg>
