<svg width="59" height="15" viewBox="0 0 59 15" fill="none" xmlns="http://www.w3.org/2000/svg">
<path d="M4.728 0.44C5.80533 0.44 6.66933 0.717333 7.32 1.272C7.97067 1.82667 8.296 2.57867 8.296 3.528C8.296 4.47733 7.96533 5.21867 7.304 5.752C6.65333 6.27467 5.78933 6.536 4.712 6.536L4.6 6.616H2.008V11H0.728V0.44H4.728ZM4.712 5.416C5.46933 5.416 6.02933 5.26133 6.392 4.952C6.76533 4.632 6.952 4.15733 6.952 3.528C6.952 2.89867 6.76533 2.42933 6.392 2.12C6.02933 1.8 5.46933 1.64 4.712 1.64H2.008V5.416H4.712ZM5.448 5.672L8.936 11H7.416L4.376 6.376L5.448 5.672ZM14.207 11.16C13.4497 11.16 12.7723 10.9947 12.175 10.664C11.5883 10.3333 11.1297 9.85867 10.799 9.24C10.4683 8.61067 10.303 7.864 10.303 7C10.303 6.136 10.4683 5.39467 10.799 4.776C11.1297 4.14667 11.583 3.66667 12.159 3.336C12.735 3.00533 13.391 2.84 14.127 2.84C14.8737 2.84 15.5083 3 16.031 3.32C16.5643 3.64 16.9697 4.07733 17.247 4.632C17.5243 5.176 17.663 5.78933 17.663 6.472C17.663 6.65333 17.6577 6.81867 17.647 6.968C17.6363 7.11733 17.6203 7.25067 17.599 7.368H11.135V6.232H17.039L16.383 6.36C16.383 5.592 16.1697 5 15.743 4.584C15.327 4.168 14.7777 3.96 14.095 3.96C13.5723 3.96 13.119 4.08267 12.735 4.328C12.3617 4.56267 12.0683 4.90933 11.855 5.368C11.6523 5.816 11.551 6.36 11.551 7C11.551 7.62933 11.6577 8.17333 11.871 8.632C12.0843 9.09067 12.383 9.44267 12.767 9.688C13.1617 9.92267 13.631 10.04 14.175 10.04C14.7617 10.04 15.2363 9.928 15.599 9.704C15.9723 9.48 16.271 9.176 16.495 8.792L17.503 9.384C17.3003 9.74667 17.039 10.0613 16.719 10.328C16.4097 10.5947 16.0417 10.8027 15.615 10.952C15.199 11.0907 14.7297 11.16 14.207 11.16ZM20.0974 14.36V3H21.2174L21.3294 4.952L21.1534 4.728C21.292 4.35467 21.5 4.02933 21.7774 3.752C22.0547 3.464 22.3907 3.24 22.7854 3.08C23.18 2.92 23.6067 2.84 24.0654 2.84C24.716 2.84 25.3134 3.00533 25.8574 3.336C26.412 3.66667 26.8547 4.14133 27.1854 4.76C27.516 5.37867 27.6814 6.12533 27.6814 7C27.6814 7.864 27.5107 8.61067 27.1694 9.24C26.8387 9.85867 26.396 10.3333 25.8414 10.664C25.2867 10.9947 24.6787 11.16 24.0174 11.16C23.356 11.16 22.7747 11 22.2734 10.68C21.7827 10.3493 21.4307 9.93333 21.2174 9.432L21.3774 9.192V14.36H20.0974ZM23.8894 10.04C24.6787 10.04 25.292 9.76267 25.7294 9.208C26.1774 8.65333 26.4014 7.91733 26.4014 7C26.4014 6.08267 26.1827 5.34667 25.7454 4.792C25.3187 4.23733 24.716 3.96 23.9374 3.96C23.4254 3.96 22.9774 4.088 22.5934 4.344C22.2094 4.58933 21.9107 4.94133 21.6974 5.4C21.484 5.848 21.3774 6.38133 21.3774 7C21.3774 7.608 21.4787 8.14133 21.6814 8.6C21.8947 9.05867 22.188 9.416 22.5614 9.672C22.9454 9.91733 23.388 10.04 23.8894 10.04ZM33.4406 2.84C34.198 2.84 34.8646 3.00533 35.4406 3.336C36.0273 3.66667 36.486 4.14667 36.8166 4.776C37.1473 5.39467 37.3126 6.136 37.3126 7C37.3126 7.864 37.1473 8.61067 36.8166 9.24C36.486 9.85867 36.0273 10.3333 35.4406 10.664C34.8646 10.9947 34.198 11.16 33.4406 11.16C32.694 11.16 32.0273 10.9947 31.4406 10.664C30.854 10.3333 30.3953 9.85867 30.0646 9.24C29.734 8.61067 29.5686 7.864 29.5686 7C29.5686 6.136 29.734 5.39467 30.0646 4.776C30.3953 4.14667 30.854 3.66667 31.4406 3.336C32.0273 3.00533 32.694 2.84 33.4406 2.84ZM33.4406 3.944C32.8966 3.944 32.4326 4.06667 32.0486 4.312C31.6646 4.55733 31.366 4.90933 31.1526 5.368C30.95 5.816 30.8486 6.36 30.8486 7C30.8486 7.62933 30.95 8.17333 31.1526 8.632C31.366 9.09067 31.6646 9.44267 32.0486 9.688C32.4326 9.93333 32.8966 10.056 33.4406 10.056C33.9846 10.056 34.4486 9.93333 34.8326 9.688C35.2166 9.44267 35.51 9.09067 35.7126 8.632C35.926 8.17333 36.0326 7.62933 36.0326 7C36.0326 6.36 35.926 5.816 35.7126 5.368C35.51 4.90933 35.2166 4.55733 34.8326 4.312C34.4486 4.06667 33.9846 3.944 33.4406 3.944ZM39.7224 11V3H40.7624L40.9384 4.312C41.1624 3.82133 41.4877 3.45333 41.9144 3.208C42.3517 2.96267 42.8797 2.84 43.4984 2.84C43.637 2.84 43.7864 2.85067 43.9464 2.872C44.117 2.89333 44.261 2.936 44.3784 3L44.1544 4.168C44.037 4.12533 43.909 4.09333 43.7704 4.072C43.6317 4.05067 43.4344 4.04 43.1784 4.04C42.8477 4.04 42.5117 4.136 42.1704 4.328C41.8397 4.52 41.5624 4.81333 41.3384 5.208C41.1144 5.592 41.0024 6.08267 41.0024 6.68V11H39.7224ZM47.6573 0.728V8.792C47.6573 9.18667 47.7693 9.48 47.9933 9.672C48.2173 9.864 48.5053 9.96 48.8573 9.96C49.1666 9.96 49.4333 9.90667 49.6573 9.8C49.8813 9.69333 50.0839 9.54933 50.2653 9.368L50.7133 10.44C50.4679 10.664 50.1746 10.84 49.8333 10.968C49.5026 11.096 49.1186 11.16 48.6813 11.16C48.2759 11.16 47.8973 11.0907 47.5453 10.952C47.1933 10.8027 46.9106 10.5733 46.6973 10.264C46.4946 9.944 46.3879 9.528 46.3773 9.016V1.08L47.6573 0.728ZM50.5693 3V4.104H44.7773V3H50.5693ZM55.3524 11.16C54.5737 11.16 53.8537 10.9947 53.1924 10.664C52.5417 10.3333 52.0404 9.864 51.6884 9.256L52.7764 8.472C53.011 8.96267 53.3524 9.34667 53.8004 9.624C54.259 9.90133 54.8084 10.04 55.4484 10.04C56.0137 10.04 56.4564 9.93333 56.7764 9.72C57.0964 9.496 57.2564 9.208 57.2564 8.856C57.2564 8.632 57.1817 8.42933 57.0324 8.248C56.8937 8.056 56.6217 7.91733 56.2164 7.832L54.2964 7.432C53.5177 7.272 52.9577 7.00533 52.6164 6.632C52.2857 6.25867 52.1204 5.79467 52.1204 5.24C52.1204 4.80267 52.243 4.40267 52.4884 4.04C52.7444 3.67733 53.1017 3.38933 53.5604 3.176C54.0297 2.952 54.579 2.84 55.2084 2.84C55.9977 2.84 56.6644 2.99467 57.2084 3.304C57.7524 3.61333 58.1577 4.05067 58.4244 4.616L57.3524 5.32C57.171 4.85067 56.8777 4.50933 56.4724 4.296C56.067 4.072 55.6457 3.96 55.2084 3.96C54.8244 3.96 54.4937 4.01333 54.2164 4.12C53.9497 4.22667 53.7417 4.376 53.5924 4.568C53.4537 4.74933 53.3844 4.95733 53.3844 5.192C53.3844 5.42667 53.4644 5.64533 53.6244 5.848C53.7844 6.04 54.083 6.17867 54.5204 6.264L56.5204 6.68C57.267 6.82933 57.7897 7.07467 58.0884 7.416C58.387 7.75733 58.5364 8.17333 58.5364 8.664C58.5364 9.16533 58.403 9.608 58.1364 9.992C57.8697 10.3653 57.4964 10.6533 57.0164 10.856C56.5364 11.0587 55.9817 11.16 55.3524 11.16Z" fill="#213F7D"/>
</svg>
