<svg width="58" height="16" viewBox="0 0 58 16" fill="none" xmlns="http://www.w3.org/2000/svg">
<path d="M5.12 1.28C6.048 1.28 6.848 1.472 7.52 1.856C8.192 2.22933 8.752 2.784 9.2 3.52L8.128 4.352C7.73333 3.66933 7.28533 3.18933 6.784 2.912C6.29333 2.624 5.696 2.48 4.992 2.48C4.42667 2.48 3.95733 2.56 3.584 2.72C3.22133 2.88 2.95467 3.09333 2.784 3.36C2.61333 3.616 2.528 3.90933 2.528 4.24C2.528 4.61333 2.64533 4.944 2.88 5.232C3.11467 5.50933 3.584 5.728 4.288 5.888L6.576 6.4C7.58933 6.624 8.29333 6.96533 8.688 7.424C9.09333 7.872 9.296 8.432 9.296 9.104C9.296 9.70133 9.12533 10.2347 8.784 10.704C8.45333 11.1627 7.984 11.52 7.376 11.776C6.768 12.032 6.05333 12.16 5.232 12.16C4.464 12.16 3.78667 12.0587 3.2 11.856C2.624 11.6427 2.128 11.36 1.712 11.008C1.296 10.656 0.954667 10.2613 0.688 9.824L1.808 8.912C2.01067 9.31733 2.272 9.67467 2.592 9.984C2.912 10.2933 3.296 10.5333 3.744 10.704C4.20267 10.8747 4.72533 10.96 5.312 10.96C5.856 10.96 6.32533 10.896 6.72 10.768C7.12533 10.6293 7.43467 10.432 7.648 10.176C7.86133 9.90933 7.968 9.58933 7.968 9.216C7.968 8.87467 7.856 8.57067 7.632 8.304C7.408 8.02667 6.98667 7.81867 6.368 7.68L3.888 7.12C3.23733 6.97067 2.70933 6.768 2.304 6.512C1.90933 6.24533 1.62133 5.936 1.44 5.584C1.26933 5.22133 1.184 4.832 1.184 4.416C1.184 3.85067 1.33867 3.33333 1.648 2.864C1.968 2.384 2.42133 2 3.008 1.712C3.60533 1.424 4.30933 1.28 5.12 1.28ZM16.2538 6.832C16.2538 6.23467 16.0938 5.776 15.7738 5.456C15.4538 5.12533 15.0004 4.96 14.4138 4.96C13.8591 4.96 13.3898 5.08267 13.0058 5.328C12.6218 5.56267 12.3391 5.94667 12.1578 6.48L11.1178 5.84C11.3311 5.24267 11.7258 4.76267 12.3018 4.4C12.8778 4.02667 13.5924 3.84 14.4458 3.84C15.0218 3.84 15.5444 3.94133 16.0138 4.144C16.4831 4.336 16.8511 4.63467 17.1178 5.04C17.3951 5.43467 17.5338 5.94667 17.5338 6.576V10.448C17.5338 10.832 17.7364 11.024 18.1418 11.024C18.3444 11.024 18.5418 10.9973 18.7338 10.944L18.6698 11.952C18.4564 12.0587 18.1791 12.112 17.8378 12.112C17.5284 12.112 17.2511 12.0533 17.0058 11.936C16.7604 11.8187 16.5684 11.6427 16.4298 11.408C16.2911 11.1627 16.2218 10.8587 16.2218 10.496V10.336L16.5418 10.384C16.4138 10.8 16.1951 11.1413 15.8858 11.408C15.5764 11.664 15.2298 11.856 14.8458 11.984C14.4618 12.1013 14.0831 12.16 13.7098 12.16C13.2404 12.16 12.8031 12.08 12.3978 11.92C11.9924 11.76 11.6671 11.52 11.4218 11.2C11.1871 10.8693 11.0698 10.464 11.0698 9.984C11.0698 9.38667 11.2671 8.896 11.6618 8.512C12.0671 8.11733 12.6271 7.85067 13.3418 7.712L16.5098 7.088V8.144L13.9338 8.672C13.4111 8.77867 13.0218 8.928 12.7658 9.12C12.5098 9.312 12.3818 9.57867 12.3818 9.92C12.3818 10.2507 12.5098 10.5227 12.7658 10.736C13.0324 10.9387 13.4058 11.04 13.8858 11.04C14.1951 11.04 14.4884 11.0027 14.7658 10.928C15.0538 10.8427 15.3098 10.72 15.5338 10.56C15.7578 10.3893 15.9338 10.1813 16.0618 9.936C16.1898 9.68 16.2538 9.38133 16.2538 9.04V6.832ZM25.6746 4H27.0186L23.6906 12H22.4106L19.0826 4H20.5386L23.0666 10.704L25.6746 4ZM29.3311 2.464C29.0431 2.464 28.8085 2.37867 28.6271 2.208C28.4565 2.02667 28.3711 1.792 28.3711 1.504C28.3711 1.216 28.4565 0.986666 28.6271 0.815999C28.8085 0.634666 29.0431 0.544 29.3311 0.544C29.6191 0.544 29.8485 0.634666 30.0191 0.815999C30.2005 0.986666 30.2911 1.216 30.2911 1.504C30.2911 1.792 30.2005 2.02667 30.0191 2.208C29.8485 2.37867 29.6191 2.464 29.3311 2.464ZM29.9711 4V12H28.6911V4H29.9711ZM32.9411 12V4H34.0611L34.1731 5.792L33.9651 5.616C34.1358 5.18933 34.3651 4.848 34.6531 4.592C34.9411 4.32533 35.2718 4.13333 35.6451 4.016C36.0291 3.89867 36.4238 3.84 36.8291 3.84C37.4051 3.84 37.9278 3.952 38.3971 4.176C38.8665 4.38933 39.2398 4.72 39.5171 5.168C39.8051 5.616 39.9491 6.18667 39.9491 6.88V12H38.6691V7.328C38.6691 6.44267 38.4771 5.82933 38.0931 5.488C37.7198 5.136 37.2558 4.96 36.7011 4.96C36.3171 4.96 35.9331 5.05067 35.5491 5.232C35.1651 5.41333 34.8451 5.70667 34.5891 6.112C34.3438 6.51733 34.2211 7.06133 34.2211 7.744V12H32.9411ZM49.5834 2.528L49.8714 3.664C49.8607 3.664 49.8447 3.664 49.8234 3.664C49.802 3.664 49.7807 3.664 49.7594 3.664C49.2367 3.664 48.8314 3.77067 48.5434 3.984C48.266 4.18667 48.1274 4.51733 48.1274 4.976L47.3434 4.576C47.3434 4.16 47.4394 3.79733 47.6314 3.488C47.8234 3.17867 48.0847 2.944 48.4154 2.784C48.746 2.61333 49.1087 2.528 49.5034 2.528C49.514 2.528 49.5247 2.528 49.5354 2.528C49.5567 2.528 49.5727 2.528 49.5834 2.528ZM47.1514 10.976C47.9087 10.976 48.5007 11.152 48.9274 11.504C49.354 11.8453 49.5674 12.304 49.5674 12.88C49.5674 13.4027 49.3914 13.856 49.0394 14.24C48.698 14.624 48.234 14.9173 47.6474 15.12C47.0714 15.3333 46.4207 15.44 45.6954 15.44C44.4367 15.44 43.4927 15.2267 42.8634 14.8C42.2447 14.3733 41.9354 13.8613 41.9354 13.264C41.9354 12.8373 42.074 12.4533 42.3514 12.112C42.6394 11.7813 43.1194 11.5947 43.7914 11.552L43.6794 11.792C43.3167 11.696 43.0074 11.536 42.7514 11.312C42.506 11.0773 42.3834 10.7413 42.3834 10.304C42.3834 9.86667 42.5434 9.49333 42.8634 9.184C43.194 8.864 43.6794 8.66667 44.3194 8.592L45.1674 9.024H45.0074C44.4847 9.07733 44.1114 9.21067 43.8874 9.424C43.674 9.62667 43.5674 9.85067 43.5674 10.096C43.5674 10.3947 43.674 10.6187 43.8874 10.768C44.1114 10.9067 44.4207 10.976 44.8154 10.976H47.1514ZM45.6794 14.368C46.298 14.368 46.8047 14.304 47.1994 14.176C47.6047 14.048 47.9034 13.8827 48.0954 13.68C48.2874 13.4773 48.3834 13.2587 48.3834 13.024C48.3834 12.736 48.266 12.5067 48.0314 12.336C47.8074 12.1653 47.3967 12.08 46.7994 12.08H44.3354C43.994 12.08 43.706 12.1653 43.4714 12.336C43.2367 12.5173 43.1194 12.7627 43.1194 13.072C43.1194 13.4667 43.3434 13.7813 43.7914 14.016C44.25 14.2507 44.8794 14.368 45.6794 14.368ZM45.5674 3.84C46.2074 3.84 46.7727 3.95733 47.2634 4.192C47.7647 4.416 48.154 4.73067 48.4314 5.136C48.7087 5.54133 48.8474 6.01067 48.8474 6.544C48.8474 7.06667 48.7087 7.536 48.4314 7.952C48.154 8.35733 47.7647 8.67733 47.2634 8.912C46.7727 9.136 46.2074 9.248 45.5674 9.248C44.5114 9.248 43.7007 8.99733 43.1354 8.496C42.57 7.984 42.2874 7.33333 42.2874 6.544C42.2874 6.01067 42.426 5.54133 42.7034 5.136C42.9914 4.73067 43.3807 4.416 43.8714 4.192C44.362 3.95733 44.9274 3.84 45.5674 3.84ZM45.5674 4.88C45.0127 4.88 44.5487 5.03467 44.1754 5.344C43.802 5.64267 43.6154 6.04267 43.6154 6.544C43.6154 7.03467 43.802 7.43467 44.1754 7.744C44.5487 8.05333 45.0127 8.208 45.5674 8.208C46.122 8.208 46.586 8.05333 46.9594 7.744C47.3327 7.43467 47.5194 7.03467 47.5194 6.544C47.5194 6.04267 47.3327 5.64267 46.9594 5.344C46.586 5.03467 46.122 4.88 45.5674 4.88ZM54.243 12.16C53.4643 12.16 52.7443 11.9947 52.083 11.664C51.4323 11.3333 50.931 10.864 50.579 10.256L51.667 9.472C51.9017 9.96267 52.243 10.3467 52.691 10.624C53.1497 10.9013 53.699 11.04 54.339 11.04C54.9043 11.04 55.347 10.9333 55.667 10.72C55.987 10.496 56.147 10.208 56.147 9.856C56.147 9.632 56.0723 9.42933 55.923 9.248C55.7843 9.056 55.5123 8.91733 55.107 8.832L53.187 8.432C52.4083 8.272 51.8483 8.00533 51.507 7.632C51.1763 7.25867 51.011 6.79467 51.011 6.24C51.011 5.80267 51.1337 5.40267 51.379 5.04C51.635 4.67733 51.9923 4.38933 52.451 4.176C52.9203 3.952 53.4697 3.84 54.099 3.84C54.8883 3.84 55.555 3.99467 56.099 4.304C56.643 4.61333 57.0483 5.05067 57.315 5.616L56.243 6.32C56.0617 5.85067 55.7683 5.50933 55.363 5.296C54.9577 5.072 54.5363 4.96 54.099 4.96C53.715 4.96 53.3843 5.01333 53.107 5.12C52.8403 5.22667 52.6323 5.376 52.483 5.568C52.3443 5.74933 52.275 5.95733 52.275 6.192C52.275 6.42667 52.355 6.64533 52.515 6.848C52.675 7.04 52.9737 7.17867 53.411 7.264L55.411 7.68C56.1577 7.82933 56.6803 8.07467 56.979 8.416C57.2777 8.75733 57.427 9.17333 57.427 9.664C57.427 10.1653 57.2937 10.608 57.027 10.992C56.7603 11.3653 56.387 11.6533 55.907 11.856C55.427 12.0587 54.8723 12.16 54.243 12.16Z" fill="#213F7D"/>
</svg>
