<svg width="65" height="13" viewBox="0 0 65 13" fill="none" xmlns="http://www.w3.org/2000/svg">
<path d="M5.12 1.28C6.048 1.28 6.848 1.472 7.52 1.856C8.192 2.22933 8.752 2.784 9.2 3.52L8.128 4.352C7.73333 3.66933 7.28533 3.18933 6.784 2.912C6.29333 2.624 5.696 2.48 4.992 2.48C4.42667 2.48 3.95733 2.56 3.584 2.72C3.22133 2.88 2.95467 3.09333 2.784 3.36C2.61333 3.616 2.528 3.90933 2.528 4.24C2.528 4.61333 2.64533 4.944 2.88 5.232C3.11467 5.50933 3.584 5.728 4.288 5.888L6.576 6.4C7.58933 6.624 8.29333 6.96533 8.688 7.424C9.09333 7.872 9.296 8.432 9.296 9.104C9.296 9.70133 9.12533 10.2347 8.784 10.704C8.45333 11.1627 7.984 11.52 7.376 11.776C6.768 12.032 6.05333 12.16 5.232 12.16C4.464 12.16 3.78667 12.0587 3.2 11.856C2.624 11.6427 2.128 11.36 1.712 11.008C1.296 10.656 0.954667 10.2613 0.688 9.824L1.808 8.912C2.01067 9.31733 2.272 9.67467 2.592 9.984C2.912 10.2933 3.296 10.5333 3.744 10.704C4.20267 10.8747 4.72533 10.96 5.312 10.96C5.856 10.96 6.32533 10.896 6.72 10.768C7.12533 10.6293 7.43467 10.432 7.648 10.176C7.86133 9.90933 7.968 9.58933 7.968 9.216C7.968 8.87467 7.856 8.57067 7.632 8.304C7.408 8.02667 6.98667 7.81867 6.368 7.68L3.888 7.12C3.23733 6.97067 2.70933 6.768 2.304 6.512C1.90933 6.24533 1.62133 5.936 1.44 5.584C1.26933 5.22133 1.184 4.832 1.184 4.416C1.184 3.85067 1.33867 3.33333 1.648 2.864C1.968 2.384 2.42133 2 3.008 1.712C3.60533 1.424 4.30933 1.28 5.12 1.28ZM15.082 12.16C14.3247 12.16 13.6473 11.9947 13.05 11.664C12.4633 11.3333 12.0047 10.8587 11.674 10.24C11.3433 9.61067 11.178 8.864 11.178 8C11.178 7.136 11.3433 6.39467 11.674 5.776C12.0047 5.14667 12.458 4.66667 13.034 4.336C13.61 4.00533 14.266 3.84 15.002 3.84C15.7487 3.84 16.3833 4 16.906 4.32C17.4393 4.64 17.8447 5.07733 18.122 5.632C18.3993 6.176 18.538 6.78933 18.538 7.472C18.538 7.65333 18.5327 7.81867 18.522 7.968C18.5113 8.11733 18.4953 8.25067 18.474 8.368H12.01V7.232H17.914L17.258 7.36C17.258 6.592 17.0447 6 16.618 5.584C16.202 5.168 15.6527 4.96 14.97 4.96C14.4473 4.96 13.994 5.08267 13.61 5.328C13.2367 5.56267 12.9433 5.90933 12.73 6.368C12.5273 6.816 12.426 7.36 12.426 8C12.426 8.62933 12.5327 9.17333 12.746 9.632C12.9593 10.0907 13.258 10.4427 13.642 10.688C14.0367 10.9227 14.506 11.04 15.05 11.04C15.6367 11.04 16.1113 10.928 16.474 10.704C16.8473 10.48 17.146 10.176 17.37 9.792L18.378 10.384C18.1753 10.7467 17.914 11.0613 17.594 11.328C17.2847 11.5947 16.9167 11.8027 16.49 11.952C16.074 12.0907 15.6047 12.16 15.082 12.16ZM20.9724 12V4H22.0124L22.1884 5.312C22.4124 4.82133 22.7377 4.45333 23.1644 4.208C23.6017 3.96267 24.1297 3.84 24.7484 3.84C24.887 3.84 25.0364 3.85067 25.1964 3.872C25.367 3.89333 25.511 3.936 25.6284 4L25.4044 5.168C25.287 5.12533 25.159 5.09333 25.0204 5.072C24.8817 5.05067 24.6844 5.04 24.4284 5.04C24.0977 5.04 23.7617 5.136 23.4204 5.328C23.0897 5.52 22.8124 5.81333 22.5884 6.208C22.3644 6.592 22.2524 7.08267 22.2524 7.68V12H20.9724ZM32.7996 4H34.1436L30.8156 12H29.5356L26.2076 4H27.6636L30.1916 10.704L32.7996 4ZM36.4561 2.464C36.1681 2.464 35.9335 2.37867 35.7521 2.208C35.5815 2.02667 35.4961 1.792 35.4961 1.504C35.4961 1.216 35.5815 0.986666 35.7521 0.815999C35.9335 0.634666 36.1681 0.544 36.4561 0.544C36.7441 0.544 36.9735 0.634666 37.1441 0.815999C37.3255 0.986666 37.4161 1.216 37.4161 1.504C37.4161 1.792 37.3255 2.02667 37.1441 2.208C36.9735 2.37867 36.7441 2.464 36.4561 2.464ZM37.0961 4V12H35.8161V4H37.0961ZM43.3781 3.84C43.9328 3.84 44.4181 3.92533 44.8341 4.096C45.2608 4.26667 45.6288 4.512 45.9381 4.832C46.2475 5.152 46.4981 5.53067 46.6901 5.968L45.4741 6.544C45.3035 6.032 45.0421 5.64267 44.6901 5.376C44.3488 5.09867 43.9008 4.96 43.3461 4.96C42.8128 4.96 42.3541 5.08267 41.9701 5.328C41.5861 5.56267 41.2928 5.90933 41.0901 6.368C40.8875 6.816 40.7861 7.36 40.7861 8C40.7861 8.62933 40.8875 9.17333 41.0901 9.632C41.2928 10.0907 41.5861 10.4427 41.9701 10.688C42.3541 10.9227 42.8128 11.04 43.3461 11.04C43.7621 11.04 44.1195 10.976 44.4181 10.848C44.7275 10.72 44.9781 10.5333 45.1701 10.288C45.3728 10.0427 45.5115 9.744 45.5861 9.392L46.7701 9.808C46.5888 10.2987 46.3381 10.72 46.0181 11.072C45.7088 11.424 45.3301 11.696 44.8821 11.888C44.4448 12.0693 43.9435 12.16 43.3781 12.16C42.6315 12.16 41.9648 11.9947 41.3781 11.664C40.7915 11.3333 40.3328 10.8587 40.0021 10.24C39.6715 9.61067 39.5061 8.864 39.5061 8C39.5061 7.136 39.6715 6.39467 40.0021 5.776C40.3328 5.14667 40.7915 4.66667 41.3781 4.336C41.9648 4.00533 42.6315 3.84 43.3781 3.84ZM52.3633 12.16C51.6059 12.16 50.9286 11.9947 50.3313 11.664C49.7446 11.3333 49.2859 10.8587 48.9553 10.24C48.6246 9.61067 48.4593 8.864 48.4593 8C48.4593 7.136 48.6246 6.39467 48.9553 5.776C49.2859 5.14667 49.7393 4.66667 50.3153 4.336C50.8913 4.00533 51.5473 3.84 52.2833 3.84C53.0299 3.84 53.6646 4 54.1873 4.32C54.7206 4.64 55.1259 5.07733 55.4033 5.632C55.6806 6.176 55.8193 6.78933 55.8193 7.472C55.8193 7.65333 55.8139 7.81867 55.8033 7.968C55.7926 8.11733 55.7766 8.25067 55.7552 8.368H49.2913V7.232H55.1953L54.5393 7.36C54.5393 6.592 54.3259 6 53.8993 5.584C53.4833 5.168 52.9339 4.96 52.2513 4.96C51.7286 4.96 51.2753 5.08267 50.8913 5.328C50.5179 5.56267 50.2246 5.90933 50.0113 6.368C49.8086 6.816 49.7073 7.36 49.7073 8C49.7073 8.62933 49.8139 9.17333 50.0273 9.632C50.2406 10.0907 50.5393 10.4427 50.9233 10.688C51.3179 10.9227 51.7873 11.04 52.3313 11.04C52.9179 11.04 53.3926 10.928 53.7553 10.704C54.1286 10.48 54.4273 10.176 54.6513 9.792L55.6593 10.384C55.4566 10.7467 55.1953 11.0613 54.8753 11.328C54.5659 11.5947 54.1979 11.8027 53.7713 11.952C53.3553 12.0907 52.8859 12.16 52.3633 12.16ZM61.1336 12.16C60.355 12.16 59.635 11.9947 58.9736 11.664C58.323 11.3333 57.8216 10.864 57.4696 10.256L58.5576 9.472C58.7923 9.96267 59.1336 10.3467 59.5816 10.624C60.0403 10.9013 60.5896 11.04 61.2296 11.04C61.795 11.04 62.2376 10.9333 62.5576 10.72C62.8776 10.496 63.0376 10.208 63.0376 9.856C63.0376 9.632 62.963 9.42933 62.8136 9.248C62.675 9.056 62.403 8.91733 61.9976 8.832L60.0776 8.432C59.299 8.272 58.739 8.00533 58.3976 7.632C58.067 7.25867 57.9016 6.79467 57.9016 6.24C57.9016 5.80267 58.0243 5.40267 58.2696 5.04C58.5256 4.67733 58.883 4.38933 59.3416 4.176C59.811 3.952 60.3603 3.84 60.9896 3.84C61.779 3.84 62.4456 3.99467 62.9896 4.304C63.5336 4.61333 63.939 5.05067 64.2056 5.616L63.1336 6.32C62.9523 5.85067 62.659 5.50933 62.2536 5.296C61.8483 5.072 61.427 4.96 60.9896 4.96C60.6056 4.96 60.275 5.01333 59.9976 5.12C59.731 5.22667 59.523 5.376 59.3736 5.568C59.235 5.74933 59.1656 5.95733 59.1656 6.192C59.1656 6.42667 59.2456 6.64533 59.4056 6.848C59.5656 7.04 59.8643 7.17867 60.3016 7.264L62.3016 7.68C63.0483 7.82933 63.571 8.07467 63.8696 8.416C64.1683 8.75733 64.3176 9.17333 64.3176 9.664C64.3176 10.1653 64.1843 10.608 63.9176 10.992C63.651 11.3653 63.2776 11.6533 62.7976 11.856C62.3176 12.0587 61.763 12.16 61.1336 12.16Z" fill="#213F7D"/>
</svg>
