<svg width="126" height="13" viewBox="0 0 126 13" fill="none" xmlns="http://www.w3.org/2000/svg">
<path d="M5.12 1.28C6.048 1.28 6.848 1.472 7.52 1.856C8.192 2.22933 8.752 2.784 9.2 3.52L8.128 4.352C7.73333 3.66933 7.28533 3.18933 6.784 2.912C6.29333 2.624 5.696 2.48 4.992 2.48C4.42667 2.48 3.95733 2.56 3.584 2.72C3.22133 2.88 2.95467 3.09333 2.784 3.36C2.61333 3.616 2.528 3.90933 2.528 4.24C2.528 4.61333 2.64533 4.944 2.88 5.232C3.11467 5.50933 3.584 5.728 4.288 5.888L6.576 6.4C7.58933 6.624 8.29333 6.96533 8.688 7.424C9.09333 7.872 9.296 8.432 9.296 9.104C9.296 9.70133 9.12533 10.2347 8.784 10.704C8.45333 11.1627 7.984 11.52 7.376 11.776C6.768 12.032 6.05333 12.16 5.232 12.16C4.464 12.16 3.78667 12.0587 3.2 11.856C2.624 11.6427 2.128 11.36 1.712 11.008C1.296 10.656 0.954667 10.2613 0.688 9.824L1.808 8.912C2.01067 9.31733 2.272 9.67467 2.592 9.984C2.912 10.2933 3.296 10.5333 3.744 10.704C4.20267 10.8747 4.72533 10.96 5.312 10.96C5.856 10.96 6.32533 10.896 6.72 10.768C7.12533 10.6293 7.43467 10.432 7.648 10.176C7.86133 9.90933 7.968 9.58933 7.968 9.216C7.968 8.87467 7.856 8.57067 7.632 8.304C7.408 8.02667 6.98667 7.81867 6.368 7.68L3.888 7.12C3.23733 6.97067 2.70933 6.768 2.304 6.512C1.90933 6.24533 1.62133 5.936 1.44 5.584C1.26933 5.22133 1.184 4.832 1.184 4.416C1.184 3.85067 1.33867 3.33333 1.648 2.864C1.968 2.384 2.42133 2 3.008 1.712C3.60533 1.424 4.30933 1.28 5.12 1.28ZM15.082 12.16C14.3247 12.16 13.6473 11.9947 13.05 11.664C12.4633 11.3333 12.0047 10.8587 11.674 10.24C11.3433 9.61067 11.178 8.864 11.178 8C11.178 7.136 11.3433 6.39467 11.674 5.776C12.0047 5.14667 12.458 4.66667 13.034 4.336C13.61 4.00533 14.266 3.84 15.002 3.84C15.7487 3.84 16.3833 4 16.906 4.32C17.4393 4.64 17.8447 5.07733 18.122 5.632C18.3993 6.176 18.538 6.78933 18.538 7.472C18.538 7.65333 18.5327 7.81867 18.522 7.968C18.5113 8.11733 18.4953 8.25067 18.474 8.368H12.01V7.232H17.914L17.258 7.36C17.258 6.592 17.0447 6 16.618 5.584C16.202 5.168 15.6527 4.96 14.97 4.96C14.4473 4.96 13.994 5.08267 13.61 5.328C13.2367 5.56267 12.9433 5.90933 12.73 6.368C12.5273 6.816 12.426 7.36 12.426 8C12.426 8.62933 12.5327 9.17333 12.746 9.632C12.9593 10.0907 13.258 10.4427 13.642 10.688C14.0367 10.9227 14.506 11.04 15.05 11.04C15.6367 11.04 16.1113 10.928 16.474 10.704C16.8473 10.48 17.146 10.176 17.37 9.792L18.378 10.384C18.1753 10.7467 17.914 11.0613 17.594 11.328C17.2847 11.5947 16.9167 11.8027 16.49 11.952C16.074 12.0907 15.6047 12.16 15.082 12.16ZM20.9724 12V4H22.0124L22.1884 5.312C22.4124 4.82133 22.7377 4.45333 23.1644 4.208C23.6017 3.96267 24.1297 3.84 24.7484 3.84C24.887 3.84 25.0364 3.85067 25.1964 3.872C25.367 3.89333 25.511 3.936 25.6284 4L25.4044 5.168C25.287 5.12533 25.159 5.09333 25.0204 5.072C24.8817 5.05067 24.6844 5.04 24.4284 5.04C24.0977 5.04 23.7617 5.136 23.4204 5.328C23.0897 5.52 22.8124 5.81333 22.5884 6.208C22.3644 6.592 22.2524 7.08267 22.2524 7.68V12H20.9724ZM32.7996 4H34.1436L30.8156 12H29.5356L26.2076 4H27.6636L30.1916 10.704L32.7996 4ZM36.4561 2.464C36.1681 2.464 35.9335 2.37867 35.7521 2.208C35.5815 2.02667 35.4961 1.792 35.4961 1.504C35.4961 1.216 35.5815 0.986666 35.7521 0.815999C35.9335 0.634666 36.1681 0.544 36.4561 0.544C36.7441 0.544 36.9735 0.634666 37.1441 0.815999C37.3255 0.986666 37.4161 1.216 37.4161 1.504C37.4161 1.792 37.3255 2.02667 37.1441 2.208C36.9735 2.37867 36.7441 2.464 36.4561 2.464ZM37.0961 4V12H35.8161V4H37.0961ZM43.3781 3.84C43.9328 3.84 44.4181 3.92533 44.8341 4.096C45.2608 4.26667 45.6288 4.512 45.9381 4.832C46.2475 5.152 46.4981 5.53067 46.6901 5.968L45.4741 6.544C45.3035 6.032 45.0421 5.64267 44.6901 5.376C44.3488 5.09867 43.9008 4.96 43.3461 4.96C42.8128 4.96 42.3541 5.08267 41.9701 5.328C41.5861 5.56267 41.2928 5.90933 41.0901 6.368C40.8875 6.816 40.7861 7.36 40.7861 8C40.7861 8.62933 40.8875 9.17333 41.0901 9.632C41.2928 10.0907 41.5861 10.4427 41.9701 10.688C42.3541 10.9227 42.8128 11.04 43.3461 11.04C43.7621 11.04 44.1195 10.976 44.4181 10.848C44.7275 10.72 44.9781 10.5333 45.1701 10.288C45.3728 10.0427 45.5115 9.744 45.5861 9.392L46.7701 9.808C46.5888 10.2987 46.3381 10.72 46.0181 11.072C45.7088 11.424 45.3301 11.696 44.8821 11.888C44.4448 12.0693 43.9435 12.16 43.3781 12.16C42.6315 12.16 41.9648 11.9947 41.3781 11.664C40.7915 11.3333 40.3328 10.8587 40.0021 10.24C39.6715 9.61067 39.5061 8.864 39.5061 8C39.5061 7.136 39.6715 6.39467 40.0021 5.776C40.3328 5.14667 40.7915 4.66667 41.3781 4.336C41.9648 4.00533 42.6315 3.84 43.3781 3.84ZM52.3633 12.16C51.6059 12.16 50.9286 11.9947 50.3313 11.664C49.7446 11.3333 49.2859 10.8587 48.9553 10.24C48.6246 9.61067 48.4593 8.864 48.4593 8C48.4593 7.136 48.6246 6.39467 48.9553 5.776C49.2859 5.14667 49.7393 4.66667 50.3153 4.336C50.8913 4.00533 51.5473 3.84 52.2833 3.84C53.0299 3.84 53.6646 4 54.1873 4.32C54.7206 4.64 55.1259 5.07733 55.4033 5.632C55.6806 6.176 55.8193 6.78933 55.8193 7.472C55.8193 7.65333 55.8139 7.81867 55.8033 7.968C55.7926 8.11733 55.7766 8.25067 55.7552 8.368H49.2913V7.232H55.1953L54.5393 7.36C54.5393 6.592 54.3259 6 53.8993 5.584C53.4833 5.168 52.9339 4.96 52.2513 4.96C51.7286 4.96 51.2753 5.08267 50.8913 5.328C50.5179 5.56267 50.2246 5.90933 50.0113 6.368C49.8086 6.816 49.7073 7.36 49.7073 8C49.7073 8.62933 49.8139 9.17333 50.0273 9.632C50.2406 10.0907 50.5393 10.4427 50.9233 10.688C51.3179 10.9227 51.7873 11.04 52.3313 11.04C52.9179 11.04 53.3926 10.928 53.7553 10.704C54.1286 10.48 54.4273 10.176 54.6513 9.792L55.6593 10.384C55.4566 10.7467 55.1953 11.0613 54.8753 11.328C54.5659 11.5947 54.1979 11.8027 53.7713 11.952C53.3553 12.0907 52.8859 12.16 52.3633 12.16ZM71.7221 12H70.3621L69.2421 9.072H64.4581L63.3381 12H61.9941L66.1061 1.44H67.6261L71.7221 12ZM64.9221 7.872H68.7781L66.8421 2.672L64.9221 7.872ZM76.8 3.84C77.3547 3.84 77.84 3.92533 78.256 4.096C78.6827 4.26667 79.0507 4.512 79.36 4.832C79.6693 5.152 79.92 5.53067 80.112 5.968L78.896 6.544C78.7253 6.032 78.464 5.64267 78.112 5.376C77.7707 5.09867 77.3227 4.96 76.768 4.96C76.2347 4.96 75.776 5.08267 75.392 5.328C75.008 5.56267 74.7147 5.90933 74.512 6.368C74.3093 6.816 74.208 7.36 74.208 8C74.208 8.62933 74.3093 9.17333 74.512 9.632C74.7147 10.0907 75.008 10.4427 75.392 10.688C75.776 10.9227 76.2347 11.04 76.768 11.04C77.184 11.04 77.5413 10.976 77.84 10.848C78.1493 10.72 78.4 10.5333 78.592 10.288C78.7947 10.0427 78.9333 9.744 79.008 9.392L80.192 9.808C80.0107 10.2987 79.76 10.72 79.44 11.072C79.1307 11.424 78.752 11.696 78.304 11.888C77.8667 12.0693 77.3653 12.16 76.8 12.16C76.0533 12.16 75.3867 11.9947 74.8 11.664C74.2133 11.3333 73.7547 10.8587 73.424 10.24C73.0933 9.61067 72.928 8.864 72.928 8C72.928 7.136 73.0933 6.39467 73.424 5.776C73.7547 5.14667 74.2133 4.66667 74.8 4.336C75.3867 4.00533 76.0533 3.84 76.8 3.84ZM85.7531 3.84C86.3078 3.84 86.7931 3.92533 87.2091 4.096C87.6358 4.26667 88.0038 4.512 88.3131 4.832C88.6225 5.152 88.8731 5.53067 89.0651 5.968L87.8491 6.544C87.6785 6.032 87.4171 5.64267 87.0651 5.376C86.7238 5.09867 86.2758 4.96 85.7211 4.96C85.1878 4.96 84.7291 5.08267 84.3451 5.328C83.9611 5.56267 83.6678 5.90933 83.4651 6.368C83.2625 6.816 83.1611 7.36 83.1611 8C83.1611 8.62933 83.2625 9.17333 83.4651 9.632C83.6678 10.0907 83.9611 10.4427 84.3451 10.688C84.7291 10.9227 85.1878 11.04 85.7211 11.04C86.1371 11.04 86.4945 10.976 86.7931 10.848C87.1025 10.72 87.3531 10.5333 87.5451 10.288C87.7478 10.0427 87.8865 9.744 87.9611 9.392L89.1451 9.808C88.9638 10.2987 88.7131 10.72 88.3931 11.072C88.0838 11.424 87.7051 11.696 87.2571 11.888C86.8198 12.0693 86.3185 12.16 85.7531 12.16C85.0065 12.16 84.3398 11.9947 83.7531 11.664C83.1665 11.3333 82.7078 10.8587 82.3771 10.24C82.0465 9.61067 81.8811 8.864 81.8811 8C81.8811 7.136 82.0465 6.39467 82.3771 5.776C82.7078 5.14667 83.1665 4.66667 83.7531 4.336C84.3398 4.00533 85.0065 3.84 85.7531 3.84ZM94.7063 3.84C95.4636 3.84 96.1303 4.00533 96.7063 4.336C97.2929 4.66667 97.7516 5.14667 98.0823 5.776C98.4129 6.39467 98.5783 7.136 98.5783 8C98.5783 8.864 98.4129 9.61067 98.0823 10.24C97.7516 10.8587 97.2929 11.3333 96.7063 11.664C96.1303 11.9947 95.4636 12.16 94.7063 12.16C93.9596 12.16 93.2929 11.9947 92.7063 11.664C92.1196 11.3333 91.6609 10.8587 91.3303 10.24C90.9996 9.61067 90.8343 8.864 90.8343 8C90.8343 7.136 90.9996 6.39467 91.3303 5.776C91.6609 5.14667 92.1196 4.66667 92.7063 4.336C93.2929 4.00533 93.9596 3.84 94.7063 3.84ZM94.7063 4.944C94.1623 4.944 93.6983 5.06667 93.3143 5.312C92.9303 5.55733 92.6316 5.90933 92.4183 6.368C92.2156 6.816 92.1143 7.36 92.1143 8C92.1143 8.62933 92.2156 9.17333 92.4183 9.632C92.6316 10.0907 92.9303 10.4427 93.3143 10.688C93.6983 10.9333 94.1623 11.056 94.7063 11.056C95.2503 11.056 95.7143 10.9333 96.0983 10.688C96.4823 10.4427 96.7756 10.0907 96.9783 9.632C97.1916 9.17333 97.2983 8.62933 97.2983 8C97.2983 7.36 97.1916 6.816 96.9783 6.368C96.7756 5.90933 96.4823 5.55733 96.0983 5.312C95.7143 5.06667 95.2503 4.944 94.7063 4.944ZM103.884 12.16C103.372 12.16 102.887 12.064 102.428 11.872C101.98 11.68 101.612 11.3707 101.324 10.944C101.047 10.5067 100.908 9.94133 100.908 9.248V4H102.188V8.912C102.188 9.72267 102.364 10.2827 102.716 10.592C103.068 10.8907 103.564 11.04 104.204 11.04C104.503 11.04 104.796 10.992 105.084 10.896C105.372 10.7893 105.628 10.6293 105.852 10.416C106.087 10.192 106.268 9.90933 106.396 9.568C106.535 9.22667 106.604 8.82133 106.604 8.352V4H107.884V12H106.764L106.684 10.784C106.407 11.264 106.028 11.616 105.548 11.84C105.079 12.0533 104.524 12.16 103.884 12.16ZM110.863 12V4H111.983L112.095 5.792L111.887 5.616C112.058 5.18933 112.287 4.848 112.575 4.592C112.863 4.32533 113.194 4.13333 113.567 4.016C113.951 3.89867 114.346 3.84 114.751 3.84C115.327 3.84 115.85 3.952 116.319 4.176C116.788 4.38933 117.162 4.72 117.439 5.168C117.727 5.616 117.871 6.18667 117.871 6.88V12H116.591V7.328C116.591 6.44267 116.399 5.82933 116.015 5.488C115.642 5.136 115.178 4.96 114.623 4.96C114.239 4.96 113.855 5.05067 113.471 5.232C113.087 5.41333 112.767 5.70667 112.511 6.112C112.266 6.51733 112.143 7.06133 112.143 7.744V12H110.863ZM122.548 1.728V9.792C122.548 10.1867 122.66 10.48 122.884 10.672C123.108 10.864 123.396 10.96 123.748 10.96C124.057 10.96 124.324 10.9067 124.548 10.8C124.772 10.6933 124.975 10.5493 125.156 10.368L125.604 11.44C125.359 11.664 125.065 11.84 124.724 11.968C124.393 12.096 124.009 12.16 123.572 12.16C123.167 12.16 122.788 12.0907 122.436 11.952C122.084 11.8027 121.801 11.5733 121.588 11.264C121.385 10.944 121.279 10.528 121.268 10.016V2.08L122.548 1.728ZM125.46 4V5.104H119.668V4H125.46Z" fill="#213F7D"/>
</svg>
