<svg width="95" height="13" viewBox="0 0 95 13" fill="none" xmlns="http://www.w3.org/2000/svg">
<path d="M5.12 1.28C6.048 1.28 6.848 1.472 7.52 1.856C8.192 2.22933 8.752 2.784 9.2 3.52L8.128 4.352C7.73333 3.66933 7.28533 3.18933 6.784 2.912C6.29333 2.624 5.696 2.48 4.992 2.48C4.42667 2.48 3.95733 2.56 3.584 2.72C3.22133 2.88 2.95467 3.09333 2.784 3.36C2.61333 3.616 2.528 3.90933 2.528 4.24C2.528 4.61333 2.64533 4.944 2.88 5.232C3.11467 5.50933 3.584 5.728 4.288 5.888L6.576 6.4C7.58933 6.624 8.29333 6.96533 8.688 7.424C9.09333 7.872 9.296 8.432 9.296 9.104C9.296 9.70133 9.12533 10.2347 8.784 10.704C8.45333 11.1627 7.984 11.52 7.376 11.776C6.768 12.032 6.05333 12.16 5.232 12.16C4.464 12.16 3.78667 12.0587 3.2 11.856C2.624 11.6427 2.128 11.36 1.712 11.008C1.296 10.656 0.954667 10.2613 0.688 9.824L1.808 8.912C2.01067 9.31733 2.272 9.67467 2.592 9.984C2.912 10.2933 3.296 10.5333 3.744 10.704C4.20267 10.8747 4.72533 10.96 5.312 10.96C5.856 10.96 6.32533 10.896 6.72 10.768C7.12533 10.6293 7.43467 10.432 7.648 10.176C7.86133 9.90933 7.968 9.58933 7.968 9.216C7.968 8.87467 7.856 8.57067 7.632 8.304C7.408 8.02667 6.98667 7.81867 6.368 7.68L3.888 7.12C3.23733 6.97067 2.70933 6.768 2.304 6.512C1.90933 6.24533 1.62133 5.936 1.44 5.584C1.26933 5.22133 1.184 4.832 1.184 4.416C1.184 3.85067 1.33867 3.33333 1.648 2.864C1.968 2.384 2.42133 2 3.008 1.712C3.60533 1.424 4.30933 1.28 5.12 1.28ZM15.082 12.16C14.3247 12.16 13.6473 11.9947 13.05 11.664C12.4633 11.3333 12.0047 10.8587 11.674 10.24C11.3433 9.61067 11.178 8.864 11.178 8C11.178 7.136 11.3433 6.39467 11.674 5.776C12.0047 5.14667 12.458 4.66667 13.034 4.336C13.61 4.00533 14.266 3.84 15.002 3.84C15.7487 3.84 16.3833 4 16.906 4.32C17.4393 4.64 17.8447 5.07733 18.122 5.632C18.3993 6.176 18.538 6.78933 18.538 7.472C18.538 7.65333 18.5327 7.81867 18.522 7.968C18.5113 8.11733 18.4953 8.25067 18.474 8.368H12.01V7.232H17.914L17.258 7.36C17.258 6.592 17.0447 6 16.618 5.584C16.202 5.168 15.6527 4.96 14.97 4.96C14.4473 4.96 13.994 5.08267 13.61 5.328C13.2367 5.56267 12.9433 5.90933 12.73 6.368C12.5273 6.816 12.426 7.36 12.426 8C12.426 8.62933 12.5327 9.17333 12.746 9.632C12.9593 10.0907 13.258 10.4427 13.642 10.688C14.0367 10.9227 14.506 11.04 15.05 11.04C15.6367 11.04 16.1113 10.928 16.474 10.704C16.8473 10.48 17.146 10.176 17.37 9.792L18.378 10.384C18.1753 10.7467 17.914 11.0613 17.594 11.328C17.2847 11.5947 16.9167 11.8027 16.49 11.952C16.074 12.0907 15.6047 12.16 15.082 12.16ZM22.626 1.728V9.792C22.626 10.1867 22.738 10.48 22.962 10.672C23.186 10.864 23.474 10.96 23.826 10.96C24.1353 10.96 24.402 10.9067 24.626 10.8C24.85 10.6933 25.0527 10.5493 25.234 10.368L25.682 11.44C25.4367 11.664 25.1433 11.84 24.802 11.968C24.4713 12.096 24.0873 12.16 23.65 12.16C23.2447 12.16 22.866 12.0907 22.514 11.952C22.162 11.8027 21.8793 11.5733 21.666 11.264C21.4633 10.944 21.3567 10.528 21.346 10.016V2.08L22.626 1.728ZM25.538 4V5.104H19.746V4H25.538ZM28.2979 1.728V9.792C28.2979 10.1867 28.4099 10.48 28.6339 10.672C28.8579 10.864 29.1459 10.96 29.4979 10.96C29.8072 10.96 30.0739 10.9067 30.2979 10.8C30.5219 10.6933 30.7245 10.5493 30.9059 10.368L31.3539 11.44C31.1085 11.664 30.8152 11.84 30.4739 11.968C30.1432 12.096 29.7592 12.16 29.3219 12.16C28.9165 12.16 28.5379 12.0907 28.1859 11.952C27.8339 11.8027 27.5512 11.5733 27.3379 11.264C27.1352 10.944 27.0285 10.528 27.0179 10.016V2.08L28.2979 1.728ZM31.2099 4V5.104H25.4179V4H31.2099ZM34.329 0.32V9.968C34.329 10.3733 34.4037 10.656 34.553 10.816C34.7023 10.9653 34.9423 11.04 35.273 11.04C35.4863 11.04 35.6623 11.024 35.801 10.992C35.9397 10.96 36.1263 10.9013 36.361 10.816L36.153 11.936C35.9823 12.0107 35.7957 12.064 35.593 12.096C35.3903 12.1387 35.1823 12.16 34.969 12.16C34.3183 12.16 33.833 11.984 33.513 11.632C33.2037 11.28 33.049 10.7413 33.049 10.016V0.32H34.329ZM41.3476 12.16C40.5903 12.16 39.913 11.9947 39.3156 11.664C38.729 11.3333 38.2703 10.8587 37.9396 10.24C37.609 9.61067 37.4436 8.864 37.4436 8C37.4436 7.136 37.609 6.39467 37.9396 5.776C38.2703 5.14667 38.7236 4.66667 39.2996 4.336C39.8756 4.00533 40.5316 3.84 41.2676 3.84C42.0143 3.84 42.649 4 43.1716 4.32C43.705 4.64 44.1103 5.07733 44.3876 5.632C44.665 6.176 44.8036 6.78933 44.8036 7.472C44.8036 7.65333 44.7983 7.81867 44.7876 7.968C44.777 8.11733 44.761 8.25067 44.7396 8.368H38.2756V7.232H44.1796L43.5236 7.36C43.5236 6.592 43.3103 6 42.8836 5.584C42.4676 5.168 41.9183 4.96 41.2356 4.96C40.713 4.96 40.2596 5.08267 39.8756 5.328C39.5023 5.56267 39.209 5.90933 38.9956 6.368C38.793 6.816 38.6916 7.36 38.6916 8C38.6916 8.62933 38.7983 9.17333 39.0116 9.632C39.225 10.0907 39.5236 10.4427 39.9076 10.688C40.3023 10.9227 40.7716 11.04 41.3156 11.04C41.9023 11.04 42.377 10.928 42.7396 10.704C43.113 10.48 43.4116 10.176 43.6356 9.792L44.6436 10.384C44.441 10.7467 44.1796 11.0613 43.8596 11.328C43.5503 11.5947 43.1823 11.8027 42.7556 11.952C42.3396 12.0907 41.8703 12.16 41.3476 12.16ZM47.238 12V4H48.358L48.438 5.248C48.726 4.75733 49.0993 4.4 49.558 4.176C50.0273 3.952 50.5073 3.84 50.998 3.84C51.5633 3.84 52.0967 3.968 52.598 4.224C53.0993 4.48 53.4833 4.87467 53.75 5.408C53.9207 5.04533 54.1607 4.752 54.47 4.528C54.7793 4.29333 55.1153 4.12267 55.478 4.016C55.8513 3.89867 56.2033 3.84 56.534 3.84C57.046 3.84 57.5313 3.94667 57.99 4.16C58.4593 4.37333 58.8433 4.704 59.142 5.152C59.4407 5.6 59.59 6.176 59.59 6.88V12H58.31V7.008C58.31 6.28267 58.1287 5.76 57.766 5.44C57.4033 5.12 56.9553 4.96 56.422 4.96C56.006 4.96 55.6167 5.06133 55.254 5.264C54.8913 5.46667 54.598 5.76533 54.374 6.16C54.1607 6.55467 54.054 7.04 54.054 7.616V12H52.774V7.008C52.774 6.28267 52.5927 5.76 52.23 5.44C51.8673 5.12 51.4193 4.96 50.886 4.96C50.534 4.96 50.1713 5.056 49.798 5.248C49.4353 5.42933 49.1313 5.72267 48.886 6.128C48.6407 6.53333 48.518 7.06667 48.518 7.728V12H47.238ZM65.832 12.16C65.0747 12.16 64.3973 11.9947 63.8 11.664C63.2133 11.3333 62.7547 10.8587 62.424 10.24C62.0933 9.61067 61.928 8.864 61.928 8C61.928 7.136 62.0933 6.39467 62.424 5.776C62.7547 5.14667 63.208 4.66667 63.784 4.336C64.36 4.00533 65.016 3.84 65.752 3.84C66.4987 3.84 67.1333 4 67.656 4.32C68.1893 4.64 68.5947 5.07733 68.872 5.632C69.1493 6.176 69.288 6.78933 69.288 7.472C69.288 7.65333 69.2827 7.81867 69.272 7.968C69.2613 8.11733 69.2453 8.25067 69.224 8.368H62.76V7.232H68.664L68.008 7.36C68.008 6.592 67.7947 6 67.368 5.584C66.952 5.168 66.4027 4.96 65.72 4.96C65.1973 4.96 64.744 5.08267 64.36 5.328C63.9867 5.56267 63.6933 5.90933 63.48 6.368C63.2773 6.816 63.176 7.36 63.176 8C63.176 8.62933 63.2827 9.17333 63.496 9.632C63.7093 10.0907 64.008 10.4427 64.392 10.688C64.7867 10.9227 65.256 11.04 65.8 11.04C66.3867 11.04 66.8613 10.928 67.224 10.704C67.5973 10.48 67.896 10.176 68.12 9.792L69.128 10.384C68.9253 10.7467 68.664 11.0613 68.344 11.328C68.0347 11.5947 67.6667 11.8027 67.24 11.952C66.824 12.0907 66.3547 12.16 65.832 12.16ZM71.7224 12V4H72.8424L72.9544 5.792L72.7464 5.616C72.917 5.18933 73.1464 4.848 73.4344 4.592C73.7224 4.32533 74.053 4.13333 74.4264 4.016C74.8104 3.89867 75.205 3.84 75.6104 3.84C76.1864 3.84 76.709 3.952 77.1784 4.176C77.6477 4.38933 78.021 4.72 78.2984 5.168C78.5864 5.616 78.7304 6.18667 78.7304 6.88V12H77.4504V7.328C77.4504 6.44267 77.2584 5.82933 76.8744 5.488C76.501 5.136 76.037 4.96 75.4824 4.96C75.0984 4.96 74.7144 5.05067 74.3304 5.232C73.9464 5.41333 73.6264 5.70667 73.3704 6.112C73.125 6.51733 73.0024 7.06133 73.0024 7.744V12H71.7224ZM83.4073 1.728V9.792C83.4073 10.1867 83.5193 10.48 83.7433 10.672C83.9673 10.864 84.2553 10.96 84.6073 10.96C84.9166 10.96 85.1833 10.9067 85.4073 10.8C85.6313 10.6933 85.8339 10.5493 86.0153 10.368L86.4633 11.44C86.2179 11.664 85.9246 11.84 85.5833 11.968C85.2526 12.096 84.8686 12.16 84.4313 12.16C84.0259 12.16 83.6473 12.0907 83.2953 11.952C82.9433 11.8027 82.6606 11.5733 82.4473 11.264C82.2446 10.944 82.1379 10.528 82.1273 10.016V2.08L83.4073 1.728ZM86.3193 4V5.104H80.5273V4H86.3193ZM91.1024 12.16C90.3237 12.16 89.6037 11.9947 88.9424 11.664C88.2917 11.3333 87.7904 10.864 87.4384 10.256L88.5264 9.472C88.761 9.96267 89.1024 10.3467 89.5504 10.624C90.009 10.9013 90.5584 11.04 91.1984 11.04C91.7637 11.04 92.2064 10.9333 92.5264 10.72C92.8464 10.496 93.0064 10.208 93.0064 9.856C93.0064 9.632 92.9317 9.42933 92.7824 9.248C92.6437 9.056 92.3717 8.91733 91.9664 8.832L90.0464 8.432C89.2677 8.272 88.7077 8.00533 88.3664 7.632C88.0357 7.25867 87.8704 6.79467 87.8704 6.24C87.8704 5.80267 87.993 5.40267 88.2384 5.04C88.4944 4.67733 88.8517 4.38933 89.3104 4.176C89.7797 3.952 90.329 3.84 90.9584 3.84C91.7477 3.84 92.4144 3.99467 92.9584 4.304C93.5024 4.61333 93.9077 5.05067 94.1744 5.616L93.1024 6.32C92.921 5.85067 92.6277 5.50933 92.2224 5.296C91.817 5.072 91.3957 4.96 90.9584 4.96C90.5744 4.96 90.2437 5.01333 89.9664 5.12C89.6997 5.22667 89.4917 5.376 89.3424 5.568C89.2037 5.74933 89.1344 5.95733 89.1344 6.192C89.1344 6.42667 89.2144 6.64533 89.3744 6.848C89.5344 7.04 89.833 7.17867 90.2704 7.264L92.2704 7.68C93.017 7.82933 93.5397 8.07467 93.8384 8.416C94.137 8.75733 94.2864 9.17333 94.2864 9.664C94.2864 10.1653 94.153 10.608 93.8864 10.992C93.6197 11.3653 93.2464 11.6533 92.7664 11.856C92.2864 12.0587 91.7317 12.16 91.1024 12.16Z" fill="#213F7D"/>
</svg>
