<svg width="59" height="10" viewBox="0 0 59 10" fill="none" xmlns="http://www.w3.org/2000/svg">
<path d="M3.876 0.96C4.588 0.96 5.204 1.096 5.724 1.368C6.244 1.632 6.684 2.024 7.044 2.544L6.18 3.372C5.876 2.908 5.532 2.576 5.148 2.376C4.772 2.168 4.324 2.064 3.804 2.064C3.42 2.064 3.104 2.116 2.856 2.22C2.608 2.324 2.424 2.464 2.304 2.64C2.192 2.808 2.136 3 2.136 3.216C2.136 3.464 2.22 3.68 2.388 3.864C2.564 4.048 2.888 4.192 3.36 4.296L4.968 4.656C5.736 4.824 6.28 5.08 6.6 5.424C6.92 5.768 7.08 6.204 7.08 6.732C7.08 7.22 6.948 7.644 6.684 8.004C6.42 8.364 6.052 8.64 5.58 8.832C5.116 9.024 4.568 9.12 3.936 9.12C3.376 9.12 2.872 9.048 2.424 8.904C1.976 8.76 1.584 8.564 1.248 8.316C0.912 8.068 0.636 7.784 0.42 7.464L1.308 6.576C1.476 6.856 1.688 7.108 1.944 7.332C2.2 7.548 2.496 7.716 2.832 7.836C3.176 7.956 3.556 8.016 3.972 8.016C4.34 8.016 4.656 7.972 4.92 7.884C5.192 7.796 5.396 7.668 5.532 7.5C5.676 7.324 5.748 7.116 5.748 6.876C5.748 6.644 5.668 6.44 5.508 6.264C5.356 6.088 5.068 5.952 4.644 5.856L2.904 5.46C2.424 5.356 2.028 5.208 1.716 5.016C1.404 4.824 1.172 4.592 1.02 4.32C0.868 4.04 0.792 3.728 0.792 3.384C0.792 2.936 0.912 2.532 1.152 2.172C1.4 1.804 1.756 1.512 2.22 1.296C2.684 1.072 3.236 0.96 3.876 0.96ZM8.87522 9V1.08H14.6112V2.184H10.1592V4.464H13.6392V5.544H10.1592V7.896H14.7792V9H8.87522ZM22.3961 1.08V2.184H19.6841V9H18.4001V2.184H15.6881V1.08H22.3961ZM29.8258 1.08V2.184H27.1138V9H25.8298V2.184H23.1178V1.08H29.8258ZM32.6475 1.08V9H31.3635V1.08H32.6475ZM41.4883 1.08V9H39.9643L36.9043 4.008L36.1363 2.604H36.1243L36.1723 3.888V9H34.9963V1.08H36.5083L39.5563 6.06L40.3363 7.488H40.3483L40.3003 6.192V1.08H41.4883ZM47.0483 9.12C46.3043 9.12 45.6603 8.956 45.1163 8.628C44.5723 8.3 44.1483 7.836 43.8443 7.236C43.5403 6.628 43.3883 5.896 43.3883 5.04C43.3883 4.2 43.5443 3.476 43.8563 2.868C44.1763 2.26 44.6243 1.792 45.2003 1.464C45.7843 1.128 46.4523 0.96 47.2043 0.96C48.0283 0.96 48.6923 1.112 49.1963 1.416C49.7083 1.72 50.1163 2.192 50.4203 2.832L49.2323 3.396C49.0803 2.956 48.8283 2.628 48.4763 2.412C48.1323 2.188 47.7123 2.076 47.2163 2.076C46.7203 2.076 46.2843 2.192 45.9083 2.424C45.5403 2.656 45.2523 2.996 45.0443 3.444C44.8363 3.884 44.7323 4.416 44.7323 5.04C44.7323 5.672 44.8243 6.212 45.0083 6.66C45.1923 7.1 45.4683 7.436 45.8363 7.668C46.2123 7.9 46.6723 8.016 47.2163 8.016C47.5123 8.016 47.7883 7.98 48.0443 7.908C48.3003 7.828 48.5243 7.716 48.7162 7.572C48.9083 7.42 49.0563 7.232 49.1603 7.008C49.2723 6.776 49.3283 6.504 49.3283 6.192V5.964H47.0243V4.92H50.4683V9H49.5083L49.4362 7.404L49.6763 7.524C49.4843 8.028 49.1643 8.42 48.7162 8.7C48.2763 8.98 47.7203 9.12 47.0483 9.12ZM55.2158 0.96C55.9278 0.96 56.5438 1.096 57.0638 1.368C57.5838 1.632 58.0238 2.024 58.3838 2.544L57.5198 3.372C57.2158 2.908 56.8718 2.576 56.4878 2.376C56.1118 2.168 55.6638 2.064 55.1438 2.064C54.7598 2.064 54.4438 2.116 54.1958 2.22C53.9478 2.324 53.7638 2.464 53.6438 2.64C53.5318 2.808 53.4758 3 53.4758 3.216C53.4758 3.464 53.5598 3.68 53.7278 3.864C53.9038 4.048 54.2278 4.192 54.6998 4.296L56.3078 4.656C57.0758 4.824 57.6198 5.08 57.9398 5.424C58.2598 5.768 58.4198 6.204 58.4198 6.732C58.4198 7.22 58.2878 7.644 58.0238 8.004C57.7598 8.364 57.3918 8.64 56.9198 8.832C56.4558 9.024 55.9078 9.12 55.2758 9.12C54.7158 9.12 54.2118 9.048 53.7638 8.904C53.3158 8.76 52.9238 8.564 52.5878 8.316C52.2518 8.068 51.9758 7.784 51.7598 7.464L52.6478 6.576C52.8158 6.856 53.0278 7.108 53.2838 7.332C53.5398 7.548 53.8358 7.716 54.1718 7.836C54.5158 7.956 54.8958 8.016 55.3118 8.016C55.6798 8.016 55.9958 7.972 56.2598 7.884C56.5318 7.796 56.7358 7.668 56.8718 7.5C57.0158 7.324 57.0878 7.116 57.0878 6.876C57.0878 6.644 57.0078 6.44 56.8478 6.264C56.6958 6.088 56.4078 5.952 55.9838 5.856L54.2438 5.46C53.7638 5.356 53.3678 5.208 53.0558 5.016C52.7438 4.824 52.5118 4.592 52.3598 4.32C52.2078 4.04 52.1318 3.728 52.1318 3.384C52.1318 2.936 52.2518 2.532 52.4918 2.172C52.7398 1.804 53.0958 1.512 53.5598 1.296C54.0238 1.072 54.5758 0.96 55.2158 0.96Z" fill="#545F7D"/>
</svg>
