<svg width="99" height="13" viewBox="0 0 99 13" fill="none" xmlns="http://www.w3.org/2000/svg">
<path d="M9.152 1.44V2.64H5.472V12H4.192V2.64H0.512V1.44H9.152ZM10.0349 12V4H11.0749L11.2509 5.312C11.4749 4.82133 11.8002 4.45333 12.2269 4.208C12.6642 3.96267 13.1922 3.84 13.8109 3.84C13.9495 3.84 14.0989 3.85067 14.2589 3.872C14.4295 3.89333 14.5735 3.936 14.6909 4L14.4669 5.168C14.3495 5.12533 14.2215 5.09333 14.0829 5.072C13.9442 5.05067 13.7469 5.04 13.4909 5.04C13.1602 5.04 12.8242 5.136 12.4829 5.328C12.1522 5.52 11.8749 5.81333 11.6509 6.208C11.4269 6.592 11.3149 7.08267 11.3149 7.68V12H10.0349ZM21.0194 6.832C21.0194 6.23467 20.8594 5.776 20.5394 5.456C20.2194 5.12533 19.766 4.96 19.1794 4.96C18.6247 4.96 18.1554 5.08267 17.7714 5.328C17.3874 5.56267 17.1047 5.94667 16.9234 6.48L15.8834 5.84C16.0967 5.24267 16.4914 4.76267 17.0674 4.4C17.6434 4.02667 18.358 3.84 19.2114 3.84C19.7874 3.84 20.31 3.94133 20.7794 4.144C21.2487 4.336 21.6167 4.63467 21.8834 5.04C22.1607 5.43467 22.2994 5.94667 22.2994 6.576V10.448C22.2994 10.832 22.502 11.024 22.9074 11.024C23.11 11.024 23.3074 10.9973 23.4994 10.944L23.4354 11.952C23.222 12.0587 22.9447 12.112 22.6034 12.112C22.294 12.112 22.0167 12.0533 21.7714 11.936C21.526 11.8187 21.334 11.6427 21.1954 11.408C21.0567 11.1627 20.9874 10.8587 20.9874 10.496V10.336L21.3074 10.384C21.1794 10.8 20.9607 11.1413 20.6514 11.408C20.342 11.664 19.9954 11.856 19.6114 11.984C19.2274 12.1013 18.8487 12.16 18.4754 12.16C18.006 12.16 17.5687 12.08 17.1634 11.92C16.758 11.76 16.4327 11.52 16.1874 11.2C15.9527 10.8693 15.8354 10.464 15.8354 9.984C15.8354 9.38667 16.0327 8.896 16.4274 8.512C16.8327 8.11733 17.3927 7.85067 18.1074 7.712L21.2754 7.088V8.144L18.6994 8.672C18.1767 8.77867 17.7874 8.928 17.5314 9.12C17.2754 9.312 17.1474 9.57867 17.1474 9.92C17.1474 10.2507 17.2754 10.5227 17.5314 10.736C17.798 10.9387 18.1714 11.04 18.6514 11.04C18.9607 11.04 19.254 11.0027 19.5314 10.928C19.8194 10.8427 20.0754 10.72 20.2994 10.56C20.5234 10.3893 20.6994 10.1813 20.8274 9.936C20.9554 9.68 21.0194 9.38133 21.0194 9.04V6.832ZM25.4099 12V4H26.5299L26.6419 5.792L26.4339 5.616C26.6045 5.18933 26.8339 4.848 27.1219 4.592C27.4099 4.32533 27.7405 4.13333 28.1139 4.016C28.4979 3.89867 28.8925 3.84 29.2979 3.84C29.8739 3.84 30.3965 3.952 30.8659 4.176C31.3352 4.38933 31.7085 4.72 31.9859 5.168C32.2739 5.616 32.4179 6.18667 32.4179 6.88V12H31.1379V7.328C31.1379 6.44267 30.9459 5.82933 30.5619 5.488C30.1885 5.136 29.7245 4.96 29.1699 4.96C28.7859 4.96 28.4019 5.05067 28.0179 5.232C27.6339 5.41333 27.3139 5.70667 27.0579 6.112C26.8125 6.51733 26.6899 7.06133 26.6899 7.744V12H25.4099ZM38.1961 12.16C37.4175 12.16 36.6975 11.9947 36.0361 11.664C35.3855 11.3333 34.8841 10.864 34.5321 10.256L35.6201 9.472C35.8548 9.96267 36.1961 10.3467 36.6441 10.624C37.1028 10.9013 37.6521 11.04 38.2921 11.04C38.8575 11.04 39.3001 10.9333 39.6201 10.72C39.9401 10.496 40.1001 10.208 40.1001 9.856C40.1001 9.632 40.0255 9.42933 39.8761 9.248C39.7375 9.056 39.4655 8.91733 39.0601 8.832L37.1401 8.432C36.3615 8.272 35.8015 8.00533 35.4601 7.632C35.1295 7.25867 34.9641 6.79467 34.9641 6.24C34.9641 5.80267 35.0868 5.40267 35.3321 5.04C35.5881 4.67733 35.9455 4.38933 36.4041 4.176C36.8735 3.952 37.4228 3.84 38.0521 3.84C38.8415 3.84 39.5081 3.99467 40.0521 4.304C40.5961 4.61333 41.0015 5.05067 41.2681 5.616L40.1961 6.32C40.0148 5.85067 39.7215 5.50933 39.3161 5.296C38.9108 5.072 38.4895 4.96 38.0521 4.96C37.6681 4.96 37.3375 5.01333 37.0601 5.12C36.7935 5.22667 36.5855 5.376 36.4361 5.568C36.2975 5.74933 36.2281 5.95733 36.2281 6.192C36.2281 6.42667 36.3081 6.64533 36.4681 6.848C36.6281 7.04 36.9268 7.17867 37.3641 7.264L39.3641 7.68C40.1108 7.82933 40.6335 8.07467 40.9321 8.416C41.2308 8.75733 41.3801 9.17333 41.3801 9.664C41.3801 10.1653 41.2468 10.608 40.9801 10.992C40.7135 11.3653 40.3401 11.6533 39.8601 11.856C39.3801 12.0587 38.8255 12.16 38.1961 12.16ZM48.4256 6.832C48.4256 6.23467 48.2656 5.776 47.9456 5.456C47.6256 5.12533 47.1723 4.96 46.5856 4.96C46.031 4.96 45.5616 5.08267 45.1776 5.328C44.7936 5.56267 44.511 5.94667 44.3296 6.48L43.2896 5.84C43.503 5.24267 43.8976 4.76267 44.4736 4.4C45.0496 4.02667 45.7643 3.84 46.6176 3.84C47.1936 3.84 47.7163 3.94133 48.1856 4.144C48.655 4.336 49.023 4.63467 49.2896 5.04C49.567 5.43467 49.7056 5.94667 49.7056 6.576V10.448C49.7056 10.832 49.9083 11.024 50.3136 11.024C50.5163 11.024 50.7136 10.9973 50.9056 10.944L50.8416 11.952C50.6283 12.0587 50.351 12.112 50.0096 12.112C49.7003 12.112 49.423 12.0533 49.1776 11.936C48.9323 11.8187 48.7403 11.6427 48.6016 11.408C48.463 11.1627 48.3936 10.8587 48.3936 10.496V10.336L48.7136 10.384C48.5856 10.8 48.367 11.1413 48.0576 11.408C47.7483 11.664 47.4016 11.856 47.0176 11.984C46.6336 12.1013 46.255 12.16 45.8816 12.16C45.4123 12.16 44.975 12.08 44.5696 11.92C44.1643 11.76 43.839 11.52 43.5936 11.2C43.359 10.8693 43.2416 10.464 43.2416 9.984C43.2416 9.38667 43.439 8.896 43.8336 8.512C44.239 8.11733 44.799 7.85067 45.5136 7.712L48.6816 7.088V8.144L46.1056 8.672C45.583 8.77867 45.1936 8.928 44.9376 9.12C44.6816 9.312 44.5536 9.57867 44.5536 9.92C44.5536 10.2507 44.6816 10.5227 44.9376 10.736C45.2043 10.9387 45.5776 11.04 46.0576 11.04C46.367 11.04 46.6603 11.0027 46.9376 10.928C47.2256 10.8427 47.4816 10.72 47.7056 10.56C47.9296 10.3893 48.1056 10.1813 48.2336 9.936C48.3616 9.68 48.4256 9.38133 48.4256 9.04V6.832ZM56.1281 3.84C56.6828 3.84 57.1681 3.92533 57.5841 4.096C58.0108 4.26667 58.3788 4.512 58.6881 4.832C58.9975 5.152 59.2481 5.53067 59.4401 5.968L58.2241 6.544C58.0535 6.032 57.7921 5.64267 57.4401 5.376C57.0988 5.09867 56.6508 4.96 56.0961 4.96C55.5628 4.96 55.1041 5.08267 54.7201 5.328C54.3361 5.56267 54.0428 5.90933 53.8401 6.368C53.6375 6.816 53.5361 7.36 53.5361 8C53.5361 8.62933 53.6375 9.17333 53.8401 9.632C54.0428 10.0907 54.3361 10.4427 54.7201 10.688C55.1041 10.9227 55.5628 11.04 56.0961 11.04C56.5121 11.04 56.8695 10.976 57.1681 10.848C57.4775 10.72 57.7281 10.5333 57.9201 10.288C58.1228 10.0427 58.2615 9.744 58.3361 9.392L59.5201 9.808C59.3388 10.2987 59.0881 10.72 58.7681 11.072C58.4588 11.424 58.0801 11.696 57.6321 11.888C57.1948 12.0693 56.6935 12.16 56.1281 12.16C55.3815 12.16 54.7148 11.9947 54.1281 11.664C53.5415 11.3333 53.0828 10.8587 52.7521 10.24C52.4215 9.61067 52.2561 8.864 52.2561 8C52.2561 7.136 52.4215 6.39467 52.7521 5.776C53.0828 5.14667 53.5415 4.66667 54.1281 4.336C54.7148 4.00533 55.3815 3.84 56.1281 3.84ZM63.6573 1.728V9.792C63.6573 10.1867 63.7693 10.48 63.9933 10.672C64.2173 10.864 64.5053 10.96 64.8573 10.96C65.1666 10.96 65.4333 10.9067 65.6573 10.8C65.8813 10.6933 66.0839 10.5493 66.2653 10.368L66.7133 11.44C66.4679 11.664 66.1746 11.84 65.8333 11.968C65.5026 12.096 65.1186 12.16 64.6813 12.16C64.2759 12.16 63.8973 12.0907 63.5453 11.952C63.1933 11.8027 62.9106 11.5733 62.6973 11.264C62.4946 10.944 62.3879 10.528 62.3773 10.016V2.08L63.6573 1.728ZM66.5693 4V5.104H60.7773V4H66.5693ZM69.1124 2.464C68.8244 2.464 68.5897 2.37867 68.4084 2.208C68.2377 2.02667 68.1524 1.792 68.1524 1.504C68.1524 1.216 68.2377 0.986666 68.4084 0.815999C68.5897 0.634666 68.8244 0.544 69.1124 0.544C69.4004 0.544 69.6297 0.634666 69.8004 0.815999C69.9817 0.986666 70.0724 1.216 70.0724 1.504C70.0724 1.792 69.9817 2.02667 69.8004 2.208C69.6297 2.37867 69.4004 2.464 69.1124 2.464ZM69.7524 4V12H68.4724V4H69.7524ZM76.0344 3.84C76.7917 3.84 77.4584 4.00533 78.0344 4.336C78.621 4.66667 79.0797 5.14667 79.4104 5.776C79.741 6.39467 79.9064 7.136 79.9064 8C79.9064 8.864 79.741 9.61067 79.4104 10.24C79.0797 10.8587 78.621 11.3333 78.0344 11.664C77.4584 11.9947 76.7917 12.16 76.0344 12.16C75.2877 12.16 74.621 11.9947 74.0344 11.664C73.4477 11.3333 72.989 10.8587 72.6584 10.24C72.3277 9.61067 72.1624 8.864 72.1624 8C72.1624 7.136 72.3277 6.39467 72.6584 5.776C72.989 5.14667 73.4477 4.66667 74.0344 4.336C74.621 4.00533 75.2877 3.84 76.0344 3.84ZM76.0344 4.944C75.4904 4.944 75.0264 5.06667 74.6424 5.312C74.2584 5.55733 73.9597 5.90933 73.7464 6.368C73.5437 6.816 73.4424 7.36 73.4424 8C73.4424 8.62933 73.5437 9.17333 73.7464 9.632C73.9597 10.0907 74.2584 10.4427 74.6424 10.688C75.0264 10.9333 75.4904 11.056 76.0344 11.056C76.5784 11.056 77.0424 10.9333 77.4264 10.688C77.8104 10.4427 78.1037 10.0907 78.3064 9.632C78.5197 9.17333 78.6264 8.62933 78.6264 8C78.6264 7.36 78.5197 6.816 78.3064 6.368C78.1037 5.90933 77.8104 5.55733 77.4264 5.312C77.0424 5.06667 76.5784 4.944 76.0344 4.944ZM82.3161 12V4H83.4361L83.5481 5.792L83.3401 5.616C83.5108 5.18933 83.7401 4.848 84.0281 4.592C84.3161 4.32533 84.6468 4.13333 85.0201 4.016C85.4041 3.89867 85.7988 3.84 86.2041 3.84C86.7801 3.84 87.3028 3.952 87.7721 4.176C88.2415 4.38933 88.6148 4.72 88.8921 5.168C89.1801 5.616 89.3241 6.18667 89.3241 6.88V12H88.0441V7.328C88.0441 6.44267 87.8521 5.82933 87.4681 5.488C87.0948 5.136 86.6308 4.96 86.0761 4.96C85.6921 4.96 85.3081 5.05067 84.9241 5.232C84.5401 5.41333 84.2201 5.70667 83.9641 6.112C83.7188 6.51733 83.5961 7.06133 83.5961 7.744V12H82.3161ZM95.1024 12.16C94.3237 12.16 93.6037 11.9947 92.9424 11.664C92.2917 11.3333 91.7904 10.864 91.4384 10.256L92.5264 9.472C92.761 9.96267 93.1024 10.3467 93.5504 10.624C94.009 10.9013 94.5584 11.04 95.1984 11.04C95.7637 11.04 96.2064 10.9333 96.5264 10.72C96.8464 10.496 97.0064 10.208 97.0064 9.856C97.0064 9.632 96.9317 9.42933 96.7824 9.248C96.6437 9.056 96.3717 8.91733 95.9664 8.832L94.0464 8.432C93.2677 8.272 92.7077 8.00533 92.3664 7.632C92.0357 7.25867 91.8704 6.79467 91.8704 6.24C91.8704 5.80267 91.993 5.40267 92.2384 5.04C92.4944 4.67733 92.8517 4.38933 93.3104 4.176C93.7797 3.952 94.329 3.84 94.9584 3.84C95.7477 3.84 96.4144 3.99467 96.9584 4.304C97.5024 4.61333 97.9077 5.05067 98.1744 5.616L97.1024 6.32C96.921 5.85067 96.6277 5.50933 96.2224 5.296C95.817 5.072 95.3957 4.96 94.9584 4.96C94.5744 4.96 94.2437 5.01333 93.9664 5.12C93.6997 5.22667 93.4917 5.376 93.3424 5.568C93.2037 5.74933 93.1344 5.95733 93.1344 6.192C93.1344 6.42667 93.2144 6.64533 93.3744 6.848C93.5344 7.04 93.833 7.17867 94.2704 7.264L96.2704 7.68C97.017 7.82933 97.5397 8.07467 97.8384 8.416C98.137 8.75733 98.2864 9.17333 98.2864 9.664C98.2864 10.1653 98.153 10.608 97.8864 10.992C97.6197 11.3653 97.2464 11.6533 96.7664 11.856C96.2864 12.0587 95.7317 12.16 95.1024 12.16Z" fill="#213F7D"/>
</svg>
