<svg width="42" height="12" viewBox="0 0 42 12" fill="none" xmlns="http://www.w3.org/2000/svg">
<path d="M8.808 0.44V7.064C8.808 8.41867 8.45067 9.44267 7.736 10.136C7.02133 10.8187 5.99733 11.16 4.664 11.16C3.34133 11.16 2.31733 10.8187 1.592 10.136C0.877333 9.44267 0.52 8.41867 0.52 7.064V0.44H1.8V6.744C1.8 7.84267 2.02933 8.65333 2.488 9.176C2.95733 9.69867 3.68267 9.96 4.664 9.96C5.64533 9.96 6.36533 9.69867 6.824 9.176C7.29333 8.65333 7.528 7.84267 7.528 6.744V0.44H8.808ZM14.5555 11.16C13.7768 11.16 13.0568 10.9947 12.3955 10.664C11.7448 10.3333 11.2435 9.864 10.8915 9.256L11.9795 8.472C12.2142 8.96267 12.5555 9.34667 13.0035 9.624C13.4622 9.90133 14.0115 10.04 14.6515 10.04C15.2168 10.04 15.6595 9.93333 15.9795 9.72C16.2995 9.496 16.4595 9.208 16.4595 8.856C16.4595 8.632 16.3848 8.42933 16.2355 8.248C16.0968 8.056 15.8248 7.91733 15.4195 7.832L13.4995 7.432C12.7208 7.272 12.1608 7.00533 11.8195 6.632C11.4888 6.25867 11.3235 5.79467 11.3235 5.24C11.3235 4.80267 11.4462 4.40267 11.6915 4.04C11.9475 3.67733 12.3048 3.38933 12.7635 3.176C13.2328 2.952 13.7822 2.84 14.4115 2.84C15.2008 2.84 15.8675 2.99467 16.4115 3.304C16.9555 3.61333 17.3608 4.05067 17.6275 4.616L16.5555 5.32C16.3742 4.85067 16.0808 4.50933 15.6755 4.296C15.2702 4.072 14.8488 3.96 14.4115 3.96C14.0275 3.96 13.6968 4.01333 13.4195 4.12C13.1528 4.22667 12.9448 4.376 12.7955 4.568C12.6568 4.74933 12.5875 4.95733 12.5875 5.192C12.5875 5.42667 12.6675 5.64533 12.8275 5.848C12.9875 6.04 13.2862 6.17867 13.7235 6.264L15.7235 6.68C16.4702 6.82933 16.9928 7.07467 17.2915 7.416C17.5902 7.75733 17.7395 8.17333 17.7395 8.664C17.7395 9.16533 17.6062 9.608 17.3395 9.992C17.0728 10.3653 16.6995 10.6533 16.2195 10.856C15.7395 11.0587 15.1848 11.16 14.5555 11.16ZM23.457 11.16C22.6997 11.16 22.0223 10.9947 21.425 10.664C20.8383 10.3333 20.3797 9.85867 20.049 9.24C19.7183 8.61067 19.553 7.864 19.553 7C19.553 6.136 19.7183 5.39467 20.049 4.776C20.3797 4.14667 20.833 3.66667 21.409 3.336C21.985 3.00533 22.641 2.84 23.377 2.84C24.1237 2.84 24.7583 3 25.281 3.32C25.8143 3.64 26.2197 4.07733 26.497 4.632C26.7743 5.176 26.913 5.78933 26.913 6.472C26.913 6.65333 26.9077 6.81867 26.897 6.968C26.8863 7.11733 26.8703 7.25067 26.849 7.368H20.385V6.232H26.289L25.633 6.36C25.633 5.592 25.4197 5 24.993 4.584C24.577 4.168 24.0277 3.96 23.345 3.96C22.8223 3.96 22.369 4.08267 21.985 4.328C21.6117 4.56267 21.3183 4.90933 21.105 5.368C20.9023 5.816 20.801 6.36 20.801 7C20.801 7.62933 20.9077 8.17333 21.121 8.632C21.3343 9.09067 21.633 9.44267 22.017 9.688C22.4117 9.92267 22.881 10.04 23.425 10.04C24.0117 10.04 24.4863 9.928 24.849 9.704C25.2223 9.48 25.521 9.176 25.745 8.792L26.753 9.384C26.5503 9.74667 26.289 10.0613 25.969 10.328C25.6597 10.5947 25.2917 10.8027 24.865 10.952C24.449 11.0907 23.9797 11.16 23.457 11.16ZM29.3474 11V3H30.3874L30.5634 4.312C30.7874 3.82133 31.1127 3.45333 31.5394 3.208C31.9767 2.96267 32.5047 2.84 33.1234 2.84C33.262 2.84 33.4114 2.85067 33.5714 2.872C33.742 2.89333 33.886 2.936 34.0034 3L33.7794 4.168C33.662 4.12533 33.534 4.09333 33.3954 4.072C33.2567 4.05067 33.0594 4.04 32.8034 4.04C32.4727 4.04 32.1367 4.136 31.7954 4.328C31.4647 4.52 31.1874 4.81333 30.9634 5.208C30.7394 5.592 30.6274 6.08267 30.6274 6.68V11H29.3474ZM38.4149 11.16C37.6362 11.16 36.9162 10.9947 36.2549 10.664C35.6042 10.3333 35.1029 9.864 34.7509 9.256L35.8389 8.472C36.0735 8.96267 36.4149 9.34667 36.8629 9.624C37.3215 9.90133 37.8709 10.04 38.5109 10.04C39.0762 10.04 39.5189 9.93333 39.8389 9.72C40.1589 9.496 40.3189 9.208 40.3189 8.856C40.3189 8.632 40.2442 8.42933 40.0949 8.248C39.9562 8.056 39.6842 7.91733 39.2789 7.832L37.3589 7.432C36.5802 7.272 36.0202 7.00533 35.6789 6.632C35.3482 6.25867 35.1829 5.79467 35.1829 5.24C35.1829 4.80267 35.3055 4.40267 35.5509 4.04C35.8069 3.67733 36.1642 3.38933 36.6229 3.176C37.0922 2.952 37.6415 2.84 38.2709 2.84C39.0602 2.84 39.7269 2.99467 40.2709 3.304C40.8149 3.61333 41.2202 4.05067 41.4869 4.616L40.4149 5.32C40.2335 4.85067 39.9402 4.50933 39.5349 4.296C39.1295 4.072 38.7082 3.96 38.2709 3.96C37.8869 3.96 37.5562 4.01333 37.2789 4.12C37.0122 4.22667 36.8042 4.376 36.6549 4.568C36.5162 4.74933 36.4469 4.95733 36.4469 5.192C36.4469 5.42667 36.5269 5.64533 36.6869 5.848C36.8469 6.04 37.1455 6.17867 37.5829 6.264L39.5829 6.68C40.3295 6.82933 40.8522 7.07467 41.1509 7.416C41.4495 7.75733 41.5989 8.17333 41.5989 8.664C41.5989 9.16533 41.4655 9.608 41.1989 9.992C40.9322 10.3653 40.5589 10.6533 40.0789 10.856C39.5989 11.0587 39.0442 11.16 38.4149 11.16Z" fill="#213F7D"/>
</svg>
