<svg width="70" height="13" viewBox="0 0 70 13" fill="none" xmlns="http://www.w3.org/2000/svg">
<path d="M3.696 12L0.576 1.44H1.904L4.512 10.832L6.992 1.44H8.448L10.928 10.864L13.536 1.44H14.8L11.696 12H10.112L8.24 5.152L7.696 2.768H7.68L7.136 5.152L5.28 12H3.696ZM16.863 12V0.32H18.143V5.2C18.4203 4.72 18.7883 4.37333 19.247 4.16C19.7057 3.94667 20.207 3.84 20.751 3.84C21.327 3.84 21.8497 3.952 22.319 4.176C22.7883 4.38933 23.1617 4.72 23.439 5.168C23.727 5.616 23.871 6.18667 23.871 6.88V12H22.591V7.328C22.591 6.44267 22.399 5.82933 22.015 5.488C21.6417 5.136 21.1777 4.96 20.623 4.96C20.239 4.96 19.855 5.05067 19.471 5.232C19.087 5.41333 18.767 5.712 18.511 6.128C18.2657 6.53333 18.143 7.07733 18.143 7.76V12H16.863ZM27.4093 2.464C27.1213 2.464 26.8866 2.37867 26.7053 2.208C26.5346 2.02667 26.4493 1.792 26.4493 1.504C26.4493 1.216 26.5346 0.986666 26.7053 0.815999C26.8866 0.634666 27.1213 0.544 27.4093 0.544C27.6973 0.544 27.9266 0.634666 28.0973 0.815999C28.2786 0.986666 28.3693 1.216 28.3693 1.504C28.3693 1.792 28.2786 2.02667 28.0973 2.208C27.9266 2.37867 27.6973 2.464 27.4093 2.464ZM28.0493 4V12H26.7693V4H28.0493ZM32.9073 1.728V9.792C32.9073 10.1867 33.0193 10.48 33.2433 10.672C33.4673 10.864 33.7553 10.96 34.1073 10.96C34.4166 10.96 34.6833 10.9067 34.9073 10.8C35.1313 10.6933 35.3339 10.5493 35.5153 10.368L35.9633 11.44C35.7179 11.664 35.4246 11.84 35.0833 11.968C34.7526 12.096 34.3686 12.16 33.9313 12.16C33.5259 12.16 33.1473 12.0907 32.7953 11.952C32.4433 11.8027 32.1606 11.5733 31.9473 11.264C31.7446 10.944 31.6379 10.528 31.6273 10.016V2.08L32.9073 1.728ZM35.8193 4V5.104H30.0273V4H35.8193ZM41.0664 12.16C40.309 12.16 39.6317 11.9947 39.0344 11.664C38.4477 11.3333 37.989 10.8587 37.6584 10.24C37.3277 9.61067 37.1624 8.864 37.1624 8C37.1624 7.136 37.3277 6.39467 37.6584 5.776C37.989 5.14667 38.4424 4.66667 39.0184 4.336C39.5944 4.00533 40.2504 3.84 40.9864 3.84C41.733 3.84 42.3677 4 42.8904 4.32C43.4237 4.64 43.829 5.07733 44.1064 5.632C44.3837 6.176 44.5224 6.78933 44.5224 7.472C44.5224 7.65333 44.517 7.81867 44.5064 7.968C44.4957 8.11733 44.4797 8.25067 44.4584 8.368H37.9944V7.232H43.8984L43.2424 7.36C43.2424 6.592 43.029 6 42.6024 5.584C42.1864 5.168 41.637 4.96 40.9544 4.96C40.4317 4.96 39.9784 5.08267 39.5944 5.328C39.221 5.56267 38.9277 5.90933 38.7144 6.368C38.5117 6.816 38.4104 7.36 38.4104 8C38.4104 8.62933 38.517 9.17333 38.7304 9.632C38.9437 10.0907 39.2424 10.4427 39.6264 10.688C40.021 10.9227 40.4904 11.04 41.0344 11.04C41.621 11.04 42.0957 10.928 42.4584 10.704C42.8317 10.48 43.1304 10.176 43.3544 9.792L44.3624 10.384C44.1597 10.7467 43.8984 11.0613 43.5784 11.328C43.269 11.5947 42.901 11.8027 42.4744 11.952C42.0584 12.0907 41.589 12.16 41.0664 12.16ZM48.1728 0.32V9.968C48.1728 10.3733 48.2474 10.656 48.3968 10.816C48.5461 10.9653 48.7861 11.04 49.1168 11.04C49.3301 11.04 49.5061 11.024 49.6448 10.992C49.7834 10.96 49.9701 10.9013 50.2048 10.816L49.9968 11.936C49.8261 12.0107 49.6394 12.064 49.4368 12.096C49.2341 12.1387 49.0261 12.16 48.8128 12.16C48.1621 12.16 47.6768 11.984 47.3568 11.632C47.0474 11.28 46.8928 10.7413 46.8928 10.016V0.32H48.1728ZM52.4874 2.464C52.1994 2.464 51.9647 2.37867 51.7834 2.208C51.6127 2.02667 51.5274 1.792 51.5274 1.504C51.5274 1.216 51.6127 0.986666 51.7834 0.815999C51.9647 0.634666 52.1994 0.544 52.4874 0.544C52.7754 0.544 53.0047 0.634666 53.1754 0.815999C53.3567 0.986666 53.4474 1.216 53.4474 1.504C53.4474 1.792 53.3567 2.02667 53.1754 2.208C53.0047 2.37867 52.7754 2.464 52.4874 2.464ZM53.1274 4V12H51.8474V4H53.1274ZM58.9774 12.16C58.1987 12.16 57.4787 11.9947 56.8174 11.664C56.1667 11.3333 55.6654 10.864 55.3134 10.256L56.4014 9.472C56.636 9.96267 56.9774 10.3467 57.4254 10.624C57.884 10.9013 58.4334 11.04 59.0734 11.04C59.6387 11.04 60.0814 10.9333 60.4014 10.72C60.7214 10.496 60.8814 10.208 60.8814 9.856C60.8814 9.632 60.8067 9.42933 60.6574 9.248C60.5187 9.056 60.2467 8.91733 59.8414 8.832L57.9214 8.432C57.1427 8.272 56.5827 8.00533 56.2414 7.632C55.9107 7.25867 55.7454 6.79467 55.7454 6.24C55.7454 5.80267 55.868 5.40267 56.1134 5.04C56.3694 4.67733 56.7267 4.38933 57.1854 4.176C57.6547 3.952 58.204 3.84 58.8334 3.84C59.6227 3.84 60.2894 3.99467 60.8334 4.304C61.3774 4.61333 61.7827 5.05067 62.0494 5.616L60.9774 6.32C60.796 5.85067 60.5027 5.50933 60.0974 5.296C59.692 5.072 59.2707 4.96 58.8334 4.96C58.4494 4.96 58.1187 5.01333 57.8414 5.12C57.5747 5.22667 57.3667 5.376 57.2174 5.568C57.0787 5.74933 57.0094 5.95733 57.0094 6.192C57.0094 6.42667 57.0894 6.64533 57.2494 6.848C57.4094 7.04 57.708 7.17867 58.1454 7.264L60.1454 7.68C60.892 7.82933 61.4147 8.07467 61.7134 8.416C62.012 8.75733 62.1614 9.17333 62.1614 9.664C62.1614 10.1653 62.028 10.608 61.7614 10.992C61.4947 11.3653 61.1214 11.6533 60.6414 11.856C60.1614 12.0587 59.6067 12.16 58.9774 12.16ZM66.4229 1.728V9.792C66.4229 10.1867 66.5349 10.48 66.7589 10.672C66.9829 10.864 67.2709 10.96 67.6229 10.96C67.9322 10.96 68.1989 10.9067 68.4229 10.8C68.6469 10.6933 68.8495 10.5493 69.0309 10.368L69.4789 11.44C69.2335 11.664 68.9402 11.84 68.5989 11.968C68.2682 12.096 67.8842 12.16 67.4469 12.16C67.0415 12.16 66.6629 12.0907 66.3109 11.952C65.9589 11.8027 65.6762 11.5733 65.4629 11.264C65.2602 10.944 65.1535 10.528 65.1429 10.016V2.08L66.4229 1.728ZM69.3349 4V5.104H63.5429V4H69.3349Z" fill="#213F7D"/>
</svg>
